<?xml version="1.0" encoding="utf-8"?>
<svg version="1.1" width="490.3pt" height="149.2pt" id="svg86" viewBox="0 0 730 219" xmlns="http://www.w3.org/2000/svg">
  <defs id="defs90"/>
  <path d="M 674.092 108.096 L 672.503 107.619 C 672.503 107.619 664.239 100.786 676.158 102.852 C 676.158 102.852 686.805 106.825 688.076 109.685 C 688.076 109.685 690.937 114.294 694.592 113.976 C 694.592 113.976 704.921 111.751 709.053 121.604 C 709.053 121.604 705.398 121.921 704.762 123.669 C 704.762 123.669 695.863 121.445 694.433 124.305 C 694.433 124.305 682.673 124.623 682.355 127.801 C 682.355 127.801 680.607 126.212 681.879 138.29 C 681.879 138.29 684.421 160.22 682.832 162.603 C 682.832 162.603 676.634 168.801 659.79 154.499 C 659.79 154.499 658.359 148.301 656.929 147.507 L 669.165 148.778 C 669.165 148.778 673.138 148.778 673.138 145.917 L 673.615 135.906 C 673.615 135.906 671.549 125.735 665.51 131.138 C 665.51 131.138 654.863 133.204 649.142 138.925 L 637.859 130.185 C 637.859 130.185 643.739 121.604 660.107 121.921 C 660.107 121.921 677.111 119.697 678.541 113.34 C 678.541 113.34 681.561 110.003 674.092 108.096 L 674.092 108.096 Z M 255.308 105.386 L 253.112 104.615 C 253.112 104.615 248.498 103.736 253.551 99.562 C 253.551 99.562 276.18 83.963 293.756 80.887 C 293.756 80.887 296.612 77.592 303.642 77.812 C 303.642 77.812 309.355 76.054 311.991 74.077 C 311.991 74.077 317.483 70.562 318.143 64.41 C 318.143 64.41 316.165 60.675 317.923 59.357 L 322.537 59.577 C 322.537 59.577 324.734 56.062 327.37 58.698 C 327.37 58.698 331.324 57.16 329.347 60.456 C 329.347 60.456 330.006 61.993 328.249 65.728 C 328.249 65.728 326.711 67.266 332.862 67.046 C 332.862 67.046 342.749 70.122 334.62 75.834 C 334.62 75.834 330.006 76.713 329.347 78.471 L 324.514 79.13 L 322.317 87.698 C 322.317 87.698 324.018 91.929 329.876 86.704 L 332.725 86.229 C 332.725 86.229 337 80.372 341.116 87.971 C 341.116 87.971 343.491 87.971 341.116 91.454 C 341.116 91.454 340.641 96.52 333.042 102.853 L 328.451 105.069 L 323.385 106.177 C 323.385 106.177 320.06 105.069 319.743 107.444 C 319.743 107.444 315.785 122.484 315.31 124.542 C 315.31 124.542 315.785 127.234 320.06 129.609 C 320.06 129.609 321.485 134.041 317.843 136.258 L 311.827 143.382 C 311.827 143.382 310.086 147.182 313.252 146.232 C 313.252 146.232 314.994 143.699 317.21 145.124 C 317.21 145.124 319.743 140.691 322.751 142.591 L 325.601 141.641 C 325.601 141.641 328.292 141.482 327.501 144.49 C 327.501 144.49 329.401 149.715 325.443 154.939 C 325.443 154.939 323.543 152.723 321.96 153.515 C 320.376 154.306 308.661 159.214 308.661 159.214 C 308.661 159.214 297.895 157.472 300.112 150.032 L 302.487 144.332 C 302.487 144.332 305.336 138.949 309.136 134.516 L 304.228 127.392 C 304.228 127.392 305.97 120.584 308.028 118.685 L 312.144 105.228 C 312.144 105.228 313.252 100.161 309.294 101.903 L 297.895 115.677 C 297.895 115.677 290.296 117.735 292.038 114.252 C 292.038 114.252 294.729 110.769 294.887 107.919 L 309.769 90.504 C 309.769 90.504 310.086 86.071 308.028 85.913 C 308.028 85.913 290.929 91.771 288.396 94.779 C 288.396 94.779 275.889 109.027 271.931 110.927 C 271.931 110.927 269.081 114.093 261.482 108.077 L 255.308 105.386 Z M 301.615 69.847 L 297.892 73.246 L 295.033 70.591 L 295.237 67.324 C 295.237 67.324 300.93 58.89 302.138 55.267 L 309.626 44.397 C 309.626 44.397 314.94 35.701 317.114 34.735 L 320.013 28.938 L 323.636 24.59 C 323.636 24.59 323.533 17.695 322.395 16.179 C 322.395 16.179 327.07 9.357 329.47 8.852 C 329.47 8.852 332.881 8.725 332.755 9.863 C 332.755 9.863 335.787 10.747 335.282 12.389 C 335.282 12.389 339.577 17.19 339.451 19.085 L 341.093 19.464 C 341.093 19.464 342.104 19.717 341.346 21.612 C 341.346 21.612 341.22 25.402 341.978 25.402 C 341.578 26.046 336.379 34.941 337.223 34.606 C 337.223 34.606 329.514 43.172 325.231 45.986 C 325.231 45.986 307.244 64.708 301.615 69.847 L 301.615 69.847 Z M 413.194 58.069 L 412.4 56.995 C 412.4 56.995 411.104 52.819 419.457 51.667 C 419.457 51.667 432.419 51.379 438.179 51.667 L 441.492 50.658 C 441.492 50.658 442.788 47.922 442.068 46.338 C 442.068 46.338 430.978 39.569 432.563 33.521 C 432.563 33.521 430.402 32.224 432.275 30.928 C 432.275 30.928 435.875 29.776 448.26 35.825 C 448.26 35.825 458.341 38.273 461.51 40.289 C 461.51 40.289 463.382 43.17 465.11 43.026 C 465.11 43.026 466.838 40.721 468.134 40.289 C 468.134 40.289 474.327 40.145 475.191 43.89 C 475.191 43.89 472.455 53.107 473.895 54.403 C 473.895 54.403 474.615 55.987 466.838 53.683 C 466.838 53.683 460.214 60.596 457.189 61.316 C 457.189 61.316 446.676 72.693 446.676 76.581 C 446.676 76.581 448.692 81.91 453.301 74.565 C 453.301 74.565 455.893 67.94 462.518 66.5 C 462.518 66.5 466.118 68.372 462.518 72.837 C 462.518 72.837 470.295 69.669 474.759 71.973 C 474.759 71.973 476.631 71.973 476.631 73.557 C 476.631 75.141 476.631 72.837 476.631 72.837 L 475.191 79.75 C 475.191 79.75 470.151 81.046 469.863 82.198 C 469.575 83.35 462.95 86.23 461.942 87.959 C 461.942 87.959 458.917 88.679 461.078 92.567 L 467.27 89.975 C 467.27 89.975 471.159 88.679 475.191 91.415 C 475.191 91.415 477.927 98.616 471.735 99.624 C 471.735 99.624 464.966 101.208 463.526 100.2 C 463.526 100.2 460.07 102.36 461.51 109.417 C 461.51 109.417 451.861 110.137 450.997 113.305 C 450.997 113.305 455.893 116.33 463.958 116.762 C 463.958 116.762 466.838 115.034 468.134 117.05 L 463.526 132.315 C 463.526 132.315 471.735 137.5 471.879 139.66 C 471.879 139.66 472.167 145.133 459.205 143.405 L 457.477 140.668 C 457.477 140.668 453.589 143.693 452.293 143.693 C 452.293 143.693 443.508 144.557 442.356 139.948 C 442.356 139.948 451.141 137.644 453.013 136.06 C 453.013 136.06 456.037 135.196 454.597 131.019 C 454.597 131.019 454.309 126.699 456.325 125.979 C 456.325 125.979 459.493 123.674 457.189 121.37 C 457.189 121.37 445.092 121.802 443.364 130.443 C 443.364 130.443 430.834 143.981 429.826 146.285 C 429.826 146.285 420.897 148.157 424.066 141.388 L 445.956 117.194 C 445.956 117.194 449.844 111.865 445.38 108.697 C 445.38 108.697 444.372 105.672 446.532 104.52 C 446.532 104.52 453.733 103.8 456.181 104.952 C 456.181 104.952 458.917 102.36 458.917 100.488 C 458.917 100.488 456.613 97.32 455.173 99.48 C 455.173 99.48 443.508 103.224 443.364 95.879 C 443.364 95.879 440.771 90.695 441.059 88.535 C 441.059 88.535 439.043 82.486 433.427 91.271 C 433.427 91.271 420.753 107.468 416.534 115.731 C 416.534 115.731 391.746 148.957 388.582 151.594 L 385.945 159.329 L 381.902 160.208 C 381.902 160.208 378.034 156.164 382.429 142.452 L 433.587 82.153 L 452.221 60.53 C 452.221 60.53 450.287 54.904 448.002 57.014 C 448.002 57.014 428.488 64.573 418.819 64.398 L 413.194 58.069 Z M 425.575 117.169 L 424.822 116.667 C 424.822 116.667 428.651 108.318 436.246 105.745 C 436.246 105.745 436.999 105.368 436.999 106.498 L 436.686 108.13 L 438.757 110.641 C 438.757 110.641 438.38 116.667 437.188 117.86 C 437.188 117.86 434.991 119.241 432.605 118.173 L 425.575 117.169 Z M 450.304 94.67 L 449.773 94.936 C 449.773 94.936 446.76 95.024 448.266 92.898 C 448.266 92.898 450.747 90.683 452.342 91.924 C 452.342 91.924 454.025 94.316 452.519 94.404 L 450.304 94.67 Z M 452.696 87.848 L 452.165 86.962 C 452.165 86.962 453.671 80.406 458.986 80.318 C 458.986 80.318 463.416 79.786 458.809 85.899 C 458.809 85.899 456.329 85.988 456.24 87.76 C 456.24 87.76 454.379 88.557 452.696 87.848 L 452.696 87.848 Z M 554.782 61.585 L 555.448 59.483 L 552.435 48.937 C 552.435 48.937 557.708 47.305 561.349 46.426 C 561.349 46.426 563.483 47.933 564.613 47.933 C 564.613 47.933 569.509 55.716 568.505 58.353 C 568.505 58.353 562.604 62.747 562.73 65.006 C 562.73 65.006 556.202 96.141 557.331 96.141 C 557.331 96.141 561.88 95.86 569.803 93.185 C 569.803 93.185 573.404 92.979 572.993 90.304 L 570.729 84.645 C 570.729 84.645 577.52 76.927 586.369 85.776 L 588.016 90.304 L 586.472 94.317 C 586.472 94.317 578.831 96.498 578.198 100.19 C 578.198 100.19 573.874 102.616 570.076 101.983 C 570.076 101.983 556.259 106.097 556.048 107.468 L 555.731 111.793 C 555.731 111.793 572.503 131.517 576.933 136.475 C 576.933 136.475 579.57 141.011 586.426 140.589 C 586.426 140.589 592.649 141.854 593.704 143.964 C 593.704 143.964 585.055 148.394 581.785 148.816 C 581.785 148.816 572.503 151.031 566.701 142.171 C 566.701 142.171 559.845 124.239 557.735 122.235 C 557.735 122.235 555.626 118.333 554.255 118.544 C 554.255 118.544 552.251 118.86 551.407 121.497 L 546.027 131.834 C 546.027 131.834 532.948 140.378 519.868 139.112 C 519.868 139.112 514.594 137.213 515.333 133.1 C 515.333 133.1 517.231 131.623 523.349 131.517 C 523.349 131.517 544.551 125.4 543.39 114.852 C 543.39 114.852 541.07 111.476 535.268 116.539 L 530.522 118.965 C 530.522 118.965 524.088 114.535 527.041 109.894 L 546.871 101.456 L 554.782 61.585 Z M 672.145 67.386 L 671.794 66.449 L 668.05 64.137 L 665.574 60.646 L 661.886 55.441 L 667.279 52.938 L 672.838 51.649 L 677.067 52.502 C 677.067 52.502 689.608 38.907 692.889 36.446 L 696.757 28.125 C 696.757 28.125 704.258 21.327 709.649 31.523 C 709.649 31.523 711.758 38.321 708.594 40.665 C 708.594 40.665 694.061 43.829 691.131 54.025 C 691.131 54.025 693.593 61.409 690.428 62.581 C 690.428 62.581 684.92 61.643 685.271 67.972 C 685.271 67.972 685.975 71.605 689.491 67.972 L 700.507 60.003 C 700.507 60.003 704.14 62.229 705.078 57.424 C 705.078 57.424 704.258 56.369 701.562 57.424 C 701.562 57.424 697.226 57.541 696.757 54.26 C 696.757 54.26 701.093 47.111 719.142 47.697 C 719.142 47.697 726.291 51.916 721.72 57.424 C 721.72 57.424 711.407 63.87 702.148 70.316 C 702.148 70.316 697.577 78.051 702.265 78.989 C 702.265 78.989 714.688 75.824 719.025 77.817 C 719.025 77.817 725.471 81.216 721.603 85.669 C 721.603 85.669 700.39 105.007 680.466 98.913 C 680.466 98.913 676.013 97.741 681.404 96.569 C 681.404 96.569 704.258 89.888 706.133 86.372 C 706.133 86.372 708.828 82.856 699.335 84.614 C 699.335 84.614 679.06 89.302 674.372 92.115 C 674.372 92.115 668.629 93.17 666.52 92.232 C 666.52 92.232 660.074 86.372 667.926 86.138 C 667.926 86.138 677.771 84.849 681.873 78.637 C 681.873 78.637 680.701 72.191 675.075 75.942 L 668.512 78.754 C 668.512 78.754 666.168 74.887 672.38 69.847 C 672.38 69.847 673.434 67.386 672.145 67.386 Z M 690.438 75.722 L 689.229 75.722 C 689.229 75.722 683.791 73.506 689.632 71.391 C 689.632 71.391 694.063 70.082 694.265 71.996 L 693.258 75.118 C 693.258 75.118 691.646 75.722 690.438 75.722 L 690.438 75.722 Z M 653.042 73.481 L 652.69 71.957 C 652.69 71.957 656.44 67.152 656.44 61.057 C 656.44 61.057 656.323 58.245 662.3 64.105 L 664.996 69.496 C 664.996 69.496 665.348 71.605 663.121 74.535 C 663.121 74.535 660.777 80.864 658.55 83.442 L 655.503 82.739 C 655.503 82.739 655.268 75.356 653.042 73.481 L 653.042 73.481 Z M 651.752 89.068 L 650.463 88.599 C 650.463 88.599 640.384 91.178 645.658 101.139 C 645.658 101.139 648.705 101.022 649.291 102.194 C 649.291 102.194 657.73 98.327 651.752 89.068 L 651.752 89.068 Z" style="fill:#009ee0;fill-rule:evenodd" id="path2"/>
  <path d="M 277.704 197.919 C 276.328 201.312 274.187 203.057 271.281 203.153 C 266.43 202.682 263.803 199.241 263.4 192.823 C 263.726 186.785 266.229 183.579 270.914 183.199 C 273.986 183.296 276.049 185.179 277.099 188.862 L 278.309 188.862 L 278.066 182.493 L 277.218 182.493 C 277.058 182.68 276.856 182.776 276.613 182.776 C 276.453 182.776 276.127 182.68 275.646 182.493 C 273.867 181.738 272.207 181.364 270.676 181.364 C 263.4 182.022 259.444 185.982 258.797 193.246 C 259.361 200.322 263.12 204.143 270.066 204.711 C 270.955 204.711 272.046 204.614 273.339 204.427 C 274.312 204.33 275 204.288 275.403 204.288 C 276.127 204.288 276.732 204.33 277.218 204.427 C 278.107 202.447 278.713 200.273 279.038 197.919 L 277.704 197.919 Z M 297.461 203.014 L 297.461 204.427 L 307.401 204.427 L 307.401 203.014 L 306.915 203.014 C 305.219 203.105 304.412 202.211 304.495 200.322 L 304.495 185.892 C 304.412 184.099 305.177 183.248 306.796 183.344 L 307.401 183.344 L 307.401 181.925 L 297.461 181.925 L 297.461 183.344 L 297.704 183.344 C 299.483 183.248 300.331 184.147 300.249 186.031 L 300.249 191.694 L 289.947 191.694 L 289.947 185.892 C 289.864 184.099 290.676 183.248 292.373 183.344 L 292.859 183.344 L 292.859 181.925 L 282.919 181.925 L 282.919 183.344 L 283.4 183.344 C 284.936 183.344 285.707 184.189 285.707 185.892 L 285.707 200.322 C 285.707 202.115 284.936 203.014 283.4 203.014 L 282.919 203.014 L 282.919 204.427 L 292.859 204.427 L 292.859 203.014 L 292.373 203.014 C 290.754 203.014 289.947 202.115 289.947 200.322 L 289.947 193.813 L 300.249 193.813 L 300.249 200.183 C 300.249 202.066 299.483 203.014 297.947 203.014 L 297.461 203.014 Z M 311.644 193.529 C 312.207 200.605 315.967 204.33 322.912 204.711 C 330.266 204.427 334.186 200.418 334.672 192.684 C 334.269 185.512 330.551 181.69 323.522 181.219 C 316.086 181.69 312.125 185.795 311.644 193.529 Z M 316.246 191.833 C 316.489 186.079 318.672 183.06 322.793 182.776 C 327.318 183.157 329.744 186.93 330.065 194.097 C 329.821 200.134 327.68 203.25 323.641 203.437 C 318.956 202.966 316.489 199.096 316.246 191.833 Z M 343.523 186.453 L 358.308 204.427 L 360.004 204.427 L 360.004 185.179 C 359.927 183.863 360.775 183.248 362.554 183.344 L 362.916 183.344 L 362.916 181.925 L 354.916 181.925 L 354.916 183.344 L 355.278 183.344 C 356.57 183.344 357.382 183.531 357.703 183.911 C 358.029 184.286 358.189 185.137 358.189 186.453 L 358.189 197.351 L 345.462 181.925 L 339.158 181.925 L 339.158 183.344 C 340.13 183.344 340.937 183.579 341.583 184.05 L 341.583 200.75 C 341.661 202.259 340.896 203.014 339.282 203.014 L 339.039 203.014 L 339.039 204.427 L 346.553 204.427 L 346.553 203.014 C 344.371 203.201 343.362 202.211 343.523 200.038 L 343.523 186.453 Z M 389.096 193.529 L 378.794 193.529 L 378.794 194.948 C 380.408 195.039 381.458 195.232 381.944 195.51 C 382.43 195.793 382.673 196.361 382.673 197.212 L 382.673 202.302 C 381.783 202.87 380.651 203.153 379.275 203.153 C 374.59 202.682 372.087 199.241 371.761 192.823 C 372.087 186.598 374.59 183.296 379.275 182.915 C 382.59 183.012 384.731 184.944 385.704 188.718 L 386.914 188.718 L 386.914 182.209 L 386.065 182.209 C 385.983 182.493 385.704 182.638 385.217 182.638 C 384.974 182.638 384.411 182.493 383.521 182.209 C 381.499 181.647 379.803 181.364 378.427 181.364 C 371.399 181.835 367.639 185.656 367.158 192.823 C 367.402 200.557 371.28 204.524 378.794 204.711 C 381.458 204.614 384.168 203.908 386.914 202.586 L 386.914 197.212 C 386.831 195.606 387.56 194.852 389.096 194.948 L 389.096 193.529 Z M 416.729 210.797 C 415.033 210.797 413.213 209.613 411.273 207.259 C 409.903 205.84 408.812 204.898 408.005 204.427 C 413.337 202.634 416.124 198.722 416.367 192.684 C 415.964 185.512 412.246 181.69 405.217 181.219 C 397.864 181.786 393.902 185.843 393.339 193.39 C 393.582 198.957 396.085 202.586 400.853 204.288 C 401.82 204.566 403.237 205.604 405.093 207.398 C 407.436 210.229 410.549 211.877 414.428 212.349 C 415.152 212.349 415.762 212.306 416.243 212.21 L 416.729 210.797 Z M 397.941 191.833 C 398.107 186.079 400.284 183.06 404.488 182.776 C 408.931 183.06 411.356 186.785 411.76 193.958 C 411.516 200.086 409.375 203.25 405.337 203.437 C 400.651 202.966 398.184 199.096 397.941 191.833 L 397.941 191.833 Z M 420.734 183.344 L 421.096 183.344 C 422.71 183.248 423.48 184.147 423.397 186.031 L 423.397 200.467 C 423.48 202.163 422.71 203.014 421.096 203.014 L 420.734 203.014 L 420.734 204.427 L 430.55 204.427 L 430.55 203.014 L 430.063 203.014 C 428.367 203.105 427.56 202.211 427.643 200.322 L 427.643 186.031 C 427.643 184.238 428.45 183.344 430.063 183.344 L 430.55 183.344 L 430.55 181.925 L 420.734 181.925 L 420.734 183.344 Z M 438.552 186.453 L 453.337 204.427 L 455.034 204.427 L 455.034 185.179 C 454.956 183.863 455.804 183.248 457.583 183.344 L 457.945 183.344 L 457.945 181.925 L 449.945 181.925 L 449.945 183.344 L 450.307 183.344 C 451.6 183.344 452.412 183.531 452.732 183.911 C 453.058 184.286 453.219 185.137 453.219 186.453 L 453.219 197.351 L 440.491 181.925 L 434.187 181.925 L 434.187 183.344 C 435.16 183.344 435.966 183.579 436.613 184.05 L 436.613 200.75 C 436.69 202.259 435.925 203.014 434.311 203.014 L 434.068 203.014 L 434.068 204.427 L 441.583 204.427 L 441.583 203.014 C 439.4 203.201 438.392 202.211 438.552 200.038 L 438.552 186.453 Z M 484.125 193.529 L 473.824 193.529 L 473.824 194.948 C 475.437 195.039 476.487 195.232 476.973 195.51 C 477.459 195.793 477.702 196.361 477.702 197.212 L 477.702 202.302 C 476.813 202.87 475.68 203.153 474.305 203.153 C 469.619 202.682 467.116 199.241 466.791 192.823 C 467.116 186.598 469.619 183.296 474.305 182.915 C 477.619 183.012 479.76 184.944 480.733 188.718 L 481.943 188.718 L 481.943 182.209 L 481.095 182.209 C 481.012 182.493 480.733 182.638 480.247 182.638 C 480.004 182.638 479.44 182.493 478.55 182.209 C 476.528 181.647 474.832 181.364 473.456 181.364 C 466.429 181.835 462.669 185.656 462.188 192.823 C 462.431 200.557 466.309 204.524 473.824 204.711 C 476.487 204.614 479.197 203.908 481.943 202.586 L 481.943 197.212 C 481.86 195.606 482.589 194.852 484.125 194.948 L 484.125 193.529 Z M 521.091 183.344 L 521.577 183.344 C 523.351 183.248 524.199 184.473 524.122 187.021 L 524.122 195.793 C 524.039 200.134 522.022 202.35 518.061 202.447 C 514.425 202.35 512.563 200.37 512.486 196.5 L 512.486 185.747 C 512.486 184.147 513.21 183.344 514.668 183.344 L 515.149 183.344 L 515.149 181.925 L 505.453 181.925 L 505.453 183.344 L 506.063 183.344 C 507.599 183.248 508.323 184.05 508.245 185.747 L 508.245 196.5 C 508.323 201.879 511.353 204.614 517.331 204.711 C 523.072 204.614 525.978 201.505 526.061 195.371 L 526.061 186.314 C 525.978 184.238 526.909 183.248 528.848 183.344 L 529.092 183.344 L 529.092 181.925 L 521.091 181.925 L 521.091 183.344 Z M 536.484 186.453 L 551.269 204.427 L 552.965 204.427 L 552.965 185.179 C 552.888 183.863 553.736 183.248 555.515 183.344 L 555.877 183.344 L 555.877 181.925 L 547.876 181.925 L 547.876 183.344 L 548.238 183.344 C 549.531 183.344 550.343 183.531 550.664 183.911 C 550.99 184.286 551.15 185.137 551.15 186.453 L 551.15 197.351 L 538.423 181.925 L 532.119 181.925 L 532.119 183.344 C 533.091 183.344 533.898 183.579 534.544 184.05 L 534.544 200.75 C 534.622 202.259 533.857 203.014 532.243 203.014 L 532 203.014 L 532 204.427 L 539.514 204.427 L 539.514 203.014 C 537.332 203.201 536.323 202.211 536.484 200.038 L 536.484 186.453 Z M 559.271 183.344 L 559.633 183.344 C 561.247 183.248 562.017 184.147 561.935 186.031 L 561.935 200.467 C 562.017 202.163 561.247 203.014 559.633 203.014 L 559.271 203.014 L 559.271 204.427 L 569.087 204.427 L 569.087 203.014 L 568.601 203.014 C 566.904 203.105 566.098 202.211 566.18 200.322 L 566.18 186.031 C 566.18 184.238 566.987 183.344 568.601 183.344 L 569.087 183.344 L 569.087 181.925 L 559.271 181.925 L 559.271 183.344 Z M 582.783 204.711 L 584.722 204.711 L 591.15 187.166 C 592.035 184.425 593.25 183.157 594.786 183.344 L 594.905 183.344 L 594.905 181.925 L 587.029 181.925 L 587.029 183.344 L 587.753 183.344 C 589.449 183.435 590.095 184.099 589.692 185.324 L 584.965 198.625 L 580.12 186.453 C 579.634 185.324 579.551 184.521 579.876 184.05 C 580.197 183.579 581.009 183.344 582.302 183.344 L 582.783 183.344 L 582.783 181.925 L 571.995 181.925 L 571.995 183.344 L 572.238 183.344 C 573.128 183.344 573.774 183.531 574.178 183.911 C 574.503 184.189 574.948 184.992 575.512 186.314 L 582.783 204.711 Z M 611.875 183.911 C 613.085 183.718 613.814 184.805 614.057 187.166 L 615.267 187.166 L 614.905 181.925 L 597.813 181.925 L 597.813 183.344 L 598.181 183.344 C 600.037 183.248 600.927 184.099 600.844 185.892 L 600.844 200.467 C 600.927 202.259 600.12 203.105 598.418 203.014 L 597.208 203.014 L 597.208 204.427 L 615.872 204.427 L 616.239 198.764 L 615.024 198.764 C 614.621 201.408 613.452 202.634 611.513 202.447 L 606.3 202.447 C 605.41 202.634 605.007 202.024 605.084 200.605 L 605.084 194.097 L 609.692 194.097 C 611.792 193.91 612.723 194.755 612.48 196.645 L 613.695 196.645 L 613.695 189.43 L 612.48 189.43 C 612.562 191.217 611.792 192.068 610.179 191.972 L 605.084 191.972 L 605.084 183.911 L 611.875 183.911 Z M 627.024 194.803 L 629.45 194.803 C 630.256 195.558 631.389 197.067 632.842 199.332 C 633.814 200.937 634.497 201.976 634.9 202.447 C 635.629 203.292 636.478 203.908 637.45 204.288 C 638.417 204.475 639.834 204.566 641.69 204.566 C 642.497 204.566 643.143 204.566 643.63 204.566 L 643.63 203.437 C 641.933 203.34 640.558 202.586 639.508 201.173 C 638.862 200.418 638.013 199.241 636.964 197.635 C 635.831 195.842 634.9 194.568 634.176 193.813 C 637.165 192.871 638.701 190.939 638.779 188.011 C 638.779 186.411 638.298 185.041 637.326 183.911 C 635.955 182.118 633.085 181.267 628.72 181.364 C 627.588 181.364 625.892 181.454 623.631 181.647 C 622.985 181.647 621.935 181.69 620.477 181.786 C 620.156 181.883 619.872 181.925 619.629 181.925 L 619.629 183.344 L 620.239 183.344 C 622.096 183.248 622.944 184.147 622.783 186.031 L 622.783 200.322 C 622.861 202.211 621.972 203.105 620.115 203.014 L 619.629 203.014 L 619.629 204.427 L 630.416 204.427 L 630.416 203.014 L 629.45 203.014 C 627.831 203.014 627.024 202.115 627.024 200.322 L 627.024 194.803 Z M 627.024 182.915 L 628.72 182.915 C 632.278 183.012 634.094 184.757 634.176 188.156 C 634.254 191.646 632.278 193.39 628.234 193.39 L 627.024 193.39 L 627.024 182.915 Z M 647.748 204.288 L 648.596 204.288 C 648.762 203.908 648.964 203.721 649.201 203.721 C 649.367 203.721 649.729 203.811 650.293 204.005 C 652.072 204.475 653.489 204.711 654.538 204.711 C 658.66 204.524 660.879 202.35 661.204 198.202 C 661.204 196.5 660.6 194.9 659.384 193.39 C 658.417 192.255 656.798 191.03 654.538 189.708 C 652.03 188.108 650.779 186.689 650.779 185.463 C 650.939 183.863 651.953 183.012 653.809 182.915 C 656.312 183.012 658.014 184.618 658.898 187.727 L 660.113 187.727 L 659.508 181.925 L 658.898 181.925 C 658.738 182.022 658.696 182.07 658.779 182.07 C 658.536 182.257 658.334 182.354 658.174 182.354 C 658.091 182.354 657.812 182.257 657.326 182.07 C 655.873 181.599 654.58 181.364 653.447 181.364 C 649.486 181.647 647.386 183.628 647.143 187.305 C 647.629 190.794 649.445 193.155 652.599 194.381 C 655.262 195.606 656.757 197.351 657.083 199.615 C 656.922 201.879 655.749 203.057 653.566 203.153 C 650.98 203.153 649.201 201.36 648.235 197.774 L 647.024 197.774 L 647.748 204.288 Z M 665.447 183.344 L 665.809 183.344 C 667.423 183.248 668.193 184.147 668.11 186.031 L 668.11 200.467 C 668.193 202.163 667.423 203.014 665.809 203.014 L 665.447 203.014 L 665.447 204.427 L 675.263 204.427 L 675.263 203.014 L 674.777 203.014 C 673.08 203.105 672.273 202.211 672.356 200.322 L 672.356 186.031 C 672.356 184.238 673.163 183.344 674.777 183.344 L 675.263 183.344 L 675.263 181.925 L 665.447 181.925 L 665.447 183.344 Z M 691.508 183.767 L 695.144 183.767 C 696.437 183.767 697.244 184.002 697.564 184.473 C 697.89 184.853 698.211 186.031 698.536 188.011 L 699.747 188.011 L 699.266 181.219 L 698.174 181.219 C 697.849 181.786 697.363 182.022 696.716 181.925 L 681.931 181.925 C 681.61 181.925 681.326 181.883 681.083 181.786 C 680.923 181.69 680.721 181.503 680.478 181.219 L 679.505 181.219 L 678.9 188.011 L 680.235 188.011 C 680.555 186.031 680.881 184.853 681.202 184.473 C 681.527 184.002 682.293 183.767 683.508 183.767 L 687.263 183.767 L 687.263 200.322 C 687.346 202.115 686.539 203.014 684.843 203.014 L 683.751 203.014 L 683.751 204.427 L 694.901 204.427 L 694.901 203.014 L 694.172 203.014 C 692.232 203.105 691.343 202.211 691.508 200.322 L 691.508 183.767 Z M 716.959 195.371 L 722.167 185.892 C 722.736 184.853 723.222 184.189 723.626 183.911 C 724.106 183.628 724.794 183.435 725.684 183.344 L 725.684 181.925 L 718.289 181.925 L 718.289 183.344 L 718.656 183.344 C 719.545 183.344 720.109 183.579 720.352 184.05 C 720.512 184.521 720.352 185.228 719.866 186.176 L 716.23 192.823 L 711.261 185.179 C 710.94 184.618 710.899 184.147 711.142 183.767 C 711.384 183.483 711.865 183.344 712.595 183.344 L 713.081 183.344 L 713.081 181.925 L 702.898 181.925 L 702.898 183.344 L 703.141 183.344 C 703.948 183.344 704.512 183.435 704.837 183.628 C 705.158 183.815 705.525 184.286 705.929 185.041 L 712.595 195.371 L 712.595 200.467 C 712.677 202.163 711.907 203.014 710.293 203.014 L 709.445 203.014 L 709.445 204.427 L 720.109 204.427 L 720.109 203.014 L 719.623 203.014 C 717.683 203.105 716.794 202.211 716.959 200.322 L 716.959 195.371 Z" style="fill:#009ee0;fill-rule:evenodd" id="path4"/>
  <g id="Layer1000" transform="matrix(1, 0, 0, 1, -51.762257, -160.830569)">
    <g id="Layer1001">
      <path d="m 150.7557,180.4844 c 0.2027,0.2417 0.4581,0.4971 0.7882,0.5597 0.5333,0.1012 0.822,-0.7344 1.3775,-0.6393 0.5556,0.0952 0.8026,0.4343 1.0395,0.7656 1.9109,2.6714 -1.8981,3.0196 -2.106,4.8478 -0.049,0.3695 0.3293,0.4073 0.6509,0.2459 0.7924,-0.3737 0.8407,0.2972 1.6677,0.8871 0.2943,0.231 0.6154,0.1698 1.0125,0.2904 0.3971,0.1205 1.2595,0.8116 0.9682,1.619 -0.2245,0.6223 -1.8097,1.956 -1.8492,2.754 -0.009,0.1811 0.003,0.2702 0.1557,0.3212 0.2097,0.0376 0.407,-0.2024 0.5969,-0.3988 0.2716,-0.281 0.4542,-0.3146 0.845,-0.2479 0.9894,0.1687 1.8102,1.2895 1.4014,2.3994 -0.3004,0.8155 -1.4012,1.075 -1.8903,1.693 -0.4035,0.5098 0.3512,0.9014 0.0478,1.4428 -0.3291,0.5873 -1.3984,0.8382 -1.7762,1.3894 -0.1117,0.1769 -0.0395,0.274 0.1284,0.2996 0.6994,0.1241 1.1649,-0.7663 1.7471,-0.9626 0.9962,-0.3357 2.0371,0.8413 1.8345,1.881 -0.1279,0.6451 -1.0345,1.5233 -0.8177,2.2055 0.2215,0.697 1.2108,0.848 1.8328,1.1269 0.4405,0.1975 0.6512,0.551 0.6635,1.0387 0.0265,1.0559 -1.5745,1.2828 -2.6629,0.9573 -0.2498,-0.0747 -0.5183,-0.2381 -0.856,-0.1284 -0.7012,0.2278 -1.3673,1.8968 -2.4395,1.4979 -1.9711,-0.7962 0.8501,-2.8235 1.1023,-3.4014 0.1193,-0.2732 -0.1085,-0.5726 -0.1503,-0.8131 -0.0624,-0.3592 0.3339,-0.797 0.6157,-1.0338 0.6537,-0.5491 -0.0326,-0.7619 -0.6496,-0.6012 -1.3634,0.3552 -1.5573,1.8079 -2.0736,3.1746 -0.3073,0.8134 -0.7914,1.9086 -1.1613,2.7783 -0.2971,0.6985 -0.6935,2.36 -1.9259,1.8831 -1.2886,-0.4986 -0.8859,-2.0028 -0.4651,-3.1462 0.7413,-2.0121 2.8066,-3.8032 3.1792,-6.0861 0.1142,-0.7003 -1.5213,-1.1779 -1.1975,-2.0036 0.1271,-0.2639 0.4661,-0.3763 0.7901,-0.3943 0.6893,-0.0383 0.5755,-0.4325 0.1422,-0.4615 -0.5324,-0.0357 -1.7967,-1.4813 -2.1445,-1.8472 -0.9658,-1.016 -0.8746,-1.0778 -1.4437,0.126 -1.5398,3.2567 -4.5398,13.2983 -4.6946,14.3137 -0.3039,1.9942 -0.7035,4.5012 -1.974,4.3444 -0.3754,-0.0516 -1.7243,-1.1003 -1.8841,-1.7552 -0.4787,-1.9947 8.5787,-21.9575 10.0206,-24.6001 0.3385,-0.6204 -0.1422,-0.9604 -0.6357,-0.5065 -1.8426,1.6948 -3.2973,2.2524 -4.9247,2.7121 -0.9211,0.2571 -1.8375,-0.2776 -2.1723,-0.9431 -0.3922,-0.7796 0.0561,-0.9372 0.7271,-1.1348 0.4066,-0.1198 0.8756,-0.3379 1.3233,-0.5223 0.6957,-0.2866 2.2315,-1.099 2.9693,-1.8794 0.7327,-0.7749 0.3952,-1.155 -0.3479,-1.4781 -1.0236,-0.4452 -2.2739,-1.3556 -1.6334,-2.3608 0.4898,-0.7582 2.4667,-0.2976 3.0698,-0.2827 0.2436,0.006 0.2982,-0.1338 0.476,-0.2536 0.7114,-0.4793 2.1532,-0.328 2.7028,0.3276 z m -0.735,8.7982 c -0.0583,0.0971 -0.0721,0.1093 -0.0556,0.1686 0.0256,0.0921 0.0283,0.089 0.126,0.0915 0.134,0.004 0.2665,-0.044 0.2225,-0.22 -0.0256,-0.1022 -0.009,-0.0882 -0.1097,-0.1083 -0.1344,-0.0269 -0.1131,-0.0487 -0.1832,0.0682 z m -1.3134,8.1912 c 2.3826,0.2293 2.1585,4.5922 -0.5473,4.0485 -2.1172,-0.4254 -0.0877,-4.0771 0.5473,-4.0485 z" style="fill:#009ee0;fill-rule:evenodd" id="path6"/>
      <path d="m 189.1654,186.6622 c -0.24,0.5934 -0.8375,0.7719 -1.1556,1.2868 -0.7866,1.2735 -2.1316,4.489 -2.5971,6.4796 -0.2289,0.9787 0.1437,1.3137 0.939,1.139 0.4535,-0.0996 1.4971,-0.4006 1.7538,-0.7056 0.3423,-0.4067 0.1397,-1.019 0.7704,-1.1555 0.4426,-0.0959 1.4944,0.665 1.8445,1.2794 0.1442,0.2529 0.1353,0.4239 0.0368,0.683 -0.7624,2.0061 -5.5601,1.3215 -6.8171,2.7262 -0.4191,0.5268 0.573,1.2509 0.8484,1.9292 0.7601,1.8719 1.4123,4.1512 2.601,5.6857 0.5058,0.6529 1.6859,0.6802 1.9903,1.5514 0.1431,0.4097 0.0868,0.6558 -0.343,0.7523 -0.5773,0.1296 -1.607,0.003 -2.0944,-0.0104 -0.7043,-0.0198 -0.8947,0.1041 -1.3267,-0.0427 -1.5436,-0.5558 -2.3176,-4.4389 -2.3372,-6.0607 -0.009,-0.7318 -0.2713,-1.1881 -0.6847,-0.944 -0.291,0.1718 -0.5131,0.5172 -0.694,0.7971 -0.402,0.6221 -0.7819,1.3752 -1.0939,1.66 -1.4027,1.2502 -7.0039,-0.2925 -6.9542,-1.2523 0.051,-1.6641 1.8757,-0.8825 3.0168,-1.1224 1.141,-0.2399 3.5358,-1.4771 3.3452,-2.3705 -0.0725,-0.1795 -0.2033,-0.3008 -0.5109,-0.2236 -0.3566,0.0895 -0.6105,0.5694 -1.0272,0.6847 -0.9174,0.254 -1.9969,-0.7658 -1.7926,-1.7521 0.4529,-2.1867 4.0659,-0.4896 5.2741,-2.0551 1.16,-2.0104 3.4978,-7.7701 3.5414,-8.3027 0.1869,-4.4854 4.5603,-3.3601 3.4669,-0.6568 z" style="fill:#009ee0;fill-rule:evenodd" id="path8"/>
      <path d="m 111.3536,191.9612 c 0.3159,0.356 0.526,0.8346 0.7351,1.2358 1.1224,3.12 1.5487,10.2453 0.3074,13.0609 -0.7081,1.6062 -1.3668,0.6508 -1.5434,-0.5966 -0.52,-3.6736 -0.0343,-7.8816 -1.835,-11.2128 -0.3963,-0.7331 -1.0373,-1.3835 -0.3243,-2.0549 0.2102,-0.198 0.4742,-0.3759 0.7988,-0.558 0.6296,-0.3531 1.1519,-0.6742 1.8614,0.1256 z m 4.4974,8.9193 c 0.3079,0.3823 0.2481,0.5291 0.7681,0.2841 0.2551,-0.1202 0.5701,-0.398 0.8822,-0.4596 0.4953,-0.0977 0.8356,0.1643 1.0699,0.3424 1.576,1.1977 -0.4249,3.1117 -0.2639,4.4159 0.1044,0.8458 0.6775,0.9656 0.9623,0.0371 0.2391,-0.7793 0.0913,-1.9157 0.9321,-2.0984 1.0141,-0.2202 2.0001,0.3527 2.3238,1.1424 0.1965,0.4796 0.0313,0.7656 -0.0962,1.2502 -0.0683,0.3344 0.0146,0.5912 0.0975,0.827 0.186,0.5295 0.0798,1.3308 -0.0442,1.8771 -0.1973,0.869 -1.0949,1.3543 -0.9093,2.1321 0.1378,0.6167 0.9743,2.9424 1.3814,3.2709 0.4918,0.397 1.3766,0.3748 1.769,0.8664 0.3482,0.4361 0.2436,1.3574 0.4335,1.6944 0.1898,0.3371 0.2834,0.4476 0.6466,-0.1224 0.2729,-0.4282 0.4307,-1.0312 0.8625,-1.1241 0.8544,-0.186 2.0034,1.3559 1.9259,2.0485 -0.0434,0.3876 -0.7273,2.0848 -1.4076,3.3028 -0.2339,0.4189 -0.4534,0.7862 -0.7026,1.0561 -0.4757,0.5151 -1.1454,0.6322 -2.1455,0.1178 -1.0815,-0.5563 -1.4292,-1.9302 -1.3728,-3.3183 0.0293,-0.7226 -0.6749,-1.8653 -1.3427,-2.1159 -0.3323,-0.1248 -0.6855,-0.2234 -0.8709,-0.4954 -0.2109,-0.3094 -0.057,-0.8561 -0.214,-1.2586 -0.056,-0.1436 -0.8526,-1.5169 -1.1832,-1.9483 -0.2435,-0.3177 -0.4542,-0.008 -0.2808,0.3292 0.3001,0.5832 0.3761,1.3721 -0.0239,1.9523 -0.4267,0.619 -1.8386,0.8079 -2.3111,0.0856 -0.4224,-1.4593 -0.2838,-3.252 -0.627,-4.9054 -0.0619,-0.2986 -0.3151,-1.5428 -0.5401,-0.5534 -0.502,2.2075 -1.358,4.2609 -1.358,6.5532 -0.007,1.3536 -0.2223,2.0199 -1.0099,2.5833 -0.7869,0.5723 -3.299,1.1325 -3.8272,0.1279 -0.7534,-2.0035 4.7261,-12.7875 4.8572,-13.2376 0.2804,-0.9621 -0.3938,-1.4628 -0.5992,-2.0465 -0.3345,-0.9512 0.1323,-2.1566 0.6586,-2.7558 0.5203,-0.5924 1.0697,-0.4653 1.5595,0.143 z" style="fill:#009ee0;fill-rule:evenodd" id="path10"/>
      <path d="m 228.6246,202.4386 c 2.4156,-0.0523 1.8219,2.9641 0.7214,3.6334 -0.99,0.6021 -3.6587,-0.7656 -4.0246,0.1525 -0.3959,1.4039 3.7066,0.6672 3.7117,3.2143 0.001,0.551 -0.2305,1.0954 -0.4762,1.3975 -0.701,0.8619 -1.7658,0.1833 -2.9414,0.4284 -0.5059,0.1054 -1.3995,0.2701 -1.9053,0.3759 -0.613,0.1282 -1.959,-0.1954 -1.7185,0.5968 0.2829,0.5018 1.4412,0.8117 1.809,1.4389 0.7884,1.3443 -0.4878,3.0345 -1.3414,3.2703 -0.7234,0.1999 -2.0402,-0.62 -2.9923,-0.6604 -0.4294,-0.0182 -0.8886,-0.0503 -1.2916,-0.1854 -1.3144,-0.3829 -2.266,-1.2182 -3.1236,-2.0658 -0.3105,-0.3069 -1.2172,-0.7704 -1.2068,-1.4145 0.001,-0.0817 0.0174,-0.1664 0.0513,-0.254 0.0889,-0.1969 0.2434,-0.2853 0.4514,-0.3134 0.9467,-0.1277 3.0173,1.2856 4.0486,1.4559 0.8736,0.1443 0.4967,-0.5075 0.083,-0.7175 -0.5773,-0.293 -1.2582,-0.7015 -1.9091,-1.0203 -0.6415,-0.3142 -0.9501,-0.3216 -1.6566,-0.3537 -1.8525,-0.0251 -2.9208,-2.2784 -2.3709,-3.0482 0.507,-0.7096 1.0777,-0.4481 1.5112,-0.191 0.921,0.546 2.3218,0.8219 3.3704,0.7777 0.3886,-0.0164 0.7702,-0.288 0.3721,-0.6377 -0.3976,-0.3493 -1.1376,0.007 -1.5999,-0.2009 -0.4624,-0.2084 -0.7654,-0.3027 -0.8553,-0.7716 -0.1062,-0.5536 -0.3029,-0.8265 -0.7796,-0.4577 -0.9001,0.6961 -1.9889,-0.1134 -1.7569,-1.2831 0.1243,-0.6264 0.7091,-1.2881 1.1848,-1.6754 0.3155,-0.2568 -0.1633,-0.5132 0.3801,-0.4963 0.271,0.008 0.7031,-0.002 0.9706,-0.0464 0.4015,-0.0698 0.5002,-0.556 0.9027,-0.7925 0.2992,-0.1757 0.804,-0.1299 1.0006,0.1617 0.2604,0.3862 0.1412,1.0893 0.5824,1.07 0.3073,-0.006 0.3334,-0.929 0.7701,-1.1457 0.453,-0.1384 0.8607,-0.1885 1.162,0.1281 0.3613,0.3796 0.804,0.6104 1.2225,0.727 0.5734,0.1597 2.5342,0.0675 3.0797,-0.3339 0.13,-0.0956 0.2709,-0.1864 0.4892,-0.1856 0.7988,-0.0142 2.0826,0.0375 2.6954,-0.004 0.6129,-0.0416 0.8952,-0.5547 1.3798,-0.5733 z m -11.5687,3.4951 c 0,0.2029 0.0133,0.1945 0.2271,0.2063 0.158,0.009 0.2199,0.0247 0.3446,-0.13 0.07,-0.0869 0.1213,-0.1675 0.0888,-0.2917 -0.0424,-0.1615 -0.109,-0.1867 -0.3148,-0.1812 -0.2811,0.007 -0.3457,0.158 -0.3457,0.3966 z m -6.3004,0.3614 c 0.9171,0.099 1.2038,0.8699 0.7109,1.3683 -0.5278,0.5338 -1.2557,1.387 -1.6519,1.5293 -1.0089,0.3624 -2.1322,-0.817 -1.8726,-1.517 0.2596,-0.7 1.9275,-1.4762 2.8136,-1.3806 z m 12.7287,1.1149 c 0.0648,0.0122 0.1005,-4e-4 0.1866,-0.0914 0.122,-0.1292 0.1568,-0.2464 0.0516,-0.4305 -0.0284,-0.0495 -0.0906,-0.0994 -0.252,-0.0336 -0.1125,0.046 -0.169,0.1401 -0.194,0.2875 -0.0308,0.1818 0.0125,0.2313 0.2078,0.268 z m -2.2026,0.3363 c -0.2801,0.1314 -0.5911,0.2595 -0.5689,0.6065 0.0129,0.2027 0.1048,0.147 0.2849,0.1127 0.2027,-0.0385 0.3602,-0.1169 0.5098,-0.208 0.1701,-0.1036 0.2227,-0.1277 0.1673,-0.3503 -0.0417,-0.1676 -0.1749,-0.2631 -0.3931,-0.1609 z m 2.8708,0.8078 c 0.0581,0.0481 0.0981,0.0718 0.2016,0.0423 0.0875,-0.025 0.1153,-0.0652 0.1032,-0.2038 -0.009,-0.1048 -0.0424,-0.196 -0.1798,-0.205 -0.0818,-0.005 -0.1055,-0.008 -0.133,0.0668 -0.0438,0.1182 -0.1106,0.2014 0.008,0.2997 z m -20.3425,3.5961 c 1.0285,-0.4388 2.065,1.0887 2.9316,1.7333 0.5409,0.4023 1.0623,0.3805 1.7976,0.642 0.2195,0.1149 0.439,0.2299 0.6586,0.3449 0.1904,0.0998 0.3017,0.1524 0.5196,0.1792 0.8124,0.0997 2.0911,-0.1419 1.946,-0.8237 -0.0892,-0.3318 -0.3478,-0.4497 -0.428,-0.7276 -0.2147,-0.7446 0.4494,-1.4972 1.1535,-1.4727 0.3567,0.0124 0.488,0.1961 0.7114,0.4623 0.6756,0.8051 1.8503,2.5715 1.6874,3.1075 -0.0895,0.2944 -0.5113,0.6511 -0.8449,0.9302 -0.5606,0.4689 -0.8264,0.8888 -0.073,1.2289 0.8077,0.3647 2.078,0.9315 2.2188,1.7148 0.0827,0.4605 -0.3185,1.0656 -0.7445,1.2191 -1.0868,0.3915 -3.4205,-1.0999 -3.9031,-1.5417 -0.4826,-0.4418 -0.6507,-1.0771 -1.4895,-0.2344 -0.8388,0.8427 -2.5068,3.4413 -3.3383,4.665 -0.4133,0.6083 -1.7895,1.8232 -2.8888,1.6263 -0.3318,-0.0594 -0.5303,-0.3139 -0.7276,-0.5136 -0.9754,-0.9876 -0.4279,-1.4934 -0.396,-2.5757 0.0133,-0.4551 -0.054,-0.7625 -0.2366,-1.1644 -0.1384,-0.3046 -0.2704,-0.6095 -0.3353,-0.9402 -0.1008,-0.5133 -0.1497,-1.1013 0.0901,-1.4599 0.0935,-0.1398 0.24,-0.2445 0.3989,-0.2975 0.9899,-0.3303 1.4109,2.0429 2.2764,2.1579 0.674,-0.3257 0.9615,-1.1281 1.391,-1.6905 0.3709,-0.3709 0.7846,-0.5707 1.1555,-0.9416 0.1149,-0.1935 0.1354,-0.4545 0.0428,-0.642 -0.2377,-0.5118 -0.7777,-0.5614 -1.3267,-0.7703 -1.3425,-0.5109 -4.6829,-2.8602 -2.2469,-4.2156 z" style="fill:#009ee0;fill-rule:evenodd" id="path12"/>
    </g>
    <path d="m 93.6798,267.5445 c 1.8238,2.3339 3.6072,4.7663 5.2533,7.2835 0.1395,0.2134 0.3902,0.7475 0.6829,1.2199 0.5067,0.8179 1.7735,1.2267 1.8523,-0.0232 0.1281,-2.0342 3.688,-7.042 5.3259,-8.291 0.1752,-0.1336 0.3067,-0.103 0.1736,0.4334 -0.2122,0.8547 -0.3193,2.0133 -0.3193,2.9737 0,2.0018 -0.9513,7.0033 -1.5807,8.2258 -0.6293,1.2225 -0.4858,1.0736 -0.9791,2.1113 -0.4934,1.0378 -2.7153,6.5801 -1.9457,7.8587 0.2581,0.429 0.8822,0.443 1.259,0.1877 0.455,-0.3084 0.2822,-0.7674 0.3693,-1.2491 0.5078,-2.8093 3.0519,-8.1471 3.1868,-7.2662 0.4304,2.9728 1.8187,8.7111 1.7845,11.7909 -0.0105,0.9543 -0.2206,2.1015 -0.4946,3.011 -0.4514,1.4979 -0.9755,2.2463 -1.2261,3.5832 -0.388,2.0705 0.9854,4.4968 2.733,3.4731 0.6362,-0.5138 -0.8492,-3.6959 0.6949,-7.8692 0.2183,-0.59 0.4651,-1.1948 0.7645,-0.5034 1.7079,3.9429 4.1402,7.3974 5.052,11.7044 0.2078,0.9812 0.3155,1.9512 0.363,3.0549 0.1422,2.5598 -0.4679,7.1155 2.8897,8.3294 0.3414,0.1235 0.7854,-0.01 0.9844,-0.1712 0.7179,-0.5817 -0.0431,-1.6361 -0.2996,-2.1399 -0.3321,-0.6522 -1.3394,-3.8353 -1.4199,-5.5318 -0.0787,-1.6566 0.6847,-0.6637 1.4174,0.1718 1.902,2.1692 6.4056,6.2943 6.7218,6.7724 2.716,3.7945 2.525,8.2992 4.3754,10.1787 1.0181,1.0341 2.7853,2.2094 3.7562,1.6335 0.4252,-1.2177 -0.7416,-1.777 -1.193,-2.5099 -0.7377,-1.1979 -2.6424,-4.7296 -2.9888,-6.1733 -0.1079,-0.4496 0.008,-0.4024 0.3643,-0.2467 0.8944,0.3905 2.5441,1.7451 3.3467,2.0822 9.382,4.4303 9.7994,6.2669 14.7226,12.4543 1.1714,1.3047 5.6472,1.3156 7.7948,3.4286 0.1745,0.1716 0.1009,0.2874 -0.0946,0.3645 -7.4223,2.9273 -18.6996,3.0077 -29.3774,-3.9768 -0.2297,-0.1503 -0.2605,-0.3114 0.0565,-0.2299 0.807,0.2072 3.0568,0.5015 4.0114,0.5196 0.8602,0.0162 4.1954,-0.2927 4.0694,-1.3547 -0.1038,-0.8744 -1.2724,-0.7939 -2.0489,-0.806 -1.0147,-0.0156 -1.7565,0.0466 -2.8984,0.003 -4.5204,0.0684 -7.9471,-1.622 -11.3622,-3.8655 -1.3483,-0.8857 -3.7905,-2.7088 -4.8815,-3.917 -0.2589,-0.2868 -0.1091,-0.4001 0.2211,-0.4154 2.7744,-0.129 7.547,0.6732 10.2123,1.5932 0.4107,0.1418 0.8199,-0.0279 0.9178,-0.4411 0.1886,-0.797 0.007,-0.9259 -0.6501,-1.0721 -3.2321,-0.7197 -13.2061,-2.8057 -17.6238,-8.666 -0.5811,-0.7708 -1.4844,-1.7514 -1.9848,-2.8421 -0.1584,-0.3453 -0.0187,-0.3045 0.3672,-0.2103 0.6817,0.1666 1.3793,0.7039 1.9282,0.9165 0.7182,0.2782 5.5517,2.1695 6.1078,1.5932 0.6158,-0.6382 -0.3314,-1.5204 -0.7358,-1.7703 -2.6401,-1.9801 -5.7512,-2.482 -8.4963,-4.7875 -4.5118,-3.7547 -6.663,-7.7381 -9.2615,-11.3261 0.0593,-1.244 4.6985,1.9771 5.3669,2.2101 0.5512,0.1922 1.7086,0.825 2.3111,0.2996 1.2548,-0.8701 -0.9824,-2.0127 -1.3267,-2.2683 -4.0246,-2.3833 -6.3193,-6.4023 -8.9438,-13.8927 -0.1473,-0.4205 -0.5573,-1.1563 0.2064,-0.8326 0.7637,0.3237 3.0476,3.4354 4.6814,2.4718 0.8203,-0.5969 -1.239,-2.5736 -1.7436,-3.5197 -2.1273,-3.9882 -2.6991,-8.3418 -2.839,-13.6564 -0.0071,-0.2705 0.1529,-0.3638 0.3894,-0.1089 z m 10.9961,-19.6799 c 0.2554,2.3234 -0.2473,7.0801 -0.9066,9.7586 -0.1616,0.6565 -0.8163,3.0232 -0.0619,3.3085 0.7544,0.2854 1.0974,-0.4685 1.4211,-0.7355 0.7837,-0.6465 1.6208,-1.388 2.4933,-2.0029 0.9285,-0.6542 1.0074,-0.3886 0.7306,0.4903 -0.4294,1.3635 -0.7383,3.3247 -1.1946,4.4935 -1.4926,3.8238 -4.9526,6.5325 -6.4063,10.1917 -0.1993,0.5019 -0.4989,0.534 -0.7837,10e-4 -1.1119,-2.079 -1.8221,-3.1564 -2.6582,-4.3874 -2.745,-4.0414 -3.7028,-10.9315 -2.9545,-15.7499 0.0542,-0.0722 0.1058,-0.1193 0.1549,-0.1461 0.1474,-0.0805 0.2727,0.0214 0.3795,0.1743 1.1018,1.5763 2.0702,3.868 2.7597,5.6615 0.3926,1.0212 1.5287,0.7247 1.6047,-0.3264 0.0837,-1.158 0.0364,-2.0006 0.3488,-3.2104 0.7816,-3.0274 2.3492,-5.826 3.4818,-7.8863 0.7167,-1.3038 1.336,-1.9582 1.5914,0.3652 z" style="fill:#009ee0;fill-rule:evenodd" id="path15"/>
    <path d="m 231.8127,267.5445 c -1.8239,2.3339 -3.6073,4.7663 -5.2533,7.2835 -0.1396,0.2134 -0.3902,0.7475 -0.6829,1.2199 -0.5067,0.8179 -1.7736,1.2267 -1.8523,-0.0232 -0.1281,-2.0342 -3.688,-7.042 -5.326,-8.291 -0.1751,-0.1336 -0.3067,-0.103 -0.1735,0.4334 0.2122,0.8547 0.3193,2.0133 0.3193,2.9737 0,2.0018 0.9513,7.0033 1.5806,8.2258 0.6294,1.2225 0.4858,1.0736 0.9792,2.1113 0.4934,1.0378 2.7152,6.5801 1.9457,7.8587 -0.2582,0.429 -0.8822,0.443 -1.259,0.1877 -0.455,-0.3084 -0.2822,-0.7674 -0.3693,-1.2491 -0.5079,-2.8093 -3.0519,-8.1471 -3.1868,-7.2662 -0.4304,2.9728 -1.8187,8.7111 -1.7846,11.7909 0.0106,0.9543 0.2206,2.1015 0.4947,3.011 0.4514,1.4979 0.9755,2.2463 1.226,3.5832 0.3881,2.0705 -0.9854,4.4968 -2.7329,3.4731 -0.6363,-0.5138 0.8492,-3.6959 -0.6949,-7.8692 -0.2183,-0.59 -0.4651,-1.1948 -0.7646,-0.5034 -1.7078,3.9429 -4.1401,7.3974 -5.052,11.7044 -0.2077,0.9812 -0.3154,1.9512 -0.3629,3.0549 -0.1422,2.5598 0.4678,7.1155 -2.8897,8.3294 -0.3414,0.1235 -0.7854,-0.01 -0.9844,-0.1712 -0.7179,-0.5817 0.0431,-1.6361 0.2996,-2.1399 0.3321,-0.6522 1.3394,-3.8353 1.4199,-5.5318 0.0786,-1.6566 -0.6848,-0.6637 -1.4174,0.1718 -1.902,2.1692 -6.4056,6.2943 -6.7218,6.7724 -2.7161,3.7945 -2.525,8.2992 -4.3754,10.1787 -1.0181,1.0341 -2.7854,2.2094 -3.7562,1.6335 -0.4253,-1.2177 0.7416,-1.777 1.1929,-2.5099 0.7377,-1.1979 2.6424,-4.7296 2.9889,-6.1733 0.1079,-0.4496 -0.008,-0.4024 -0.3644,-0.2467 -0.8943,0.3905 -2.544,1.7451 -3.3467,2.0822 -9.3819,4.4303 -9.7993,6.2669 -14.7225,12.4543 -1.1714,1.3047 -5.6473,1.3156 -7.7948,3.4286 -0.1745,0.1716 -0.1009,0.2874 0.0945,0.3645 7.4224,2.9273 18.6997,3.0077 29.3774,-3.9768 0.2297,-0.1503 0.2606,-0.3114 -0.0565,-0.2299 -0.8069,0.2072 -3.0568,0.5015 -4.0113,0.5196 -0.8602,0.0162 -4.1954,-0.2927 -4.0694,-1.3547 0.1037,-0.8744 1.2724,-0.7939 2.0489,-0.806 1.0146,-0.0156 1.7565,0.0466 2.8983,0.003 4.5205,0.0684 7.9472,-1.622 11.3623,-3.8655 1.3482,-0.8857 3.7904,-2.7088 4.8814,-3.917 0.259,-0.2868 0.1091,-0.4001 -0.221,-0.4154 -2.7744,-0.129 -7.547,0.6732 -10.2123,1.5932 -0.4107,0.1418 -0.82,-0.0279 -0.9178,-0.4411 -0.1886,-0.797 -0.007,-0.9259 0.6501,-1.0721 3.2321,-0.7197 13.206,-2.8057 17.6238,-8.666 0.5811,-0.7708 1.4843,-1.7514 1.9847,-2.8421 0.1584,-0.3453 0.0188,-0.3045 -0.3671,-0.2103 -0.6818,0.1666 -1.3793,0.7039 -1.9282,0.9165 -0.7183,0.2782 -5.5518,2.1695 -6.1079,1.5932 -0.6158,-0.6382 0.3314,-1.5204 0.7359,-1.7703 2.64,-1.9801 5.7512,-2.482 8.4962,-4.7875 4.5119,-3.7547 6.663,-7.7381 9.2616,-11.3261 -0.0593,-1.244 -4.6986,1.9771 -5.3669,2.2101 -0.5512,0.1922 -1.7086,0.825 -2.3111,0.2996 -1.2548,-0.8701 0.9823,-2.0127 1.3267,-2.2683 4.0246,-2.3833 6.3193,-6.4023 8.9437,-13.8927 0.1474,-0.4205 0.5574,-1.1563 -0.2063,-0.8326 -0.7637,0.3237 -3.0476,3.4354 -4.6814,2.4718 -0.8203,-0.5969 1.2389,-2.5736 1.7436,-3.5197 2.1273,-3.9882 2.6991,-8.3418 2.8389,-13.6564 0.007,-0.2705 -0.1529,-0.3638 -0.3893,-0.1089 z m -10.9961,-19.6799 c -0.3926,2.5154 0.2472,7.0801 0.9066,9.7586 0.1616,0.6565 0.8162,3.0232 0.0619,3.3085 -0.7544,0.2854 -1.0974,-0.4685 -1.4211,-0.7355 -0.7837,-0.6465 -1.6208,-1.388 -2.4934,-2.0029 -0.9284,-0.6542 -1.0073,-0.3886 -0.7305,0.4903 0.4294,1.3635 0.7383,3.3247 1.1946,4.4935 1.0035,2.5709 2.8893,4.8121 4.4082,6.9333 0.6677,1.0477 1.6055,2.0747 1.998,3.2584 0.0533,0.1606 0.1153,0.3093 0.2057,0.3435 0.377,0.1426 0.5037,-0.0881 0.5781,-0.3422 0.4265,-1.4576 1.8221,-3.1564 2.6582,-4.3874 2.1724,-3.1985 3.345,-8.1436 3.0073,-13.7798 -0.0385,-0.6433 0.0443,-1.3448 -0.0528,-1.9701 -0.3651,-0.4866 -0.6123,0.1675 -0.7838,0.4741 -0.8733,1.562 -1.8452,3.4854 -2.5103,5.2156 -0.3926,1.0212 -1.5288,0.7247 -1.6047,-0.3264 -0.0243,-0.3358 0.0115,-0.704 0.064,-0.9729 0.3542,-3.2277 -2.4871,-7.5633 -3.8946,-10.1238 -0.7167,-1.3038 -1.1989,-2.1503 -1.5914,0.3652 z" style="fill:#009ee0;fill-rule:evenodd" id="path17"/>
    <path d="m 149.0549,243.3009 c 5.5738,1.4978 6.1733,9.3975 3.1038,13.3524 -1.7481,2.2526 -6.7338,2.3669 -9.1409,0.7143 -0.3191,-0.2105 -0.6116,-0.5073 -0.9095,-0.9022 -0.4043,-0.5357 -1.1076,-1.76 -0.1606,-2.0479 0.8346,-0.2538 2.4984,-0.406 3.17,-0.1609 0.6605,0.241 0.7731,0.9751 1.7413,1.1652 0.8548,0.1677 1.9581,-1.1981 2.0775,-2.2271 0.037,-0.3193 -0.0203,-0.4086 -0.2732,-0.4473 -0.5692,-0.0873 -1.1546,0.4876 -1.6233,0.587 -4.4891,0.7585 -7.3484,-4.3355 -5.0175,-7.7239 1.6213,-2.3568 4.5194,-2.9849 7.0324,-2.3096 z m -2.7576,3.6806 c -0.58,1.2011 -0.2554,3.0445 1.5324,2.8993 0.5275,-0.0429 0.9061,-0.2936 1.0795,-0.6786 0.1192,-0.2092 0.1054,-0.4973 0.0552,-0.7809 -0.1068,-0.6048 -0.2128,-1.4267 -0.8304,-1.7009 -0.5896,-0.2619 -1.545,-0.3431 -1.8367,0.2611 z" style="fill:#009ee0;fill-rule:evenodd" id="path19"/>
    <path d="m 127.2105,242.7825 c 0.4714,-0.179 1.4878,-0.136 1.8404,0.0856 0.3562,0.2239 0.3642,1.0693 0.3345,1.8408 -0.1163,3.0133 -0.035,6.0555 -0.035,9.0727 -0.0138,0.8426 1.6299,-0.0801 2.0544,0.8132 0.3154,0.6638 0.3382,2.7567 -0.1712,3.167 -0.6473,0.5213 -2.6339,0.2567 -3.7235,0.2568 -1.2513,1e-4 -4.6325,0.2675 -5.1358,-0.3852 -0.3229,-0.4187 -0.3477,-1.5712 -0.2567,-2.3539 0.0452,-0.3889 0.216,-0.8866 0.6349,-0.9545 0.3717,-0.0602 0.7824,-0.0455 1.125,-0.1266 0.5688,-0.1346 0.3789,-0.4504 0.3661,-0.9661 -0.0247,-0.9879 -0.0718,-2.0638 -0.0717,-3.0886 0.0122,-0.5148 0.0245,-1.0298 0.0367,-1.5447 0.006,-0.2611 0.0101,-0.2795 -0.2505,-0.3307 -0.4322,-0.0849 -0.9271,0.1238 -1.3285,-0.0175 -0.1801,-0.0633 -0.2798,-0.1599 -0.3551,-0.3343 -0.2603,-0.6035 -0.3305,-2.1095 -0.1141,-2.6945 0.2448,-0.6623 0.7848,-0.4126 1.4979,-0.642 0.7131,-0.2294 1.5208,-0.4518 2.1399,-0.7276 0.6191,-0.2757 0.8385,-0.7539 1.4123,-1.0699 z" style="fill:#009ee0;fill-rule:evenodd" id="path21"/>
    <path d="m 177.9263,246.1635 c 0.3446,0.9939 0.0878,2.334 -0.3852,3.0387 -1.472,2.1931 -4.745,2.869 -6.6313,4.6621 -0.1289,0.1224 -0.1848,0.1109 -0.1705,0.2844 0.0183,0.221 -0.0183,0.25 0.2321,0.245 0.4135,-0.008 2.0981,0.063 3.0066,0.001 0.5893,-0.0399 0.5488,-0.0372 0.7216,-0.5498 l 0.2947,-0.8744 3.1319,0.002 0.0309,4.9127 -11.927,-5e-4 c -0.4343,-4.5735 2.2688,-6.2618 2.8903,-6.7686 0.3482,-0.2839 0.4046,-0.3853 0.8454,-0.7157 1.0193,-0.9707 3.3914,-2.1698 3.2721,-3.2619 -0.1193,-1.0922 -1.2266,-1.8919 -2.1165,-1.3603 -0.6132,0.3664 -0.4508,1.2599 -0.8863,1.7935 -0.3685,0.4514 -3.3692,0.4668 -3.7366,0.0126 -0.6498,-0.8035 0.1886,-2.4367 0.7487,-3.1306 2.5559,-3.1665 9.3121,-2.2322 10.6791,1.7097 z" style="fill:#009ee0;fill-rule:evenodd" id="path23"/>
    <path d="m 86.6688,238.0754 c 5.0281,1.9763 6.8615,6.3668 5.1009,11.7931 -0.8329,2.567 -2.4545,3.9839 -3.9979,4.5877 -0.9939,-0.1892 -1.8002,-0.3685 -2.3901,-0.6273 -0.4318,-0.1894 -0.5545,-0.5231 -0.4096,-0.9047 0.125,-0.3292 0.4667,-0.4798 1.0194,-0.4583 0.112,0.0426 0.1925,0.0732 0.2486,0.0945 1.9711,-0.2531 3.4559,-1.3156 4.163,-3.303 1.198,-3.367 -0.3775,-6.0912 -4.6012,-7.665 -4.1694,-1.5535 -7.0611,-0.4589 -8.4273,2.9055 -0.551,1.3569 -0.425,2.9146 0.3108,4.6254 0.294,0.6836 0.439,1.1376 0.3332,1.3485 -0.1585,0.3159 -0.456,0.4518 -0.8229,0.4367 -1.856,-1.7065 -2.3963,-4.3511 -1.0182,-7.7106 2.0258,-4.9383 5.8507,-6.9466 10.4913,-5.1225 z m -1.4943,33.3661 -11.8567,-1.4128 c -0.4649,-0.0554 -0.8315,0.0992 -1.0286,0.496 -0.1907,0.3844 -0.3929,0.5756 -0.683,0.5411 -0.4649,-0.0554 -0.6611,-0.4032 -0.5849,-1.0429 l 0.4467,-3.749 c 0.09,-0.755 0.3609,-1.0542 0.8238,-0.9617 0.2864,0.0572 0.4657,0.2342 0.5479,0.5933 0.1113,0.4863 0.4076,0.7578 0.8725,0.8131 l 5.8428,0.6962 0.9245,-7.7582 -5.8429,-0.6962 c -0.4648,-0.0554 -0.8309,0.0995 -1.0285,0.496 -0.1897,0.3809 -0.3925,0.5719 -0.6826,0.5373 -0.4649,-0.0554 -0.6611,-0.4031 -0.5849,-1.0429 l 0.4467,-3.7489 c 0.09,-0.755 0.366,-1.0767 0.8238,-0.9618 0.2971,-0.0249 0.4614,0.1768 0.5474,0.5971 0.1001,0.4887 0.4081,0.754 0.873,0.8094 l 11.8567,1.4128 c 0.3497,0.0417 0.6174,-0.1689 0.8677,-0.602 0.1969,-0.3408 0.4976,-0.4725 0.8472,-0.4309 0.4191,-0.067 0.582,0.3071 0.4854,1.1178 l -0.4467,3.7489 c -0.0762,0.6397 -0.3189,0.9352 -0.7243,0.8869 -0.3495,-0.0416 -0.5855,-0.2772 -0.712,-0.7035 -0.1265,-0.4262 -0.3625,-0.6617 -0.7121,-0.7034 l -4.4444,-0.5296 -0.9245,7.7583 4.4445,0.5295 c 0.3496,0.0417 0.617,-0.173 0.868,-0.6057 0.1958,-0.3375 0.4972,-0.4688 0.8468,-0.4271 0.4196,-0.0708 0.5825,0.3032 0.4854,1.1177 l -0.4467,3.749 c -0.0762,0.6397 -0.3189,0.9351 -0.7243,0.8868 -0.3495,-0.0416 -0.5848,-0.2774 -0.7116,-0.7071 -0.1258,-0.4264 -0.3625,-0.6618 -0.7121,-0.7035 z m -3.6751,20.1672 c -5.334,0.7996 -8.7996,-1.9767 -9.569,-7.3126 -0.7688,-5.3323 1.7755,-8.9447 7.1139,-9.7144 5.2236,-0.7531 8.8571,1.9578 9.6573,7.2961 0.7913,5.2788 -1.9196,8.939 -7.2022,9.7309 z m -0.5137,-3.5626 c 4.4101,-0.6359 6.6811,-2.8732 6.2368,-5.955 -0.4518,-3.1335 -3.2576,-4.586 -7.6651,-3.9505 -4.5224,0.6521 -6.7734,2.8373 -6.3221,5.9673 0.4439,3.0782 3.2255,4.5906 7.7504,3.9382 z m -5.3469,13.1588 -0.9241,-2.6528 c -0.2686,-0.7711 -0.1661,-1.1872 0.2904,-1.3069 0.2826,-0.0741 0.5433,0.0913 0.8401,0.5443 0.3635,0.5547 0.7835,0.7463 1.2256,0.5923 L 88.347,294.454 c 0.3325,-0.1158 0.4579,-0.5054 0.4297,-1.169 -0.0237,-0.5562 0.1539,-0.8905 0.4863,-1.0063 0.3325,-0.1158 0.6653,0.0424 0.8401,0.5443 l 1.0965,3.148 c 1.1983,-0.2945 -1.2939,3.6752 -7.4756,11.9008 l 8.2909,-2.888 c 0.3324,-0.1158 0.4913,-0.4253 0.5147,-0.9249 0.0208,-0.4441 0.2117,-0.7243 0.5442,-0.8401 0.3474,-0.2439 0.6577,0.0208 0.9275,0.7954 l 0.7504,2.1541 c 0.2119,0.6083 0.1233,0.9803 -0.2622,1.1146 -0.3325,0.1158 -0.6492,-0.028 -0.978,-0.405 -0.2922,-0.3351 -0.6159,-0.4359 -0.9483,-0.3201 l -12.2701,4.2741 c -0.9441,0.3288 -1.3737,0.2706 -1.5594,-0.4801 -0.1259,-0.5091 -0.2435,-0.8778 -0.0986,-1.0802 l 9.1296,-12.7546 -0.0284,-0.0814 -10.1159,3.5238 c -0.4457,0.1552 -0.6891,0.4515 -0.6491,1.0629 0.0315,0.4823 -0.0738,0.7674 -0.3497,0.8635 -0.4421,0.154 -0.7709,-0.0726 -0.9828,-0.6809 z m 19.1053,19.3326 2.3075,3.5257 c 0.5128,0.7834 0.5748,1.3024 0.1831,1.5588 -0.0501,0.0328 -0.4755,0.2373 -1.2716,0.6219 -0.85,0.4106 -1.2552,0.6469 -1.2244,0.6939 -0.4889,0.32 -1.0543,0.7457 -1.668,1.3021 -0.2209,0.2004 -0.3425,0.3316 -0.3895,0.3624 -1.9646,-0.1153 -4.1277,-1.5316 -6.0263,-4.5565 -3.0205,-4.8126 -2.3926,-9.2018 2.0018,-12.0088 4.4544,-2.8454 9.049,-1.791 12.3197,2.9487 2.1339,3.0923 2.4141,5.6627 1.2598,6.4183 l -1.5419,1.0092 c -0.4387,0.2871 -0.7624,0.2154 -1.0469,-0.1564 -0.1808,-0.2362 -0.1019,-0.5077 0.2056,-0.9717 1.1713,-1.7673 1.2142,-3.6317 -0.0306,-5.3337 -2.079,-2.8425 -5.3994,-3.357 -9.1966,-0.9058 -3.6964,2.3861 -4.4989,5.5304 -2.7241,8.4975 1.1728,1.9608 2.8541,2.3309 4.7131,1.1141 l 1.1753,-0.7692 c 0.5913,-0.387 0.634,-1.0107 -0.029,-1.973 -0.7659,-1.1114 -0.8806,-1.7693 -0.2779,-2.025 0.3609,-0.3034 0.7788,-0.0889 1.2609,0.6475 z m 17.1768,18.6722 c -2.789,3.1634 -6.2547,3.6572 -9.799,2.055 0.2896,0.9827 0.7718,1.8396 1.4658,2.5516 0.1229,0.126 0.3489,0.3195 0.707,0.532 0.365,0.2166 0.6169,0.4021 0.7676,0.5933 0.3267,0.4145 0.4151,0.9274 -0.009,1.4262 -0.4936,0.581 -1.4299,0.3825 -2.4452,-0.5896 -1.5659,-1.4994 -2.1818,-3.4543 -2.019,-5.6976 -0.2551,-0.1545 -0.4984,-0.3221 -0.707,-0.532 -3.7978,-3.8211 -4.2491,-8.0686 -0.5849,-12.0263 3.5855,-3.8727 8.1153,-4.0525 12.0968,-0.4075 3.937,3.6044 4.0592,8.0881 0.5266,12.0949 z m -2.6412,-2.4454 c 2.9798,-3.3127 3.384,-6.4375 1.0993,-8.5529 -2.3232,-2.1508 -5.4177,-1.5139 -8.443,1.7537 -3.1042,3.3528 -3.3551,6.3418 -1.1579,8.6161 0.2203,-0.7506 0.63,-1.4083 1.1649,-2.0301 0.5364,-0.6235 0.9639,-0.7818 1.3486,-0.4256 0.3436,0.3181 0.282,0.7766 -0.1936,1.3724 -0.513,0.6428 -0.8202,1.2773 -0.9234,1.9015 2.1866,0.8249 4.6767,0.0646 7.1051,-2.6351 z m 12.9286,2.0738 -6.8139,9.8057 c -0.2671,0.3844 -0.3023,0.7803 -0.0449,1.141 0.2472,0.3463 0.3206,0.615 0.154,0.8549 -0.2672,0.3845 -0.691,0.3774 -1.2662,-0.0223 l -3.1004,-2.1545 c -0.6243,-0.4338 -0.7614,-0.8136 -0.4624,-1.1788 0.185,-0.2261 0.4276,-0.309 0.7811,-0.2052 0.533,0.1564 0.9311,0.045 1.1983,-0.3395 l 6.8138,-9.8057 c 0.2009,-0.2891 0.1598,-0.6369 -0.1242,-1.0486 -0.284,-0.4117 -0.3036,-0.7446 -0.0534,-0.9995 0.1837,-0.3695 0.5904,-0.3378 1.2148,0.0961 l 3.1004,2.1544 c 0.5752,0.3997 0.7467,0.7698 0.5138,1.1051 -0.2009,0.2891 -0.5197,0.3868 -0.9554,0.2984 -0.4357,-0.0884 -0.7545,0.009 -0.9554,0.2985 z m 0.3508,16.4201 -2.5704,-1.1334 c -0.7471,-0.3295 -0.9815,-0.6882 -0.7577,-1.1037 0.1384,-0.2572 0.4372,-0.335 0.9709,-0.2432 0.6536,0.1124 1.0802,-0.064 1.2692,-0.4924 l 4.8176,-10.9256 c 0.1421,-0.3222 -0.0573,-0.6796 -0.5619,-1.1115 -0.4229,-0.362 -0.5463,-0.7199 -0.4043,-1.042 0.1421,-0.3222 0.4847,-0.4576 0.971,-0.2432 l 3.0501,1.345 c 0.6019,-1.0773 1.8055,3.4528 3.6054,13.5836 l 3.5422,-8.0331 c 0.1421,-0.3222 0.024,-0.6494 -0.3254,-1.0073 -0.3106,-0.318 -0.3853,-0.6488 -0.2432,-0.9709 0.0585,-0.4204 0.4637,-0.4668 1.2143,-0.1359 l 2.0871,0.9203 c 0.5895,0.2599 0.8011,0.5784 0.6364,0.952 -0.1421,0.3221 -0.4633,0.4556 -0.9632,0.439 -0.4443,-0.0148 -0.7389,0.1531 -0.8809,0.4752 l -5.2423,11.8887 c -0.4034,0.9147 -0.7389,1.1893 -1.4146,0.813 -0.4582,-0.2551 -0.8081,-0.4205 -0.8573,-0.6645 l -3.1017,-15.3756 -0.0788,-0.0347 -4.322,9.8015 c -0.1905,0.4318 -0.1398,0.8119 0.3347,1.1996 0.3742,0.3058 0.5109,0.5774 0.393,0.8446 -0.1889,0.4284 -0.5788,0.5144 -1.1682,0.2545 z m 27.3837,-0.0819 4.1091,0.9332 c 0.9131,0.2074 1.3182,0.5376 1.2146,0.9941 -0.0133,0.0584 -0.1773,0.501 -0.4828,1.3307 -0.3261,0.8859 -0.4535,1.3373 -0.3987,1.3498 -0.1294,0.5698 -0.2404,1.2687 -0.2953,2.0953 -0.0198,0.2976 -0.0161,0.4765 -0.0285,0.5313 -1.4933,1.2817 -4.0332,1.7655 -7.5001,0.9084 -5.5159,-1.3636 -8.1132,-4.9571 -6.9021,-10.0289 1.2276,-5.1411 5.2652,-7.5743 10.9104,-6.4369 3.6831,0.7421 5.6702,2.3965 5.3647,3.7419 l -0.4081,1.797 c -0.1161,0.5113 -0.3987,0.6845 -0.8617,0.6147 -0.2941,-0.0443 -0.4259,-0.2944 -0.527,-0.8418 -0.3852,-2.0849 -1.6494,-3.4559 -3.7272,-3.8154 -3.4701,-0.6005 -6.216,1.3359 -7.2447,5.7369 -1.0014,4.2841 0.6055,7.1035 3.9433,8.0049 2.2057,0.5958 3.6722,-0.3059 4.1643,-2.4726 l 0.3111,-1.3697 c 0.1565,-0.6891 -0.2461,-1.1675 -1.3915,-1.3991 -1.3229,-0.2675 -1.8624,-0.6611 -1.6065,-1.2637 0.0489,-0.4689 0.4984,-0.605 1.3567,-0.4101 z m 22.9815,-6.2811 3.9177,-0.9768 c 0.527,-0.0697 0.8594,0.0559 0.9991,0.3839 0.0996,0.3998 -0.0913,0.7176 -0.5757,0.9581 -0.3099,0.1969 -0.4453,0.3812 -0.4028,0.552 0.4087,3.0944 0.8821,5.7209 1.4204,7.8796 0.8516,3.6479 2.7665,5.0426 5.7467,4.176 2.8383,-0.7077 3.8779,-2.7155 3.1115,-6.0217 -0.2955,-0.9531 -0.7071,-2.356 -1.2328,-4.2168 -0.5512,-1.7309 -0.9184,-2.8475 -1.1034,-3.3418 -0.1978,-0.3136 -0.5811,-0.5191 -1.1506,-0.6203 -0.5104,-0.1121 -0.771,-0.3211 -0.7872,-0.6182 -0.0988,-0.3961 0.0513,-0.6459 0.4474,-0.7446 l 3.3217,-0.8282 c 0.4688,-0.0551 0.7467,0.084 0.8319,0.4256 0.0571,0.229 -0.0648,0.4678 -0.3639,0.7238 -0.3971,0.3422 -0.5373,0.74 -0.424,1.1943 0.0281,0.1127 0.1196,0.4797 0.2754,1.1048 0.6503,1.6483 1.2804,3.5718 1.8904,5.7706 1.1472,4.6009 -0.6379,7.4895 -5.3479,8.6638 -4.4582,0.9919 -7.2616,-0.4515 -8.4092,-4.3267 -0.2836,-1.1375 -0.5715,-2.6638 -0.871,-4.5771 -0.2405,-1.6925 -0.4214,-2.9136 -0.5509,-3.6649 -0.0707,-0.2835 -0.3594,-0.4817 -0.8708,-0.5974 -0.4278,-0.013 -0.6485,-0.1703 -0.661,-0.4683 -0.0988,-0.3961 0.1639,-0.6739 0.789,-0.8297 z m 26.2925,9.4756 -2.546,1.1872 c -0.74,0.345 -1.186,0.2926 -1.3295,-0.157 -0.1235,-0.2648 0.0287,-0.5589 0.4566,-0.8907 0.5077,-0.4268 0.6635,-0.8549 0.4656,-1.2792 l -5.0463,-10.8219 c -0.1488,-0.3191 -0.5515,-0.4206 -1.2064,-0.3095 -0.553,0.0637 -0.9014,-0.0632 -1.0502,-0.3822 -0.1488,-0.3191 0.003,-0.6133 0.4566,-0.8907 l 3.0212,-1.4088 c -0.414,-1.1625 3.7871,0.9161 12.5948,6.2357 l -3.7103,-7.9569 c -0.1488,-0.3191 -0.4735,-0.457 -0.9722,-0.4186 -0.4444,0.013 -0.7419,-0.1376 -0.8907,-0.4567 -0.2778,-0.3209 -0.0458,-0.6564 0.6977,-1.0031 l 2.0673,-0.964 c 0.5838,-0.2723 0.9628,-0.2217 1.1353,0.1483 0.1488,0.3191 0.0458,0.6565 -0.3041,1.0139 -0.2956,0.3321 -0.3716,0.6567 -0.2227,0.9758 l 5.4911,11.7758 c 0.5281,0.8489 0.4229,1.3856 -0.3202,1.5999 -0.4753,0.2216 -0.8308,0.2923 -1.0647,0.2072 l -13.6112,-7.7951 -0.0781,0.0364 4.5271,9.7085 c 0.1436,0.4496 0.5173,0.6308 1.1231,0.5384 0.475,-0.0892 0.7709,-0.004 0.8944,0.2607 0.1978,0.4243 0.006,0.7743 -0.5782,1.0466 z m 10.0485,-21.648 7.0186,9.6602 c 0.2751,0.3788 0.6311,0.5183 1.0627,0.4177 0.4007,-0.143 0.6863,-0.1004 0.858,0.1359 0.2752,0.3788 0.1291,0.7767 -0.4376,1.1883 l -3.0544,2.2192 c -0.6151,0.4469 -1.0387,0.463 -1.2654,0.049 -0.1717,-0.2364 -0.1482,-0.5035 0.0632,-0.8052 0.326,-0.4498 0.3488,-0.8645 0.0736,-1.2433 l -7.0186,-9.6602 c -0.2069,-0.2848 -0.5489,-0.3604 -1.0311,-0.2277 -0.4823,0.1328 -0.8031,0.0418 -0.9615,-0.2783 -0.2885,-0.295 -0.1247,-0.6686 0.4904,-1.1155 l 3.0544,-2.2192 c 0.5667,-0.4117 0.9726,-0.452 1.2126,-0.1217 0.2069,0.2848 0.1944,0.618 -0.0325,1.0004 -0.2268,0.3824 -0.2393,0.7156 -0.0324,1.0004 z m 10.3116,-11.7606 2.0853,-2.0138 c 0.5024,-0.4019 0.8746,-0.4801 1.1192,-0.2269 0.2445,0.2533 0.3216,0.5434 0.2337,0.873 -0.1297,0.4533 -0.0347,0.9291 0.2849,1.4327 0.0429,0.1252 0.1395,0.3547 0.3006,0.6886 2.6062,4.7208 4.2941,8.7871 5.0637,12.1938 0.0676,0.8302 -0.172,1.5095 -0.719,2.0376 -0.6305,0.6089 -1.2147,0.845 -1.7501,0.7112 -3.6671,-0.8481 -7.9195,-2.766 -12.7494,-5.7455 -0.5741,-0.3411 -1.1303,-0.4965 -1.6712,-0.4636 -0.288,-0.0447 -0.5347,-0.1762 -0.7376,-0.3863 -0.2836,-0.2937 -0.2381,-0.624 0.1418,-0.9909 l 2.9691,-2.8672 c 0.4203,-0.4059 0.7951,-0.4815 1.1191,-0.2268 0.203,0.2101 0.2402,0.5022 0.112,0.8708 -0.1339,0.5354 -0.0408,0.9714 0.2844,1.3082 2.4104,1.8221 6.0858,3.563 11.0235,5.22 -1.4848,-5.0747 -3.2001,-8.7866 -5.143,-11.1383 -0.3252,-0.3367 -0.7221,-0.3649 -1.1799,-0.0841 -0.4175,0.2417 -0.7902,0.1954 -1.1154,-0.1413 -0.203,-0.2102 -0.0935,-0.5606 0.3283,-1.0512 z m 23.2903,-3.6055 -6.1936,8.8455 c -0.4362,0.6228 -0.8314,0.7759 -1.1805,0.4582 -0.2393,-0.1675 -0.3041,-0.4277 -0.2025,-0.7818 0.1275,-0.4824 -0.001,-0.8604 -0.3846,-1.129 l -9.7812,-6.8488 c -0.2884,-0.202 -0.6385,-0.1591 -1.0512,0.1235 -0.344,0.1843 -0.6598,0.1781 -0.9482,-0.0238 -0.3688,-0.1851 -0.3356,-0.5916 0.1005,-1.2145 l 5.8907,-8.4128 c 0.4273,-0.9171 1.3187,-0.8645 2.6772,0.1599 0.3952,0.3499 0.5047,0.6049 0.3224,0.7608 -0.101,0.1442 -0.2897,0.2635 -0.5671,0.3527 -0.2942,0.009 -0.6766,0.0978 -1.1522,0.2678 -0.344,0.1843 -0.6905,0.4767 -1.0425,0.8749 -0.2832,0.3001 -0.743,0.9109 -1.3789,1.8191 -1.3537,1.6264 -1.4269,2.6451 -0.2207,3.0644 l 3.0221,2.1161 2.2665,-3.2368 c 0.2685,-0.3836 0.4002,-0.8263 0.3972,-1.3314 -0.0601,-0.3256 -0.037,-0.5609 0.0639,-0.7051 0.2342,-0.3344 0.7604,-0.2175 1.5735,0.3519 1.0876,0.693 1.4288,1.1787 1.016,1.4613 -0.1009,0.1442 -0.2755,0.2368 -0.5207,0.2801 -0.5364,0.0542 -0.9737,0.3196 -1.3088,0.7982 l -2.2665,3.2369 3.3074,2.3159 c 1.6286,1.3506 2.6301,1.4483 3.0172,0.2882 1.9924,-2.7475 2.7954,-4.5081 2.4067,-5.2786 -0.2767,-0.6235 -0.3141,-1.0795 -0.1121,-1.3679 0.2489,-0.251 0.5818,-0.2693 0.9997,-0.0499 1.4712,0.9616 1.8884,1.8938 1.2503,2.805 z m 4.7859,-9.3602 -1.5356,3.449 c -0.3092,0.6946 -0.668,0.9203 -1.0713,0.6751 -0.2669,-0.1188 -0.3801,-0.3619 -0.3479,-0.7289 0.033,-0.4977 -0.1653,-0.8443 -0.593,-1.0348 l -10.9083,-4.8567 c -0.3217,-0.1432 -0.6571,-0.0342 -1.0084,0.3219 -0.3025,0.2466 -0.6136,0.3008 -0.9353,0.1576 -0.3973,-0.1113 -0.4423,-0.5168 -0.133,-1.2114 l 3.0347,-6.816 c 1.5478,-3.4764 3.5535,-4.6662 6.0102,-3.5724 1.5013,0.7997 2.1757,2.3791 2.0201,4.7452 l 0.0821,0.0366 c 1.8173,-0.343 4.1415,-0.5259 6.969,-0.5503 0.4236,0.0615 0.8728,-0.0911 1.353,-0.4513 0.3284,-0.3048 0.6277,-0.397 0.8946,-0.2782 0.3486,0.2208 0.453,0.4928 0.3098,0.8144 l -2.0703,4.6501 c -0.1432,0.3216 -0.403,0.3987 -0.776,0.2326 -0.2897,-0.0675 -0.4063,-0.3121 -0.3463,-0.7323 0.0371,-0.3689 -0.1069,-0.6256 -0.4285,-0.7689 -0.719,-0.2545 -2.8502,-0.1456 -6.3904,0.3283 l -0.7317,2.9418 4.4106,1.9637 c 0.4048,0.2418 0.7935,0.1607 1.1657,-0.2517 0.2756,-0.3242 0.5442,-0.4302 0.811,-0.3113 0.4278,0.1904 0.5001,0.608 0.2152,1.2479 z m -12.457,-5.2552 4.4893,1.9988 c 1.2708,-3.8581 0.9936,-6.1914 -0.8234,-7.0003 -1.6561,-0.7374 -3.0082,0.071 -4.0563,2.4251 -0.6185,1.3892 -0.4878,2.2469 0.3904,2.5764 z m 6.6235,-10.7578 c -3.0236,-0.7119 -4.3492,-2.9652 -3.9805,-6.7605 0.4864,-2.413 1.3265,-4.1361 2.5173,-5.1736 0.4161,0.0125 1.0809,0.1032 2.0031,0.2657 0.5201,0.0918 0.7432,0.3365 0.6716,0.7422 -0.0605,0.343 -0.3746,0.6148 -0.9454,0.8107 -1.4951,0.3906 -2.4138,1.5673 -2.7592,3.526 -0.1907,1.7501 0.484,2.8199 2.0205,3.2087 1.2547,0.2821 2.411,-0.8832 3.4675,-3.4885 1.3992,-3.5566 3.2515,-5.1316 5.5569,-4.7251 3.395,0.9562 4.7827,3.5475 4.155,7.7763 -0.8641,3.8867 -2.5141,5.8245 -4.9457,5.8103 -0.6345,-0.1119 -0.9305,-0.4607 -0.888,-1.0465 0.0813,-0.4611 0.5683,-0.8506 1.4537,-1.1699 1.7192,-0.6477 2.7414,-1.8937 3.0666,-3.738 0.3616,-2.3741 -0.426,-3.8175 -2.3541,-4.3362 -1.2098,-0.2134 -2.3464,1.0124 -3.4133,3.6768 -1.5135,3.5364 -3.3901,5.0767 -5.626,4.6216 z m 0.0869,-19.8041 11.9389,0.2084 c 0.4681,0.008 0.7937,-0.1922 0.9731,-0.5973 0.127,-0.4062 0.3328,-0.6086 0.6249,-0.6035 0.4681,0.008 0.6979,0.3643 0.6857,1.0646 l -0.0659,3.7749 c -0.0133,0.7602 -0.2554,1.1081 -0.7224,1.04 -0.2921,-0.005 -0.4913,-0.1846 -0.605,-0.535 -0.1631,-0.531 -0.4806,-0.7988 -0.9487,-0.807 l -11.9388,-0.2083 c -0.3521,-0.006 -0.6182,0.2214 -0.8024,0.6865 -0.1842,0.465 -0.45,0.6664 -0.8009,0.6003 -0.4093,0.0528 -0.6091,-0.3028 -0.5958,-1.063 l 0.0659,-3.7749 c 0.0122,-0.7003 0.2243,-1.0487 0.6325,-1.0416 0.352,0.006 0.6106,0.2167 0.7795,0.628 0.1688,0.4112 0.4274,0.6218 0.7794,0.6279 z m -0.4978,-12.1092 11.8245,-1.6618 c 0.4636,-0.0652 0.7497,-0.3437 0.8552,-0.8313 0.0535,-0.4803 0.2215,-0.7384 0.5108,-0.7791 0.4636,-0.0651 0.7421,0.221 0.8318,0.859 l 0.5739,4.0836 c 0.098,0.6973 -0.0908,1.0491 -0.5628,1.055 -0.2893,0.0406 -0.5183,-0.1352 -0.6938,-0.5228 -0.2441,-0.499 -0.5996,-0.7138 -1.0632,-0.6487 l -11.8244,1.6618 c -0.4637,0.0652 -0.6405,0.4758 -0.5346,1.2288 0.1548,1.1016 0.7269,2.0235 1.7173,2.7731 0.4731,0.4063 0.7219,0.7231 0.7547,0.9568 0.1162,0.3959 -0.093,0.6031 -0.62,0.6204 -0.2337,0.0329 -0.8248,0.0252 -1.7766,-0.0188 -0.1743,0.0245 -0.2935,0.0109 -0.3606,-0.0364 -0.4127,-0.002 -0.6573,-0.2631 -0.7308,-0.7861 l -1.6978,-12.0804 c -0.0573,-0.408 0.106,-0.7259 0.4858,-0.9571 0.0593,-0.008 0.1743,-0.0245 0.3486,-0.049 0.8356,-0.3519 1.4013,-0.5524 1.6906,-0.5931 0.5192,-0.073 0.7774,0.0685 0.7671,0.4255 0.1,0.281 -0.0509,0.688 -0.4493,1.2167 -0.746,0.9899 -1.0454,2.0079 -0.899,3.0501 0.1142,0.8123 0.3973,1.1583 0.8526,1.0338 z m 9.4848,-20.7997 1.2584,3.6548 c 0.2281,0.6623 0.1098,1.0436 -0.3524,1.1394 -0.2762,0.0951 -0.5235,-0.002 -0.7515,-0.2958 -0.3153,-0.3866 -0.6967,-0.5048 -1.1394,-0.3524 l -3.9841,1.3718 c -1.089,2.2329 -3.0354,4.852 -5.8378,7.861 -0.072,0.1476 -0.1049,0.4085 -0.1013,0.7757 -0.1085,0.4097 -0.3274,0.6713 -0.6603,0.7859 -0.386,0.1329 -0.6284,0.0618 -0.7235,-0.2144 l -1.6291,-4.7314 c -0.0775,-0.409 0.0381,-0.6944 0.3515,-0.8657 0.3896,-0.1342 0.7426,-0.006 1.0615,0.3792 0.1287,0.2013 0.2244,0.2951 0.2775,0.2768 1.1037,-0.7524 2.7116,-2.7321 4.8287,-5.9369 -3.989,-1.1617 -6.3261,-1.6563 -7.0114,-1.4837 -0.2763,0.0951 -0.4288,0.3655 -0.4623,0.8088 0.0391,0.4817 -0.1134,0.7521 -0.4658,0.8101 -0.3665,0.1895 -0.6466,0.009 -0.8381,-0.5473 l -1.0853,-3.1519 c -0.1341,-0.3895 -0.005,-0.6479 0.3808,-0.7808 0.2232,-0.0768 0.4619,-0.004 0.7235,0.2144 0.356,0.3092 0.7655,0.5089 1.2283,0.5991 1.8365,0.2946 4.4134,0.9562 7.7353,1.9752 0.3335,0.0714 0.6042,0.1327 0.8096,0.1887 l 4.317,-1.4865 c 0.4427,-0.1524 0.6802,-0.4521 0.7102,-0.8942 -0.0208,-0.4286 0.1046,-0.6857 0.3808,-0.7808 0.4427,-0.1524 0.7695,0.0718 0.9792,0.6809 z" style="fill:#009ee0;fill-rule:evenodd" id="path25"/>
    <path d="m 197.1988,243.3009 c 5.5737,1.4978 6.1732,9.3975 3.1038,13.3524 -1.7482,2.2526 -6.7339,2.3669 -9.141,0.7143 -0.319,-0.2105 -0.6116,-0.5073 -0.9095,-0.9022 -0.4042,-0.5357 -1.1076,-1.76 -0.1606,-2.0479 0.8347,-0.2538 2.4984,-0.406 3.1701,-0.1609 0.6604,0.241 0.773,0.9751 1.7413,1.1652 0.8548,0.1677 1.9581,-1.1981 2.0774,-2.2271 0.037,-0.3193 -0.0203,-0.4086 -0.2731,-0.4473 -0.5692,-0.0873 -1.1547,0.4876 -1.6234,0.587 -4.489,0.7585 -7.3484,-4.3355 -5.0175,-7.7239 1.6213,-2.3568 4.5195,-2.9849 7.0325,-2.3096 z m -2.7577,3.6806 c -0.58,1.2011 -0.2554,3.0445 1.5324,2.8993 0.5276,-0.0429 0.9062,-0.2936 1.0795,-0.6786 0.1192,-0.2092 0.1054,-0.4973 0.0553,-0.7809 -0.1069,-0.6048 -0.2128,-1.4267 -0.8304,-1.7009 -0.5896,-0.2619 -1.5451,-0.3431 -1.8368,0.2611 z" style="fill:#009ee0;fill-rule:evenodd" id="path27"/>
    <path d="m 160.0488,294.3867 c -0.4481,0.2832 -1.1074,1.0952 -1.0271,1.712 0.6537,0.2844 6.6991,0.2675 7.5324,0.0428 0.0143,-0.0286 0.0286,-0.0571 0.0428,-0.0856 -0.0342,-0.5534 -0.5572,-1.4546 -0.9843,-1.6264 -1.8544,-0.0142 -3.7094,-0.0285 -5.5638,-0.0428 z" style="fill:none" id="path29"/>
    <path d="m 154.3995,294.4295 c -0.0571,0.0856 -0.1142,0.1712 -0.1712,0.2568 0.0855,0.1909 0.1264,0.2414 0.2996,0.3424 0.1751,-0.1002 0.2115,-0.1531 0.2995,-0.3424 -0.1054,-0.1947 -0.1271,-0.2442 -0.4279,-0.2568 z" style="fill:none" id="path31"/>
    <path d="m 187.14,294.5151 c -0.009,0.1425 -0.0399,0.0985 0.0428,0.214 0.0285,-0.0428 0.0571,-0.0856 0.0856,-0.1284 -0.0428,-0.0285 -0.0856,-0.057 -0.1284,-0.0856 z" style="fill:none" id="path33"/>
    <path d="m 157.9517,298.0674 c -0.4703,0.2967 -0.8643,0.6958 -0.8988,1.4123 0.0571,0.0999 0.1142,0.1997 0.1712,0.2996 0.7331,0.2207 1.9303,0.1284 2.8675,0.1284 1.9257,0 3.852,0 5.7778,0 1.1329,0 2.5277,0.2746 2.6106,-0.8132 -0.1515,-0.311 -0.414,-0.8454 -0.7275,-0.9843 -3.2666,-0.0143 -6.5342,-0.0285 -9.8008,-0.0428 z" style="fill:none" id="path35"/>
    <path d="m 120.4189,264.8775 v 1.7699 h 85.5072 v -1.7699 z" style="fill:none" id="path37"/>
    <path d="m 122.227,268.5302 v 1.7065 h 81.3467 v -1.7065 z" style="fill:none" id="path39"/>
    <path d="m 124.7869,272.2277 v 1.8962 h 76.4165 v -1.8962 z" style="fill:none" id="path41"/>
    <path d="m 126.683,276.0201 v 1.8014 h 72.245 v -1.8014 z" style="fill:none" id="path43"/>
    <path d="m 128.7698,279.6714 v 1.8581 h 67.3217 v -1.8581 z" style="fill:none" id="path45"/>
    <path d="m 130.5263,283.3582 v 1.8581 h 63.6612 v -1.8581 z" style="fill:none" id="path47"/>
    <path d="m 132.2828,287.045 v 1.8581 h 60.0007 v -1.8581 z" style="fill:none" id="path49"/>
    <path d="m 134.0393,290.7319 v 1.8581 h 56.3403 v -1.8581 z" style="fill:none" id="path51"/>
    <path d="m 135.7958,294.4187 v 1.8581 h 52.6798 v -1.8581 z" style="fill:none" id="path53"/>
    <path d="m 137.5523,298.1056 v 1.8581 h 49.0193 v -1.8581 z" style="fill:none" id="path55"/>
    <path d="m 139.3088,301.7924 v 1.8581 h 45.3588 v -1.8581 z" style="fill:none" id="path57"/>
    <path d="m 141.0654,305.4792 v 1.8581 h 41.6982 v -1.8581 z" style="fill:none" id="path59"/>
    <path d="m 142.8219,309.1661 v 1.8581 h 38.0377 v -1.8581 z" style="fill:none" id="path61"/>
    <path d="m 147.8932,312.8529 v 1.8581 h 29.427 v -1.8581 z" style="fill:none" id="path63"/>
    <path d="m 149.6375,316.6487 v 1.8581 h 25.6198 v -1.8581 z" style="fill:none" id="path65"/>
    <path d="m 151.3819,320.3372 v 1.8245 h 21.8125 v -1.8245 z" style="fill:none" id="path67"/>
    <path d="m 153.1263,323.9323 v 1.8581 h 18.0052 v -1.8581 z" style="fill:none" id="path69"/>
    <path d="m 155.1788,327.7281 v 1.8581 h 14.1979 v -1.8581 z" style="fill:none" id="path71"/>
    <path d="m 156.9232,331.5239 v 1.7669 h 10.3906 v -1.7669 z" style="fill:none" id="path73"/>
    <path d="m 159.3946,335.097 v 2.7329 h 6.5834 v -2.7329 z" style="fill:none" id="path75"/>
    <path d="m 99.7272,235.8896 125.9784,0.0956 -62.9184,109.6226 z m 46.6374,73.1353 6.0087,-10.2511 -5.0313,-8.0197 -1.9453,0.0108 -4.7374,8.3109 z m 8.1961,-13.9828 8.2277,-13.5369 8.0478,13.6083 8.1359,-13.5673 8.1048,13.6082 31.4919,-54.828 -111.65,-0.0885 31.3212,54.6191 8.1528,-13.317 z m 18.4857,3.9459 5.8939,10.3322 5.8224,-10.1368 -4.9609,-8.4522 -1.67,0.005 z m 3.5771,14.3659 -5.9488,-10.443 -7.8313,12.9528 -8.0314,-13.1094 -6.0499,10.4514 13.9619,24.3474 z m -8.1064,-14.2307 -4.869,-8.3723 -1.7882,0.003 -4.9323,8.3455 5.8264,9.988 z" style="fill:#009ee0;fill-rule:evenodd" id="path77"/>
    <path d="m 164.486,378.144 c -58.979,0 -107.0825,-48.1034 -107.0825,-107.0824 0,-58.979 48.1035,-107.0824 107.0825,-107.0824 58.979,0 107.0824,48.1034 107.0824,107.0824 0,58.979 -48.1034,107.0824 -107.0824,107.0824 z m 0,-7.3141 c -54.9505,0 -99.7683,-44.8178 -99.7683,-99.7683 0,-54.9505 44.8178,-99.7683 99.7683,-99.7683 54.9505,0 99.7683,44.8178 99.7683,99.7683 0,54.9505 -44.8178,99.7683 -99.7683,99.7683 z" style="fill:#009ee0;fill-rule:evenodd" id="path79"/>
    <path d="m 117.1864,236.0517 10.1549,-9.4523 c 0,0 1.7244,-1.5967 3.0017,0.1277 0.7793,1.0521 1.5615,2.1961 2.4151,3.1983 0.4059,0.4767 1.2595,1.1481 2.5086,0.2173 1.738,-1.2952 4.3559,-2.8135 5.3778,-3.1967 1.0218,-0.3833 2.3442,-0.5382 1.7055,-2.0071 -0.6387,-1.469 -1.5328,-3.385 -1.5328,-3.385 0,0 -1.2135,-2.0437 1.3412,-2.7462 2.5547,-0.7026 10.1187,-3.1059 12.6716,-3.2333 2.553,-0.1275 3.0919,-0.239 3.3384,1.6798 0.1463,1.1393 0.3909,2.8763 0.5979,3.9517 0.1467,0.7622 0.6843,1.137 1.4523,1.0088 2.0201,-0.3371 4.7921,-0.0412 7.0094,0.0709 0.7162,0.0362 1.6855,-0.0673 1.8349,-1.6188 0.0946,-0.9814 0.1694,-1.9782 0.2322,-2.9441 0.1222,-1.8803 0.1362,-2.2728 2.5044,-2.1604 4.6573,0.2209 9.4089,1.9969 11.6779,2.9317 2.3278,0.9589 4.203,1.2142 2.76,4.3726 -0.4122,0.9022 -0.6575,1.818 -0.8642,2.2623 -0.7627,1.6382 -0.6984,1.82 0.9551,2.5706 1.6183,0.7346 3.7751,2.2423 3.9388,2.3512 0.1638,0.1088 1.4305,1.5603 2.5454,0.1937 0.4477,-0.5489 1.3864,-1.6736 2.4346,-2.9079 1.0387,-1.2232 1.4,-1.7487 3.0374,-0.5324 1.7376,1.2907 7.3396,5.3763 10.1317,9.9002 2.7921,4.5238 -13.3339,1.8622 -13.3339,1.8622 l -77.7524,-0.4043 z m 10.8478,-3.4323 h 0.5844 v 0.3878 h -0.005 v 0.202 h -0.4013 v -0.202 h -0.1777 z m -2.2967,2.877 h 0.4264 v 0.4055 h -0.4264 z m 13.9692,-4.5212 h 0.4175 v 0.3873 h -0.4175 z m 17.2589,-1.4559 h -0.625 v -0.2006 h 0.216 v -0.2084 h 0.409 v 0.2084 0.0231 z m -0.7948,0.0154 h 0.5864 v 0.1929 h -0.5864 z m 42.4987,1.6425 h -0.4004 v 0.1945 h 0.2288 v 0.2059 h 0.1831 v 0.2288 h 0.4233 v -0.3203 h -0.0229 v -0.1259 h -0.4119 z m -0.2173,-0.1716 h -0.3661 v 0.1601 h 0.3661 z m -1.0182,-0.4805 h 0.4233 v 0.2517 h 0.1945 v 0.1944 H 197.72 v -0.0572 h -0.286 z m 0.839,5.1763 h 0.2071 v 0.2011 h -0.2071 z m -2.6583,-1.2264 h 0.1998 v 0.1926 h 0.1926 v 0.4066 h -0.2069 v -0.2069 h -0.1855 z m -1.0343,-0.8417 h 0.6206 v 0.6206 h -0.6206 z m 6.3264,-0.6 h 0.4544 v 0.418 h -0.4544 z m -46.8166,1.219 h 0.4408 v 0.597 h -0.4408 z m 6.5937,-9.0316 h 0.2147 v 0.4123 h -0.2147 z m 3e-4,1.2346 h 0.3949 v 0.3857 h -0.3949 z m -1.6625,1.0289 h 0.4259 v 0.5857 h -0.4259 z m -4.5108,-8.6487 h 0.2054 v 0.3879 h -0.2054 z m -8.0249,1.0345 h 0.4107 v -0.2054 h 0.2206 v -0.1902 h 0.175 v 0.1902 h 0.2129 v 0.3956 h -0.2053 v 0.2053 h -0.8139 z m 6.1485,-1.0102 h -0.3669 v 0.2014 h 0.3669 z m -0.5743,-0.416 h 0.3865 v 0.4037 h -0.3865 z m -2.0673,0.6096 h 0.4163 v 1.4306 h -0.4163 z m 22.8046,13.3597 h 0.1739 v -0.2065 h 0.6576 v 0.3804 h -0.2065 v 0.2283 h -0.625 z m -2.2556,0.8316 h 0.6142 v 0.1576 h 0.2011 v 0.2282 h -0.2011 v 0.2174 h -0.4348 v -0.2228 h -0.1794 z m 1.235,1.012 h 0.4121 v 0.01 h 0.5985 v 0.4029 h -0.4029 v 0.1998 h -0.1956 v 0.8274 h -0.4121 z m 4.1039,1.2423 h 0.6096 v -0.2044 h 0.4089 v 0.2044 h 0.004 v 0.1968 h -0.004 v 0.2083 h -0.4089 v -0.0126 h -0.4055 v -0.1957 h -0.2041 z m 2.4583,-0.8291 h 0.2078 v 0.1966 h -0.2078 z m 5.9609,-0.186 h -0.1922 v 0.3987 H 184.3 Z m -0.6101,-0.221 h 0.4083 v 0.3987 h -0.4083 z m -0.6198,-0.4132 h 0.4132 v 0.2066 h 0.2018 v 0.2066 h -0.2787 v -0.01 h -0.3363 z m -3.9084,1.2323 h 0.6296 v 0.4129 h -0.6296 z m -52.5928,-2.9134 c -0.3692,0.077 -0.373,0.2644 0,0.3423 0.373,0.0779 0.327,-0.0197 0.4302,-0.0428 0.1032,-0.0231 0.119,-0.0489 0.1435,-0.0856 0.0245,-0.0366 0.1115,-0.0867 0,-0.1283 -0.1116,-0.0417 -0.2045,-0.1627 -0.5737,-0.0856 z m 39.5572,3.4991 c -0.0142,0.0286 -0.0285,0.0571 -0.0428,0.0856 0.0571,0.0143 0.1142,0.0286 0.1712,0.0428 0,-0.0142 0,-0.0285 0,-0.0428 -0.0428,-0.0285 -0.0856,-0.057 -0.1284,-0.0856 z m -13.6525,-0.2996 c -0.0714,0.0428 -0.1427,0.0856 -0.214,0.1284 -0.0143,0.0428 -0.0286,0.0856 -0.0428,0.1284 0.0427,0.0856 0.0856,0.1712 0.1284,0.2568 0.5319,0.085 1.6069,0.1591 1.8831,-0.1712 -0.0571,-0.0856 -0.1142,-0.1712 -0.1712,-0.2568 -0.6718,0.0137 -0.9793,-0.0529 -1.5835,-0.0856 z m 9.7579,-0.1283 c -0.2768,0.1288 -0.7143,0.115 -0.9415,0.2567 0,0.0571 0,0.1142 0,0.1712 0.0427,0.0571 0.0856,0.1142 0.1283,0.1712 0.4578,0.1194 0.87,0.0765 1.1984,-0.1284 0.0285,-0.0856 0.0571,-0.1712 0.0856,-0.2568 -0.0285,-0.0713 -0.0571,-0.1426 -0.0856,-0.2139 -0.1284,0 -0.2568,0 -0.3852,0 z m -14.2518,0 c -0.0428,0.057 -0.0856,0.1141 -0.1283,0.1711 0.057,0.1284 0.1141,0.2568 0.1711,0.3852 0.1712,0.0428 0.3425,0.0856 0.5136,0.1284 0.1641,-0.1195 0.2085,-0.087 0.2568,-0.3424 -0.0428,-0.057 -0.0856,-0.1141 -0.1284,-0.1712 -0.2282,-0.057 -0.4565,-0.1141 -0.6848,-0.1711 z m 33.7414,-0.1266 c -0.0341,0.1193 -0.0682,0.2387 -0.1023,0.358 0.1363,0.1534 0.2727,0.3069 0.4091,0.4603 0.0853,0 0.1705,0 0.2557,0 0.0341,-0.0682 0.0682,-0.1364 0.1023,-0.2046 -0.1704,-0.2045 -0.341,-0.4091 -0.5114,-0.6137 -0.0511,0 -0.1023,0 -0.1534,0 z m 10.7259,-0.002 c -0.0984,0.1192 -0.1755,0.1865 -0.1284,0.3423 0.057,0.1142 0.1141,0.2283 0.1712,0.3424 0.1611,0.051 0.3297,0.1224 0.5136,0.0428 0.0427,-0.0285 0.0856,-0.057 0.1283,-0.0856 0,-0.0428 0,-0.0856 0,-0.1284 -0.1963,-0.2488 -0.2842,-0.4573 -0.6847,-0.5135 z m -47.4203,-0.214 c -0.4664,0.2337 -0.7747,0.4652 -1.1128,0.8131 0,0.0143 0,0.0286 0,0.0428 0.0428,0.0286 0.0856,0.0571 0.1284,0.0856 0.4756,0.2934 1.2479,-0.0647 1.4124,-0.3852 0.0721,-0.0899 0.0662,-0.0845 0.0856,-0.2568 -0.0629,-0.0875 -0.0764,-0.1105 -0.1712,-0.1712 -0.1142,-0.0427 -0.2283,-0.0856 -0.3424,-0.1283 z m -7.5753,-0.214 c -0.2763,0.2682 -0.8372,0.6686 -0.9415,1.0699 0.0427,0.0286 0.0856,0.0571 0.1283,0.0856 0.1945,0.1299 0.6852,0.1004 0.9416,0.0428 0.0856,-0.0998 0.1712,-0.1997 0.2568,-0.2996 0.1032,-0.3307 0.001,-0.6462 -0.1284,-0.8559 -0.0856,-0.0143 -0.1712,-0.0286 -0.2568,-0.0428 z m 25.6789,-0.0428 c -0.0286,0.0142 -0.0571,0.0285 -0.0856,0.0428 0,0.0285 0,0.057 0,0.0856 0.057,-0.0143 0.1141,-0.0286 0.1712,-0.0428 -0.0143,-0.0286 -0.0286,-0.0571 -0.0428,-0.0856 -0.0143,0 -0.0286,0 -0.0428,0 z m -36.2982,-0.3592 c -0.0249,0.2428 -0.0499,0.4856 -0.0749,0.7284 0.0749,0 0.1498,0 0.2247,0 0.0499,-0.0486 0.0999,-0.0972 0.1498,-0.1457 0,-0.1942 0,-0.3885 0,-0.5827 -0.0998,0 -0.1997,0 -0.2996,0 z m 6.9977,0.1495 c -0.3342,0.1404 -0.7046,0.0909 -0.8131,0.4708 0.0285,0.0285 0.057,0.0571 0.0856,0.0856 0.8587,0.0678 1.0317,0.521 1.6691,0.6848 0.0142,-0.0143 0.0285,-0.0286 0.0428,-0.0428 -0.0285,-0.2568 -0.0571,-0.5136 -0.0856,-0.7704 -0.2773,-0.2128 -0.4287,-0.3819 -0.8988,-0.428 z m 34.479,-0.2611 c -0.2544,0.6127 0.5129,0.5368 0.856,0.8132 0.3379,0.2722 0.152,1.2355 0.7704,0.6419 0.007,-0.9971 -0.8401,-1.2997 -1.6264,-1.4551 z m -8.9448,0 c -0.0271,0.5155 0.0476,0.7043 0.3852,0.8559 0.0713,-0.0427 0.1427,-0.0856 0.214,-0.1283 0,-0.0571 0,-0.1142 0,-0.1712 -0.1335,-0.275 -0.2936,-0.453 -0.5992,-0.5564 z m -17.6756,-0.2568 c -0.2381,0.4371 -0.3022,1.6502 -0.0856,1.9687 0.0286,0 0.0571,0 0.0856,0 0.87,0.1799 0.458,-0.3659 0.5136,-0.8987 0.0323,-0.3098 0.132,-0.4953 0.0428,-0.8132 -0.0999,-0.0856 -0.1997,-0.1712 -0.2996,-0.2568 -0.0856,0 -0.1712,0 -0.2568,0 z m -18.5347,-0.0352 c -0.3779,0.1548 -1.4965,1.558 -1.4755,1.8906 0.0209,0.3325 0.0449,0.0382 0.0922,0.0461 0.0472,0.008 0.0467,0.1296 0.1844,0 0.1378,-0.1297 0.3512,-0.5218 0.5994,-0.7378 0.2483,-0.2161 0.6273,-0.0423 0.784,-0.3228 0.1566,-0.2805 0.1934,-1.031 -0.1845,-0.8761 z m 66.5377,0.4016 c -0.4202,0.3995 -0.551,0.1129 -0.7008,0.5104 -0.1498,0.3974 0.1167,0.746 0.3058,0.9351 0.189,0.1891 0.5088,0.3849 0.5736,-0.0311 0.0314,-0.2014 -0.0937,-0.6482 0.0175,-0.9227 0.1184,-0.2922 0.4834,-0.3171 0.548,-0.4811 0.3765,-0.9559 -0.647,-0.1029 -0.7441,-0.0106 z m -3.8582,-0.6034 c -0.2116,-8e-4 -0.1053,0.0667 -0.1284,0.1284 -0.0231,0.0618 -0.2291,0.0162 0,0.214 0.1665,0.1438 0.513,0.5204 0.761,0.7886 0.0361,0.039 0.0662,0.0733 0.0915,0.1032 -0.003,0.1923 0.0156,0.4382 0.0136,0.5578 -9e-4,0.054 -0.2044,-0.0152 -0.2244,0.039 -0.004,0.0522 0.003,0.0845 -0.003,0.1699 -0.003,0.0439 -0.0433,0.0185 -0.1504,0.0183 -0.0718,-2e-4 -0.0511,0.1925 -0.006,0.2197 0.0456,0.0271 0.1933,0.003 0.3129,0.002 0.0143,0 0.0286,0 0.0428,0 0.0571,0 0.1715,-0.003 0.2285,-0.003 -0.007,-0.1878 0.003,-0.5715 -2e-4,-0.8816 0.0284,-0.0262 0.0694,-0.0626 0.1346,-0.1064 0.3304,-0.2222 0.9917,-0.6704 0.9386,-0.8219 -0.0672,-0.192 -0.0923,-0.0995 -0.1284,-0.1284 -0.0361,-0.0288 -0.0637,-0.0355 -0.0856,-0.0428 -0.0219,-0.007 0.1284,-0.0142 -0.0428,0 -0.1712,0.0143 -0.6616,0.1017 -0.9843,0.0856 -0.3227,-0.016 -0.5588,-0.3415 -0.7704,-0.3424 z m -26.6831,-0.1482 c -0.0973,0.2422 -0.0809,0.4279 0.2139,0.5136 0.0206,-0.2181 0.008,-0.2683 -0.0428,-0.4708 -0.057,-0.0142 -0.1141,-0.0285 -0.1711,-0.0428 z m -27.9886,0.1988 c -0.3658,0.1056 -1.597,0.1483 -1.7547,0.4047 -0.1577,0.2563 -0.0982,0.1542 0.1284,0.1868 0.2265,0.0326 1.7204,-0.1786 1.9687,-0.2491 0.2484,-0.0705 0.0935,-0.0978 0.0856,-0.1556 -0.008,-0.0579 -0.0495,-0.1213 -0.1284,-0.1557 -0.0789,-0.0345 0.0663,-0.1367 -0.2996,-0.0311 z m 50.6803,-0.0498 c -0.4609,0.1498 -1.2215,0.125 -1.669,0.2938 0.0374,0.0855 0.0747,0.1712 0.1121,0.2567 0.355,0.0571 0.7101,0.1142 1.0651,0.1712 0.3733,-0.1346 0.5985,-0.2956 0.8969,-0.4707 0,-0.0856 0,-0.1712 0,-0.2568 -4e-4,0 -8e-4,0 -0.001,0 v -0.2134 h -0.4039 z m -24.8317,-0.363 c -0.0998,0.0571 -0.1997,0.1142 -0.2995,0.1712 -0.1283,0.4113 -0.4243,1.9313 -0.214,2.2255 0.0428,0.0571 0.0856,0.1142 0.1284,0.1712 0.1283,-0.0142 0.2568,-0.0285 0.3851,-0.0428 0.0714,-0.057 0.1427,-0.1141 0.214,-0.1712 -0.0713,-0.4422 -0.1426,-0.8845 -0.214,-1.3267 0.0726,-0.3458 0.3251,-0.5205 0.2568,-0.9416 -0.0855,-0.0285 -0.1712,-0.057 -0.2568,-0.0856 z m 7.6609,-0.1284 c -0.1133,0.1439 -0.7553,0.9171 -0.642,1.1556 0.3733,0.7858 1.7838,-0.5845 1.8831,-0.7704 0,-0.0142 0,-0.0285 0,-0.0428 -0.2681,-0.2704 -0.6882,-0.3534 -1.2411,-0.3424 z m -28.5891,0 c -0.2521,0.2326 -0.4694,0.493 -0.3852,0.9416 0.057,0.0285 0.1141,0.0571 0.1712,0.0856 0.3728,-0.0558 0.615,-0.2072 0.8559,-0.3852 -0.0142,-0.1141 -0.0285,-0.2283 -0.0428,-0.3424 -0.0855,-0.0998 -0.1712,-0.1997 -0.2567,-0.2996 -0.1142,0 -0.2283,0 -0.3424,0 z m 7.7464,-0.3851 c -0.0713,0.057 -0.1426,0.1141 -0.214,0.1711 0.0143,0.0999 0.0286,0.1998 0.0428,0.2996 0.0143,0 0.0286,0 0.0428,0 0.0571,-0.0142 0.1142,-0.0285 0.1712,-0.0428 0.1732,-0.0848 0.1858,-0.1087 0.214,-0.3424 -0.0856,-0.0285 -0.1712,-0.057 -0.2568,-0.0855 z m 23.8386,-0.2568 c -0.1712,0.1284 -0.3424,0.2568 -0.5136,0.3852 0,0.057 0,0.1141 0,0.1711 0.2425,0.1427 0.4851,0.2854 0.7275,0.428 0.1931,-0.1921 0.2536,-0.4112 0.1712,-0.7703 -0.0713,-0.0571 -0.1426,-0.1142 -0.2139,-0.1712 -0.0571,-0.0143 -0.1142,-0.0286 -0.1712,-0.0428 z m 20.1579,-0.2996 c -0.0286,0.0142 -0.0571,0.0285 -0.0856,0.0428 0.0216,0.2828 0.1011,0.4497 0.2996,0.5564 0.0428,0.0142 0.0856,0.0285 0.1284,0.0427 0.0428,-0.057 0.0856,-0.1141 0.1284,-0.1711 0,-0.0143 0,-0.0286 0,-0.0428 -0.1512,-0.2134 -0.2161,-0.3114 -0.4708,-0.428 z m -49.3034,-0.0428 c -0.0276,0.1133 0.4272,1.726 0.5563,1.9259 0.0571,0 0.1142,0 0.1712,0 0.0571,-0.0428 0.1142,-0.0856 0.1712,-0.1284 0.1561,-0.6821 -0.1815,-1.7089 -0.8987,-1.7975 z m 16.2307,-0.0975 c -0.0779,0.5274 0.7071,0.9942 1.1556,0.7275 -0.007,-0.2953 -0.0583,-0.3111 -0.1712,-0.4708 -0.333,-0.1068 -0.5297,-0.2434 -0.9844,-0.2567 z m -25.1136,-0.282 c -0.1294,0.023 -0.3014,0.0864 -0.3611,0.1712 -0.0596,0.0848 0.0295,0.1913 0.0602,0.2568 0.0307,0.0656 0.0158,0.1119 0.1203,0.1284 0.1045,0.0165 0.2965,-0.006 0.4212,-0.0428 0.1247,-0.0369 0.2757,-0.0728 0.3009,-0.1712 0.0251,-0.0984 -0.0779,-0.2347 -0.1806,-0.2996 -0.1026,-0.0649 -0.2316,-0.0658 -0.3609,-0.0428 z m 27.4144,-0.3909 c -0.0285,0.0856 -0.057,0.1712 -0.0856,0.2568 0.0143,0.0285 0.0286,0.0571 0.0428,0.0856 0.1427,0.0428 0.2854,0.0856 0.428,0.1284 0.0286,-0.0428 0.0571,-0.0856 0.0856,-0.1284 -0.0856,-0.1141 -0.1712,-0.2283 -0.2568,-0.3424 -0.0713,0 -0.1426,0 -0.214,0 z m 18.1036,-0.1284 c -0.2946,0.3129 0.1602,0.9583 -0.0428,1.7975 -0.203,0.8393 -1.5694,1.8124 -1.4551,2.3539 0.1143,0.5416 -0.0147,0.1462 0.1712,0 0.1859,-0.1461 0.8573,-0.4643 1.1127,-0.7275 0.2554,-0.2633 0.6013,-2.9152 0.5136,-3.2527 -0.0877,-0.3375 -0.1176,-0.1406 -0.1712,-0.1712 -0.0536,-0.0306 0.1662,-0.3128 -0.1284,0 z m 4.665,0.0942 c -0.2328,0.156 0.2119,0.8881 -0.3852,1.1983 -0.597,0.3103 -1.4678,-0.3041 -1.7547,-0.5564 -0.2869,-0.2522 -0.1492,0.0213 -0.214,0.0429 -0.0647,0.0215 -0.1455,-1e-4 -0.1712,0.0855 -0.0256,0.0857 -0.0535,0.0913 0.0428,0.3424 0.0964,0.2512 2.151,1.1408 2.4395,1.0272 0.2886,-0.1137 0.0773,0.1915 0.1712,-0.0856 0.094,-0.2772 0.3032,-1.5468 0.214,-1.8403 -0.0892,-0.2936 -0.1096,-0.3701 -0.3424,-0.214 z m 5.7778,-0.3938 c -0.0947,0.1599 -0.0849,0.2187 0,0.3852 0.0285,0.0143 0.057,0.0286 0.0856,0.0428 0.0428,-0.0142 0.0856,-0.0285 0.1284,-0.0428 0.0142,-0.0285 0.0285,-0.057 0.0428,-0.0856 -0.0143,-0.0713 -0.0286,-0.1426 -0.0428,-0.214 -0.0714,-0.0285 -0.1427,-0.057 -0.214,-0.0856 z m -33.0401,-0.1284 c -0.7783,0.4189 -1.9087,0.5482 -2.2684,1.1128 -0.3596,0.5646 0.3798,0.752 0.0428,1.1983 -0.3369,0.4464 -1.3705,0.3631 -1.7426,0.3039 -0.3721,-0.0591 -0.0856,0.077 -0.0856,0.1284 0,0.0514 -0.1748,0.0242 0.0856,0.1284 0.2604,0.1043 0.9314,0.4284 1.4003,0.6377 1.0447,-0.4889 0.6488,-2.3254 1.2411,-2.6963 0.5923,-0.3709 0.9165,0.3273 1.3268,0.214 0.2677,-0.1184 0.3741,-0.3549 0.3851,-0.7276 -0.0599,-0.1113 -0.069,-0.1427 -0.1712,-0.214 -0.0713,-0.0285 -0.1426,-0.057 -0.2139,-0.0856 z m 1.9948,-0.2037 c -0.1498,0.1747 -0.2995,0.3495 -0.4492,0.5241 0.0161,0.3379 0.0529,0.4036 0.1497,0.599 0.3388,-0.0643 0.2228,0.009 0.3744,-0.2246 0.0748,-0.2995 0.1497,-0.599 0.2245,-0.8985 -0.0998,0 -0.1996,0 -0.2994,0 z m 28.349,0.1181 c -0.0713,0.0714 -0.1427,0.1427 -0.214,0.214 0.0448,0.2601 0.0981,0.2528 0.2996,0.3424 0.2324,-0.0232 0.2942,-0.0512 0.3852,-0.214 0.0589,-0.1533 0.0177,-0.2202 -0.0428,-0.3424 -0.1427,0 -0.2854,0 -0.428,0 z m -37.8763,-0.1284 c -0.1582,0.1145 -0.2532,0.1524 -0.3424,0.3424 -0.0934,0.3002 -0.0161,0.4717 0.3424,0.4708 0.1141,-0.0998 0.2282,-0.1997 0.3424,-0.2996 3e-4,-0.2708 -0.0367,-0.3245 -0.1284,-0.4708 -0.0714,-0.0142 -0.1427,-0.0285 -0.214,-0.0428 z m -17.5473,-0.1283 c -0.1101,0.077 -0.1113,0.2644 0,0.3423 0.1114,0.0779 0.0976,-0.0197 0.1284,-0.0428 0.0308,-0.0231 0.0355,-0.0489 0.0428,-0.0856 0.007,-0.0366 0.0333,-0.0867 0,-0.1283 -0.0332,-0.0417 -0.061,-0.1627 -0.1712,-0.0856 z m 19.8584,-0.5136 c -0.1356,0.2287 0.1349,1.2225 -0.0428,1.7119 -0.1777,0.4893 -0.84,0.538 -0.9416,0.9844 -0.1016,0.4463 0.6699,2.063 0.8988,2.1941 0.2289,0.1312 0.1947,0.3721 0.2568,-0.0856 0.062,-0.4576 -0.491,-1.1951 0.4015,-1.3916 0.8924,-0.1965 -0.0458,-0.1779 -0.3274,-0.8283 -0.0727,-0.1681 -0.0253,-0.5003 0.0115,-0.659 0.0979,-0.4232 0.257,-0.5463 0.5991,-0.642 0.3422,-0.0957 0.9301,0.1362 1.1556,0.1284 0.2255,-0.008 0.261,0.1173 0.0856,-0.1712 -0.1755,-0.2885 -1.0259,-0.2634 -1.4552,-0.4708 -0.4292,-0.2073 -0.3111,-0.6301 -0.4279,-0.7703 -0.1169,-0.1402 -0.0784,-0.2287 -0.214,0 z m -5.3926,-0.214 c -0.2784,0.4909 -0.0213,1.2677 -0.1712,1.9687 -0.0931,0.4356 -0.4365,0.5492 -0.3424,1.1127 0.0286,0.0143 0.0571,0.0286 0.0856,0.0429 0.2931,-0.1525 0.1939,-0.3936 0.3424,-0.6848 0.3911,-0.7666 0.9746,-1.3633 0.3424,-2.4395 -0.0856,0 -0.1712,0 -0.2568,0 z m 27.7332,-0.0428 c -0.2568,0.1284 -0.5136,0.2568 -0.7704,0.3852 0.1781,0.2232 0.443,0.1362 0.6848,0.2996 0.1426,0.1997 0.2853,0.3994 0.428,0.5991 0.0713,-0.0142 0.1426,-0.0285 0.214,-0.0428 -0.001,-0.4685 -0.1041,-0.9633 -0.2996,-1.2411 -0.0143,0 -0.0286,0 -0.0428,0 -0.0714,0 -0.1427,0 -0.214,0 z m -8.9448,-0.2996 c -0.3131,0.1251 -0.615,0.5041 -0.642,0.856 -0.027,0.3518 0.0371,0.3715 -0.0428,0.5991 -0.0799,0.2277 -0.6258,0.2228 -0.5992,0.5992 0.0267,0.3764 0.4814,0.9567 0.5992,1.1556 0.1178,0.1989 -0.0361,-0.0852 0.0856,0 0.1217,0.0852 0.5099,0.0807 0.7704,0.2568 0.2604,0.176 0.5319,0.529 0.7275,0.6419 0.1957,0.1129 0.2953,0.045 0.3852,0 0.09,-0.0449 0.3273,0.0102 0.0428,-0.214 -0.2845,-0.2242 -2.0576,-1.5452 -1.6691,-2.4823 0.3885,-0.9371 1.4498,-0.2273 1.7975,-0.1712 0.3477,0.0562 0.1054,-0.0516 0.1284,-0.1284 0.023,-0.0768 0.0677,-0.1535 0,-0.2995 -0.0676,-0.146 -1.2705,-0.9382 -1.5835,-0.8132 z m 16.0921,-0.1284 c -0.0428,0.0571 -0.0856,0.1141 -0.1284,0.1712 0.0127,0.2392 0.0436,0.2498 0.1284,0.3852 0.057,0 0.1141,0 0.1712,0 0.2012,-0.1951 0.237,-0.2984 0.0855,-0.5564 -0.0855,0 -0.1712,0 -0.2567,0 z m 4.9217,-0.0428 c -0.1358,0.1459 -0.1921,0.1909 -0.2139,0.4708 0.0713,0.0998 0.1426,0.1997 0.2139,0.2996 0.0571,0 0.1142,0 0.1712,0 0.0286,-0.0428 0.0571,-0.0856 0.0856,-0.1284 0.0881,-0.1476 0.082,-0.2827 0.0428,-0.4708 -0.057,-0.0571 -0.1141,-0.1141 -0.1712,-0.1712 -0.0428,0 -0.0856,0 -0.1284,0 z m -32.5265,-0.5992 c -0.0428,0.0428 -0.0856,0.0856 -0.1284,0.1284 0,0.0571 0,0.1142 0,0.1712 0.4447,0.2559 0.6527,0.5059 0.9844,0.856 0.0998,-0.0143 0.1997,-0.0285 0.2995,-0.0428 0.0856,-0.0713 0.1712,-0.1427 0.2568,-0.214 -0.0333,-0.5642 -0.8558,-0.8831 -1.4123,-0.8988 z m 30.2154,-0.214 c -0.0998,0.0999 -0.1997,0.1998 -0.2995,0.2996 0.0142,0.1142 0.0285,0.2283 0.0428,0.3424 0.0998,0.0285 0.1997,0.0571 0.2995,0.0856 0.1516,-0.1364 0.325,-0.2822 0.2568,-0.5136 -0.0285,-0.0713 -0.057,-0.1426 -0.0856,-0.214 -0.0713,0 -0.1426,0 -0.214,0 z m -11.6838,-0.4279 c -0.3252,0.1848 -0.7136,0.2597 -0.642,0.7275 0.3138,0 0.6277,0 0.9415,0 0.0143,-0.0428 0.0286,-0.0856 0.0428,-0.1284 0.0977,-0.2335 -0.0285,-0.402 -0.1284,-0.5563 -0.0713,-0.0143 -0.1426,-0.0286 -0.2139,-0.0428 z m -22.0839,0 c -0.2579,0.2213 -1.2617,0.642 -1.5407,0.8131 -0.279,0.1712 -0.0167,0.095 0,0.1284 0.0167,0.0334 -0.1807,0.0644 0.0856,0.0428 0.2663,-0.0216 1.1258,-0.0132 1.4979,-0.1712 0.3722,-0.158 0.4077,-0.6097 0.2568,-0.8131 -0.1508,-0.2035 -0.0416,-0.2214 -0.2996,0 z m 29.5307,-0.2568 c -0.5868,0.5138 -1.2036,1.1396 -1.2839,2.1399 0.0713,0.0856 0.1426,0.1712 0.214,0.2568 0.057,0 0.1141,0 0.1712,0 0.1614,-0.2507 1.1164,-2.3718 1.1127,-2.3967 -0.0713,0 -0.1426,0 -0.214,0 z m -12.8822,-0.5564 c -0.2133,0.1644 -0.4132,0.2297 -0.5564,0.4708 0.257,0.3431 0.6676,0.1684 0.8988,-0.0856 -0.0285,-0.1284 -0.0571,-0.2568 -0.0856,-0.3852 -0.0143,0 -0.0285,0 -0.0428,0 -0.0713,0 -0.1427,0 -0.214,0 z m 2.8675,-0.2996 c -0.0856,0.0571 -0.1712,0.1142 -0.2568,0.1712 -0.2053,0.7322 -0.2057,1.3911 -0.9416,1.5835 -0.348,0.0911 -0.4596,-0.0607 -0.6419,0.1712 -0.0143,0.0571 -0.0286,0.1142 -0.0428,0.1712 0.2349,0.2425 0.4856,0.4003 0.9415,0.428 0.5223,-0.2975 0.3379,-0.6827 0.642,-1.1984 0.2567,-0.328 0.5136,-0.6562 0.7703,-0.9843 -0.0319,-0.1907 -0.0534,-0.1799 -0.1283,-0.2996 -0.0286,-0.0143 -0.0571,-0.0285 -0.0856,-0.0428 -0.0856,0 -0.1712,0 -0.2568,0 z m 11.2987,-0.0428 c -0.0856,0.1141 -0.1712,0.2283 -0.2568,0.3424 0.0285,0.0428 0.057,0.0856 0.0856,0.1284 0.057,0 0.1141,0 0.1712,0 0.0856,-0.0856 0.1712,-0.1712 0.2568,-0.2568 -0.0143,-0.0713 -0.0286,-0.1427 -0.0428,-0.214 -0.0714,0 -0.1427,0 -0.214,0 z m -21.8698,-0.428 c -0.0425,0.3961 0.4566,0.6147 0.3423,1.1556 -0.0754,0.3571 -0.3956,0.4573 -0.4707,0.8559 0.0428,0.0143 0.0856,0.0286 0.1284,0.0428 0.5157,-0.2014 0.8162,-0.6224 0.8559,-1.2839 -0.1575,-0.33 -0.4365,-0.7055 -0.8559,-0.7704 z m 13.6953,-1.1127 c -0.0832,0.1781 -0.0873,0.2495 0,0.428 0.5084,0.1088 0.779,0.2295 1.1128,0.4708 0.1141,-0.0429 0.2283,-0.0857 0.3424,-0.1285 0,-0.0142 0,-0.0285 0,-0.0428 -0.007,-0.2953 -0.0583,-0.3111 -0.1712,-0.4707 -0.428,-0.0856 -0.856,-0.1712 -1.284,-0.2568 z m -5.1357,-0.1712 c -0.1226,0.1496 -0.2009,0.193 -0.2568,0.428 0.0285,0.0142 0.0571,0.0285 0.0856,0.0428 0.2641,-0.0737 0.3912,-0.1606 0.428,-0.4708 -0.0856,0 -0.1712,0 -0.2568,0 z m 1.9687,-0.0856 c -0.0428,0.057 -0.0856,0.1141 -0.1284,0.1712 0.0285,0.0428 0.057,0.0856 0.0856,0.1284 0.0428,0.0143 0.0856,0.0285 0.1284,0.0428 0.057,-0.0428 0.1141,-0.0856 0.1712,-0.1284 -0.0143,-0.0428 -0.0286,-0.0856 -0.0428,-0.1284 -0.0714,-0.0285 -0.1427,-0.0571 -0.214,-0.0856 z m 12.6254,-0.0428 c -0.057,0.0856 -0.1141,0.1712 -0.1712,0.2568 0.1092,0.7526 1.9372,0.7681 2.5251,0.3852 0.0143,-0.0286 0.0285,-0.0571 0.0428,-0.0856 -0.0428,-0.0999 -0.0856,-0.1998 -0.1284,-0.2996 -0.5015,0.0175 -0.9555,0.275 -1.5407,0.1284 -0.2425,-0.1284 -0.4851,-0.2568 -0.7276,-0.3852 z m -19.7727,0 c -0.1613,0.085 -0.3539,0.2381 -0.2996,0.5136 0.0543,0.2755 0.1518,0.3867 0.3852,0.4707 0.2334,0.0841 0.3623,0.0325 0.4708,-0.1283 0.1085,-0.1609 0.1024,-0.4357 0.0428,-0.5992 -0.0596,-0.1635 -0.1038,-0.2096 -0.214,-0.2568 -0.1102,-0.0472 -0.2239,-0.085 -0.3852,0 z m 15.4929,-0.7276 c -0.4509,0.1786 -1.1508,0.5771 -1.4551,1.07 -0.3044,0.4929 -0.0526,1.3937 -0.2568,1.9687 -0.2043,0.575 -0.9384,0.5206 -1.1556,0.8132 -0.2171,0.2925 1e-4,0.394 0.0428,0.5135 0.0427,0.1196 -0.0824,0.0587 0.0856,0.0428 0.1681,-0.0158 1.3897,-0.5567 1.5408,-0.8559 0.151,-0.2993 -0.1647,-0.5845 -0.0428,-1.1556 0.1219,-0.571 0.8518,-1.5111 1.4123,-1.4551 0.5605,0.056 0.4098,0.6345 0.856,0.7703 0.4461,0.1359 0.9957,-1.3994 0.8559,-1.6691 -0.1397,-0.2696 0.1447,-0.0332 -0.0428,0 -0.1874,0.0333 -0.7236,0.4125 -1.1127,0.2996 -0.3891,-0.1129 -0.2767,-0.5209 -0.7276,-0.3424 z m -18.3604,-0.9843 c -0.0655,0.0409 -0.004,-0.1667 -0.1284,0.214 -0.1248,0.3807 0.3429,1.2246 0.5992,1.3695 0.2563,0.1449 0.3447,-0.0553 0.428,-0.0856 0.0833,-0.0303 0.0657,0.2164 0.0428,-0.0856 -0.0229,-0.3019 -0.5164,-1.2505 -0.7276,-1.4123 -0.2112,-0.1619 -0.1485,-0.041 -0.214,0 z m -4.1086,-1.1984 c -0.0285,0.0856 -0.057,0.1712 -0.0856,0.2568 0.1228,0.1298 0.1362,0.1938 0.3424,0.2568 0,-0.0571 0,-0.1141 0,-0.1712 -0.0718,-0.1824 -0.0855,-0.2535 -0.2568,-0.3424 z m -2.6107,-0.8559 c -0.1977,0.2269 -0.7116,1.0069 -1.0271,1.3267 -0.3156,0.3198 -0.7431,0.1631 -0.9416,0.428 -0.1985,0.2649 -0.2137,0.813 0.0428,1.1127 0.2565,0.2998 0.4149,-0.1389 1.2412,0.428 0.8263,0.5669 -0.3216,2.198 -0.5992,2.6107 -0.2777,0.4127 -0.3426,0.2373 0.1284,0.2568 0.4709,0.0194 1.0376,-0.6428 1.6691,-0.7704 0.6315,-0.1275 0.902,0.3417 1.3695,0.3852 0.4676,0.0435 0.9561,-0.0656 1.4552,0 0.499,0.0656 0.8949,1.1593 0.5564,1.498 -0.3386,0.3386 -0.371,0.2282 -0.5564,0.3423 0.0285,0.0571 0.057,0.1142 0.0856,0.1712 0.5321,0.0152 1.671,0.1194 1.9259,-0.1712 -0.0428,-0.0285 -0.007,-0.0213 -0.1284,-0.0856 -0.1214,-0.0642 -0.4422,-0.0659 -0.5992,-0.2996 -0.157,-0.2336 -0.0283,-0.8352 -0.1284,-1.2839 -0.1,-0.4487 -0.5762,-0.8768 -0.4279,-1.3695 0.1482,-0.4928 0.2788,-0.3992 0.4279,-0.9416 0.1491,-0.5424 -0.5386,-1.5444 -1.0699,-1.3267 -0.5313,0.2176 -1.2442,1.2398 -0.7704,1.5407 0.4738,0.3009 0.721,-0.0753 0.8988,0.1284 0.1777,0.2037 0.2121,0.3482 0.1712,0.642 -0.041,0.2937 0.0124,0.5786 -0.5136,0.6847 -0.526,0.1062 -2.2344,-0.1539 -2.5679,-0.642 -0.3335,-0.488 -0.4186,-1.4816 -0.7704,-1.7119 -0.3517,-0.2302 -0.6956,0.0794 -0.8987,-0.214 -0.2032,-0.2934 -0.1859,-0.7946 0.1284,-0.9843 0.3142,-0.1898 0.4568,0.2107 0.8559,0.0428 0.3991,-0.1679 0.4811,-1.5696 0.1712,-1.7975 -0.3098,-0.228 0.0693,-0.227 -0.1284,0 z m 4.3226,-0.2996 c -0.0571,0.3186 0.5186,1.0182 0.7276,1.1555 0.209,0.1373 0.1508,0.008 0.2996,-0.0428 0.1488,-0.0503 0.3836,-0.3007 0.428,-0.428 0.0443,-0.1273 0.0312,-0.0982 0,-0.1711 -0.0312,-0.073 0.0683,0.0107 -0.0856,-0.0856 -0.1539,-0.0964 -0.7272,-0.0264 -0.9416,-0.1284 -0.2144,-0.1021 -0.3708,-0.6182 -0.428,-0.2996 z m 28.2896,2.8247 c 0.886,0.2303 0.998,-2.3833 0.4708,-2.9103 -0.5273,-0.527 -1.133,-0.01 -1.1556,0.3852 -0.0226,0.3947 0.5924,0.2536 0.856,0.7275 0.2636,0.474 -1.0573,1.5672 -0.1712,1.7976 z m -35.3941,-3.2099 c -0.1116,0.1644 -0.4876,1.0673 -0.3851,1.2839 0.1024,0.2167 0.1712,0.2452 0.2568,0.2996 0.0855,0.0545 0.1484,0.0409 0.2139,0 0.0655,-0.0409 0.0516,0.0129 0.1284,-0.214 0.0769,-0.2269 0.0292,-1.1368 -0.0428,-1.3267 -0.0719,-0.1899 -0.0595,-0.2073 -0.1712,-0.0428 z m 32.8291,0.008 c -0.4054,0.2382 0.4534,1.2726 -1.0798,1.6081 -0.456,0.0998 -0.2637,0.527 0.0511,0.5697 0.3149,0.0428 0.6269,0.0986 0.9163,0.4989 0.2894,0.4002 0.4993,0.3721 0.433,-0.0944 -0.0663,-0.4664 -0.5069,-1.6899 0.2418,-2.0257 0.234,-0.1049 0.2935,-0.1162 0.3698,-0.2077 0.5914,-0.71 -0.6983,-0.4863 -0.9322,-0.3489 z m -3.1796,-1.1484 c -0.5032,0.0681 -0.3527,0.0699 -0.2567,0.3852 0.0959,0.3152 0.8187,0.7182 0.5563,1.2839 -0.2623,0.5657 -0.635,0.0312 -1.4551,0.4708 -0.8201,0.4396 -1.4713,0.8592 -1.4551,0.856 0.0161,-0.003 -0.444,-0.0249 0.0428,0.1284 0.4868,0.1533 1.1259,-0.418 1.6691,-0.642 0.5432,-0.224 1.1119,0.2336 1.4551,0.1284 0.3432,-0.1052 1.1772,-1.5877 0.9844,-1.8831 -0.1928,-0.2955 -1.0375,-0.7957 -1.5408,-0.7276 z m -1.8271,-0.8109 c -0.0253,0.0119 0.005,0.108 -0.0157,0.1262 -0.0211,0.0182 -0.036,0.0359 -0.0366,0.0457 -0.002,0.0343 -0.1378,0.01 -0.1713,0.0253 -0.0766,0.0356 0.0657,0.1551 -0.011,0.1907 -0.0172,0.0492 -0.2259,-0.0136 -0.2221,0.0216 0.0147,0.1326 -0.0139,0.2451 0.0162,0.3902 0.2976,0.0407 0.7718,0.0399 1.2151,-0.007 0.0191,-0.1562 0.0498,-0.2556 0.003,-0.3714 -0.0174,-0.0425 -0.1305,0.0165 -0.1797,-0.0314 -0.0276,-0.0268 0.0127,-0.1626 -0.0151,-0.1858 -0.0434,-0.0362 -0.1046,-0.01 -0.1743,-0.0123 -0.0946,-0.003 0.0447,-0.1507 -0.0216,-0.1817 -0.104,-0.0485 -0.2415,0.0138 -0.3865,-0.01 z" style="fill:#009ee0;fill-rule:evenodd" id="path81"/>
    <path d="m 118.3107,260.776 90.5029,0.0402 -2.8875,5.0165 v -0.9552 h -85.279 z m 87.1465,5.8714 -1.8835,3.2722 v -1.3894 h -80.8459 l -1.0725,-1.8828 z m -2.066,3.5893 -2.1878,3.8008 v -1.8098 h -76.3693 l -1.1341,-1.991 z m -2.2375,3.8872 -12.6781,22.0259 v -1.7311 h -24.2677 c -1.3864,-0.0106 -2.7729,-0.0213 -4.1591,-0.032 -0.0158,0.01 -0.0319,0.0207 -0.0482,0.032 h -22.5254 l -1.0417,-1.8287 h 53.9461 v -1.8581 H 135.375 l -1.0417,-1.8288 h 57.9502 v -1.8581 h -59.0087 l -1.0417,-1.8287 h 61.9544 v -1.8581 h -63.0129 l -1.0417,-1.8287 h 65.9586 v -1.8581 h -67.0171 l -1.0538,-1.8499 h 70.9074 v -1.8014 h -71.9335 l -1.0802,-1.8962 z m -12.7513,22.1529 -1.8308,3.1808 v -1.352 h -19.8712 c -2.9161,-0.0128 -5.8328,-0.0255 -8.7487,-0.0382 -0.0199,0.0125 -0.0396,0.0252 -0.0592,0.0382 h -18.3171 l -1.0417,-1.8288 h 22.2741 c 1.252,0.0469 2.8958,0.0444 4.1208,0 z m -2.1221,3.6869 -1.6127,2.8017 v -0.973 h -42.992 l -1.0417,-1.8287 z m -2.1222,3.6868 -1.3945,2.4227 v -0.594 h -38.9878 l -1.0417,-1.8287 z m -2.1221,3.6868 -1.1764,2.0437 v -0.2149 H 145.876 l -1.0417,-1.8288 z m -2.1222,3.6869 -10.5371,18.3062 v -1.6023 h -12.9268 l -1.1038,-1.9377 h 15.7854 v -1.8581 h -16.8439 l -1.0086,-1.7706 h 19.9154 v -1.8245 h -20.9547 l -1.0427,-1.8304 h 24.0603 v -1.8581 h -25.1188 l -1.1038,-1.9377 h 28.2855 v -1.8581 h -29.3439 l -1.0418,-1.8287 z m -10.6843,18.562 -1.9157,3.3281 v -1.3904 h -8.7016 l -1.1038,-1.9377 z m -2.1324,3.7046 -1.1191,1.9443 v -0.1381 h -5.3304 l -1.0289,-1.8062 z m -2.6127,4.5391 -1.1459,1.9908 -1.1341,-1.9908 z" style="fill:#009ee0;fill-rule:evenodd" id="path83"/>
  </g>
</svg>