<svg width="730" height="219" xmlns="http://www.w3.org/2000/svg">

 <g>
  <title>background</title>
  <rect fill="none" id="canvas_background" height="402" width="582" y="-1" x="-1"/>
 </g>
 <g>
  <title>Layer 1</title>
  <path fill="#ffffff" fill-rule="evenodd" id="path2" d="m674.092,108.096l-1.589,-0.477c0,0 -8.264,-6.833 3.655,-4.767c0,0 10.647,3.973 11.918,6.833c0,0 2.861,4.609 6.516,4.291c0,0 10.329,-2.225 14.461,7.628c0,0 -3.655,0.317 -4.291,2.065c0,0 -8.899,-2.224 -10.329,0.636c0,0 -11.76,0.318 -12.078,3.496c0,0 -1.748,-1.589 -0.476,10.489c0,0 2.542,21.93 0.953,24.313c0,0 -6.198,6.198 -23.042,-8.104c0,0 -1.431,-6.198 -2.861,-6.992l12.236,1.271c0,0 3.973,0 3.973,-2.861l0.477,-10.011c0,0 -2.066,-10.171 -8.105,-4.768c0,0 -10.647,2.066 -16.368,7.787l-11.283,-8.74c0,0 5.88,-8.581 22.248,-8.264c0,0 17.004,-2.224 18.434,-8.581c0,0 3.02,-3.337 -4.449,-5.244l0,0zm-418.784,-2.71l-2.196,-0.771c0,0 -4.614,-0.879 0.439,-5.053c0,0 22.629,-15.599 40.205,-18.675c0,0 2.856,-3.295 9.886,-3.075c0,0 5.713,-1.758 8.349,-3.735c0,0 5.492,-3.515 6.152,-9.667c0,0 -1.978,-3.735 -0.22,-5.053l4.614,0.22c0,0 2.197,-3.515 4.833,-0.879c0,0 3.954,-1.538 1.977,1.758c0,0 0.659,1.537 -1.098,5.272c0,0 -1.538,1.538 4.613,1.318c0,0 9.887,3.076 1.758,8.788c0,0 -4.614,0.879 -5.273,2.637l-4.833,0.659l-2.197,8.568c0,0 1.701,4.231 7.559,-0.994l2.849,-0.475c0,0 4.275,-5.857 8.391,1.742c0,0 2.375,0 0,3.483c0,0 -0.475,5.066 -8.074,11.399l-4.591,2.216l-5.066,1.108c0,0 -3.325,-1.108 -3.642,1.267c0,0 -3.958,15.04 -4.433,17.098c0,0 0.475,2.692 4.75,5.067c0,0 1.425,4.432 -2.217,6.649l-6.016,7.124c0,0 -1.741,3.8 1.425,2.85c0,0 1.742,-2.533 3.958,-1.108c0,0 2.533,-4.433 5.541,-2.533l2.85,-0.95c0,0 2.691,-0.159 1.9,2.849c0,0 1.9,5.225 -2.058,10.449c0,0 -1.9,-2.216 -3.483,-1.424c-1.584,0.791 -13.299,5.699 -13.299,5.699c0,0 -10.766,-1.742 -8.549,-9.182l2.375,-5.7c0,0 2.849,-5.383 6.649,-9.816l-4.908,-7.124c0,0 1.742,-6.808 3.8,-8.707l4.116,-13.457c0,0 1.108,-5.067 -2.85,-3.325l-11.399,13.774c0,0 -7.599,2.058 -5.857,-1.425c0,0 2.691,-3.483 2.849,-6.333l14.882,-17.415c0,0 0.317,-4.433 -1.741,-4.591c0,0 -17.099,5.858 -19.632,8.866c0,0 -12.507,14.248 -16.465,16.148c0,0 -2.85,3.166 -10.449,-2.85l-6.174,-2.691zm46.307,-35.539l-3.723,3.399l-2.859,-2.655l0.204,-3.267c0,0 5.693,-8.434 6.901,-12.057l7.488,-10.87c0,0 5.314,-8.696 7.488,-9.662l2.899,-5.797l3.623,-4.348c0,0 -0.103,-6.895 -1.241,-8.411c0,0 4.675,-6.822 7.075,-7.327c0,0 3.411,-0.127 3.285,1.011c0,0 3.032,0.884 2.527,2.526c0,0 4.295,4.801 4.169,6.696l1.642,0.379c0,0 1.011,0.253 0.253,2.148c0,0 -0.126,3.79 0.632,3.79c-0.4,0.644 -5.599,9.539 -4.755,9.204c0,0 -7.709,8.566 -11.992,11.38c0,0 -17.987,18.722 -23.616,23.861l0,0zm111.579,-11.778l-0.794,-1.074c0,0 -1.296,-4.176 7.057,-5.328c0,0 12.962,-0.288 18.722,0l3.313,-1.009c0,0 1.296,-2.736 0.576,-4.32c0,0 -11.09,-6.769 -9.505,-12.817c0,0 -2.161,-1.297 -0.288,-2.593c0,0 3.6,-1.152 15.985,4.897c0,0 10.081,2.448 13.25,4.464c0,0 1.872,2.881 3.6,2.737c0,0 1.728,-2.305 3.024,-2.737c0,0 6.193,-0.144 7.057,3.601c0,0 -2.736,9.217 -1.296,10.513c0,0 0.72,1.584 -7.057,-0.72c0,0 -6.624,6.913 -9.649,7.633c0,0 -10.513,11.377 -10.513,15.265c0,0 2.016,5.329 6.625,-2.016c0,0 2.592,-6.625 9.217,-8.065c0,0 3.6,1.872 0,6.337c0,0 7.777,-3.168 12.241,-0.864c0,0 1.872,0 1.872,1.584c0,1.584 0,-0.72 0,-0.72l-1.44,6.913c0,0 -5.04,1.296 -5.328,2.448c-0.288,1.152 -6.913,4.032 -7.921,5.761c0,0 -3.025,0.72 -0.864,4.608l6.192,-2.592c0,0 3.889,-1.296 7.921,1.44c0,0 2.736,7.201 -3.456,8.209c0,0 -6.769,1.584 -8.209,0.576c0,0 -3.456,2.16 -2.016,9.217c0,0 -9.649,0.72 -10.513,3.888c0,0 4.896,3.025 12.961,3.457c0,0 2.88,-1.728 4.176,0.288l-4.608,15.265c0,0 8.209,5.185 8.353,7.345c0,0 0.288,5.473 -12.674,3.745l-1.728,-2.737c0,0 -3.888,3.025 -5.184,3.025c0,0 -8.785,0.864 -9.937,-3.745c0,0 8.785,-2.304 10.657,-3.888c0,0 3.024,-0.864 1.584,-5.041c0,0 -0.288,-4.32 1.728,-5.04c0,0 3.168,-2.305 0.864,-4.609c0,0 -12.097,0.432 -13.825,9.073c0,0 -12.53,13.538 -13.538,15.842c0,0 -8.929,1.872 -5.76,-4.897l21.89,-24.194c0,0 3.888,-5.329 -0.576,-8.497c0,0 -1.008,-3.025 1.152,-4.177c0,0 7.201,-0.72 9.649,0.432c0,0 2.736,-2.592 2.736,-4.464c0,0 -2.304,-3.168 -3.744,-1.008c0,0 -11.665,3.744 -11.809,-3.601c0,0 -2.593,-5.184 -2.305,-7.344c0,0 -2.016,-6.049 -7.632,2.736c0,0 -12.674,16.197 -16.893,24.46c0,0 -24.788,33.226 -27.952,35.863l-2.637,7.735l-4.043,0.879c0,0 -3.868,-4.044 0.527,-17.756l51.158,-60.299l18.634,-21.623c0,0 -1.934,-5.626 -4.219,-3.516c0,0 -19.514,7.559 -29.183,7.384l-5.625,-6.329zm12.381,59.1l-0.753,-0.502c0,0 3.829,-8.349 11.424,-10.922c0,0 0.753,-0.377 0.753,0.753l-0.313,1.632l2.071,2.511c0,0 -0.377,6.026 -1.569,7.219c0,0 -2.197,1.381 -4.583,0.313l-7.03,-1.004zm24.729,-22.499l-0.531,0.266c0,0 -3.013,0.088 -1.507,-2.038c0,0 2.481,-2.215 4.076,-0.974c0,0 1.683,2.392 0.177,2.48l-2.215,0.266zm2.392,-6.822l-0.531,-0.886c0,0 1.506,-6.556 6.821,-6.644c0,0 4.43,-0.532 -0.177,5.581c0,0 -2.48,0.089 -2.569,1.861c0,0 -1.861,0.797 -3.544,0.088l0,0zm102.086,-26.263l0.666,-2.102l-3.013,-10.546c0,0 5.273,-1.632 8.914,-2.511c0,0 2.134,1.507 3.264,1.507c0,0 4.896,7.783 3.892,10.42c0,0 -5.901,4.394 -5.775,6.653c0,0 -6.528,31.135 -5.399,31.135c0,0 4.549,-0.281 12.472,-2.956c0,0 3.601,-0.206 3.19,-2.881l-2.264,-5.659c0,0 6.791,-7.718 15.64,1.131l1.647,4.528l-1.544,4.013c0,0 -7.641,2.181 -8.274,5.873c0,0 -4.324,2.426 -8.122,1.793c0,0 -13.817,4.114 -14.028,5.485l-0.317,4.325c0,0 16.772,19.724 21.202,24.682c0,0 2.637,4.536 9.493,4.114c0,0 6.223,1.265 7.278,3.375c0,0 -8.649,4.43 -11.919,4.852c0,0 -9.282,2.215 -15.084,-6.645c0,0 -6.856,-17.932 -8.966,-19.936c0,0 -2.109,-3.902 -3.48,-3.691c0,0 -2.004,0.316 -2.848,2.953l-5.38,10.337c0,0 -13.079,8.544 -26.159,7.278c0,0 -5.274,-1.899 -4.535,-6.012c0,0 1.898,-1.477 8.016,-1.583c0,0 21.202,-6.117 20.041,-16.665c0,0 -2.32,-3.376 -8.122,1.687l-4.746,2.426c0,0 -6.434,-4.43 -3.481,-9.071l19.83,-8.438l7.911,-39.871zm117.363,5.801l-0.351,-0.937l-3.744,-2.312l-2.476,-3.491l-3.688,-5.205l5.393,-2.503l5.559,-1.289l4.229,0.853c0,0 12.541,-13.595 15.822,-16.056l3.868,-8.321c0,0 7.501,-6.798 12.892,3.398c0,0 2.109,6.798 -1.055,9.142c0,0 -14.533,3.164 -17.463,13.36c0,0 2.462,7.384 -0.703,8.556c0,0 -5.508,-0.938 -5.157,5.391c0,0 0.704,3.633 4.22,0l11.016,-7.969c0,0 3.633,2.226 4.571,-2.579c0,0 -0.82,-1.055 -3.516,0c0,0 -4.336,0.117 -4.805,-3.164c0,0 4.336,-7.149 22.385,-6.563c0,0 7.149,4.219 2.578,9.727c0,0 -10.313,6.446 -19.572,12.892c0,0 -4.571,7.735 0.117,8.673c0,0 12.423,-3.165 16.76,-1.172c0,0 6.446,3.399 2.578,7.852c0,0 -21.213,19.338 -41.137,13.244c0,0 -4.453,-1.172 0.938,-2.344c0,0 22.854,-6.681 24.729,-10.197c0,0 2.695,-3.516 -6.798,-1.758c0,0 -20.275,4.688 -24.963,7.501c0,0 -5.743,1.055 -7.852,0.117c0,0 -6.446,-5.86 1.406,-6.094c0,0 9.845,-1.289 13.947,-7.501c0,0 -1.172,-6.446 -6.798,-2.695l-6.563,2.812c0,0 -2.344,-3.867 3.868,-8.907c0,0 1.054,-2.461 -0.235,-2.461zm18.293,8.336l-1.209,0c0,0 -5.438,-2.216 0.403,-4.331c0,0 4.431,-1.309 4.633,0.605l-1.007,3.122c0,0 -1.612,0.604 -2.82,0.604l0,0zm-37.396,-2.241l-0.352,-1.524c0,0 3.75,-4.805 3.75,-10.9c0,0 -0.117,-2.812 5.86,3.048l2.696,5.391c0,0 0.352,2.109 -1.875,5.039c0,0 -2.344,6.329 -4.571,8.907l-3.047,-0.703c0,0 -0.235,-7.383 -2.461,-9.258l0,0zm-1.29,15.587l-1.289,-0.469c0,0 -10.079,2.579 -4.805,12.54c0,0 3.047,-0.117 3.633,1.055c0,0 8.439,-3.867 2.461,-13.126l0,0z"/>
  <path fill="#ffffff" fill-rule="evenodd" id="path4" d="m277.704,197.919c-1.376,3.393 -3.517,5.138 -6.423,5.234c-4.851,-0.471 -7.478,-3.912 -7.881,-10.33c0.326,-6.038 2.829,-9.244 7.514,-9.624c3.072,0.097 5.135,1.98 6.185,5.663l1.21,0l-0.243,-6.369l-0.848,0c-0.16,0.187 -0.362,0.283 -0.605,0.283c-0.16,0 -0.486,-0.096 -0.967,-0.283c-1.779,-0.755 -3.439,-1.129 -4.97,-1.129c-7.276,0.658 -11.232,4.618 -11.879,11.882c0.564,7.076 4.323,10.897 11.269,11.465c0.889,0 1.98,-0.097 3.273,-0.284c0.973,-0.097 1.661,-0.139 2.064,-0.139c0.724,0 1.329,0.042 1.815,0.139c0.889,-1.98 1.495,-4.154 1.82,-6.508l-1.334,0zm19.757,5.095l0,1.413l9.94,0l0,-1.413l-0.486,0c-1.696,0.091 -2.503,-0.803 -2.42,-2.692l0,-14.43c-0.083,-1.793 0.682,-2.644 2.301,-2.548l0.605,0l0,-1.419l-9.94,0l0,1.419l0.243,0c1.779,-0.096 2.627,0.803 2.545,2.687l0,5.663l-10.302,0l0,-5.802c-0.083,-1.793 0.729,-2.644 2.426,-2.548l0.486,0l0,-1.419l-9.94,0l0,1.419l0.481,0c1.536,0 2.307,0.845 2.307,2.548l0,14.43c0,1.793 -0.771,2.692 -2.307,2.692l-0.481,0l0,1.413l9.94,0l0,-1.413l-0.486,0c-1.619,0 -2.426,-0.899 -2.426,-2.692l0,-6.509l10.302,0l0,6.37c0,1.883 -0.766,2.831 -2.302,2.831l-0.486,0zm14.183,-9.485c0.563,7.076 4.323,10.801 11.268,11.182c7.354,-0.284 11.274,-4.293 11.76,-12.027c-0.403,-7.172 -4.121,-10.994 -11.15,-11.465c-7.436,0.471 -11.397,4.576 -11.878,12.31zm4.602,-1.696c0.243,-5.754 2.426,-8.773 6.547,-9.057c4.525,0.381 6.951,4.154 7.272,11.321c-0.244,6.037 -2.385,9.153 -6.424,9.34c-4.685,-0.471 -7.152,-4.341 -7.395,-11.604zm27.277,-5.38l14.785,17.974l1.696,0l0,-19.248c-0.077,-1.316 0.771,-1.931 2.55,-1.835l0.362,0l0,-1.419l-8,0l0,1.419l0.362,0c1.292,0 2.104,0.187 2.425,0.567c0.326,0.375 0.486,1.226 0.486,2.542l0,10.898l-12.727,-15.426l-6.304,0l0,1.419c0.972,0 1.779,0.235 2.425,0.706l0,16.7c0.078,1.509 -0.687,2.264 -2.301,2.264l-0.243,0l0,1.413l7.514,0l0,-1.413c-2.182,0.187 -3.191,-0.803 -3.03,-2.976l0,-13.585zm45.573,7.076l-10.302,0l0,1.419c1.614,0.091 2.664,0.284 3.15,0.562c0.486,0.283 0.729,0.851 0.729,1.702l0,5.09c-0.89,0.568 -2.022,0.851 -3.398,0.851c-4.685,-0.471 -7.188,-3.912 -7.514,-10.33c0.326,-6.225 2.829,-9.527 7.514,-9.908c3.315,0.097 5.456,2.029 6.429,5.803l1.21,0l0,-6.509l-0.849,0c-0.082,0.284 -0.361,0.429 -0.848,0.429c-0.243,0 -0.806,-0.145 -1.696,-0.429c-2.022,-0.562 -3.718,-0.845 -5.094,-0.845c-7.028,0.471 -10.788,4.292 -11.269,11.459c0.244,7.734 4.122,11.701 11.636,11.888c2.664,-0.097 5.374,-0.803 8.12,-2.125l0,-5.374c-0.083,-1.606 0.646,-2.36 2.182,-2.264l0,-1.419zm27.633,17.268c-1.696,0 -3.516,-1.184 -5.456,-3.538c-1.37,-1.419 -2.461,-2.361 -3.268,-2.832c5.332,-1.793 8.119,-5.705 8.362,-11.743c-0.403,-7.172 -4.121,-10.994 -11.15,-11.465c-7.353,0.567 -11.315,4.624 -11.878,12.171c0.243,5.567 2.746,9.196 7.514,10.898c0.967,0.278 2.384,1.316 4.24,3.11c2.343,2.831 5.456,4.479 9.335,4.951c0.724,0 1.334,-0.043 1.815,-0.139l0.486,-1.413zm-18.788,-18.964c0.166,-5.754 2.343,-8.773 6.547,-9.057c4.443,0.284 6.868,4.009 7.272,11.182c-0.244,6.128 -2.385,9.292 -6.423,9.479c-4.686,-0.471 -7.153,-4.341 -7.396,-11.604l0,0zm22.793,-8.489l0.362,0c1.614,-0.096 2.384,0.803 2.301,2.687l0,14.436c0.083,1.696 -0.687,2.547 -2.301,2.547l-0.362,0l0,1.413l9.816,0l0,-1.413l-0.487,0c-1.696,0.091 -2.503,-0.803 -2.42,-2.692l0,-14.291c0,-1.793 0.807,-2.687 2.42,-2.687l0.487,0l0,-1.419l-9.816,0l0,1.419zm17.818,3.109l14.785,17.974l1.697,0l0,-19.248c-0.078,-1.316 0.77,-1.931 2.549,-1.835l0.362,0l0,-1.419l-8,0l0,1.419l0.362,0c1.293,0 2.105,0.187 2.425,0.567c0.326,0.375 0.487,1.226 0.487,2.542l0,10.898l-12.728,-15.426l-6.304,0l0,1.419c0.973,0 1.779,0.235 2.426,0.706l0,16.7c0.077,1.509 -0.688,2.264 -2.302,2.264l-0.243,0l0,1.413l7.515,0l0,-1.413c-2.183,0.187 -3.191,-0.803 -3.031,-2.976l0,-13.585zm45.573,7.076l-10.301,0l0,1.419c1.613,0.091 2.663,0.284 3.149,0.562c0.486,0.283 0.729,0.851 0.729,1.702l0,5.09c-0.889,0.568 -2.022,0.851 -3.397,0.851c-4.686,-0.471 -7.189,-3.912 -7.514,-10.33c0.325,-6.225 2.828,-9.527 7.514,-9.908c3.314,0.097 5.455,2.029 6.428,5.803l1.21,0l0,-6.509l-0.848,0c-0.083,0.284 -0.362,0.429 -0.848,0.429c-0.243,0 -0.807,-0.145 -1.697,-0.429c-2.022,-0.562 -3.718,-0.845 -5.094,-0.845c-7.027,0.471 -10.787,4.292 -11.268,11.459c0.243,7.734 4.121,11.701 11.636,11.888c2.663,-0.097 5.373,-0.803 8.119,-2.125l0,-5.374c-0.083,-1.606 0.646,-2.36 2.182,-2.264l0,-1.419zm36.966,-10.185l0.486,0c1.774,-0.096 2.622,1.129 2.545,3.677l0,8.772c-0.083,4.341 -2.1,6.557 -6.061,6.654c-3.636,-0.097 -5.498,-2.077 -5.575,-5.947l0,-10.753c0,-1.6 0.724,-2.403 2.182,-2.403l0.481,0l0,-1.419l-9.696,0l0,1.419l0.61,0c1.536,-0.096 2.26,0.706 2.182,2.403l0,10.753c0.078,5.379 3.108,8.114 9.086,8.211c5.741,-0.097 8.647,-3.206 8.73,-9.34l0,-9.057c-0.083,-2.076 0.848,-3.066 2.787,-2.97l0.244,0l0,-1.419l-8.001,0l0,1.419zm15.393,3.109l14.785,17.974l1.696,0l0,-19.248c-0.077,-1.316 0.771,-1.931 2.55,-1.835l0.362,0l0,-1.419l-8.001,0l0,1.419l0.362,0c1.293,0 2.105,0.187 2.426,0.567c0.326,0.375 0.486,1.226 0.486,2.542l0,10.898l-12.727,-15.426l-6.304,0l0,1.419c0.972,0 1.779,0.235 2.425,0.706l0,16.7c0.078,1.509 -0.687,2.264 -2.301,2.264l-0.243,0l0,1.413l7.514,0l0,-1.413c-2.182,0.187 -3.191,-0.803 -3.03,-2.976l0,-13.585zm22.787,-3.109l0.362,0c1.614,-0.096 2.384,0.803 2.302,2.687l0,14.436c0.082,1.696 -0.688,2.547 -2.302,2.547l-0.362,0l0,1.413l9.816,0l0,-1.413l-0.486,0c-1.697,0.091 -2.503,-0.803 -2.421,-2.692l0,-14.291c0,-1.793 0.807,-2.687 2.421,-2.687l0.486,0l0,-1.419l-9.816,0l0,1.419zm23.512,21.367l1.939,0l6.428,-17.545c0.885,-2.741 2.1,-4.009 3.636,-3.822l0.119,0l0,-1.419l-7.876,0l0,1.419l0.724,0c1.696,0.091 2.342,0.755 1.939,1.98l-4.727,13.301l-4.845,-12.172c-0.486,-1.129 -0.569,-1.932 -0.244,-2.403c0.321,-0.471 1.133,-0.706 2.426,-0.706l0.481,0l0,-1.419l-10.788,0l0,1.419l0.243,0c0.89,0 1.536,0.187 1.94,0.567c0.325,0.278 0.77,1.081 1.334,2.403l7.271,18.397zm29.092,-20.8c1.21,-0.193 1.939,0.894 2.182,3.255l1.21,0l-0.362,-5.241l-17.092,0l0,1.419l0.368,0c1.856,-0.096 2.746,0.755 2.663,2.548l0,14.575c0.083,1.792 -0.724,2.638 -2.426,2.547l-1.21,0l0,1.413l18.664,0l0.367,-5.663l-1.215,0c-0.403,2.644 -1.572,3.87 -3.511,3.683l-5.213,0c-0.89,0.187 -1.293,-0.423 -1.216,-1.842l0,-6.508l4.608,0c2.1,-0.187 3.031,0.658 2.788,2.548l1.215,0l0,-7.215l-1.215,0c0.082,1.787 -0.688,2.638 -2.301,2.542l-5.095,0l0,-8.061l6.791,0zm15.149,10.892l2.426,0c0.806,0.755 1.939,2.264 3.392,4.529c0.972,1.605 1.655,2.644 2.058,3.115c0.729,0.845 1.578,1.461 2.55,1.841c0.967,0.187 2.384,0.278 4.24,0.278c0.807,0 1.453,0 1.94,0l0,-1.129c-1.697,-0.097 -3.072,-0.851 -4.122,-2.264c-0.646,-0.755 -1.495,-1.932 -2.544,-3.538c-1.133,-1.793 -2.064,-3.067 -2.788,-3.822c2.989,-0.942 4.525,-2.874 4.603,-5.802c0,-1.6 -0.481,-2.97 -1.453,-4.1c-1.371,-1.793 -4.241,-2.644 -8.606,-2.547c-1.132,0 -2.828,0.09 -5.089,0.283c-0.646,0 -1.696,0.043 -3.154,0.139c-0.321,0.097 -0.605,0.139 -0.848,0.139l0,1.419l0.61,0c1.857,-0.096 2.705,0.803 2.544,2.687l0,14.291c0.078,1.889 -0.811,2.783 -2.668,2.692l-0.486,0l0,1.413l10.787,0l0,-1.413l-0.966,0c-1.619,0 -2.426,-0.899 -2.426,-2.692l0,-5.519zm0,-11.888l1.696,0c3.558,0.097 5.374,1.842 5.456,5.241c0.078,3.49 -1.898,5.234 -5.942,5.234l-1.21,0l0,-10.475zm20.724,21.373l0.848,0c0.166,-0.38 0.368,-0.567 0.605,-0.567c0.166,0 0.528,0.09 1.092,0.284c1.779,0.47 3.196,0.706 4.245,0.706c4.122,-0.187 6.341,-2.361 6.666,-6.509c0,-1.702 -0.604,-3.302 -1.82,-4.812c-0.967,-1.135 -2.586,-2.36 -4.846,-3.682c-2.508,-1.6 -3.759,-3.019 -3.759,-4.245c0.16,-1.6 1.174,-2.451 3.03,-2.548c2.503,0.097 4.205,1.703 5.089,4.812l1.215,0l-0.605,-5.802l-0.61,0c-0.16,0.097 -0.202,0.145 -0.119,0.145c-0.243,0.187 -0.445,0.284 -0.605,0.284c-0.083,0 -0.362,-0.097 -0.848,-0.284c-1.453,-0.471 -2.746,-0.706 -3.879,-0.706c-3.961,0.283 -6.061,2.264 -6.304,5.941c0.486,3.489 2.302,5.85 5.456,7.076c2.663,1.225 4.158,2.97 4.484,5.234c-0.161,2.264 -1.334,3.442 -3.517,3.538c-2.586,0 -4.365,-1.793 -5.331,-5.379l-1.211,0l0.724,6.514zm17.699,-20.944l0.362,0c1.614,-0.096 2.384,0.803 2.301,2.687l0,14.436c0.083,1.696 -0.687,2.547 -2.301,2.547l-0.362,0l0,1.413l9.816,0l0,-1.413l-0.486,0c-1.697,0.091 -2.504,-0.803 -2.421,-2.692l0,-14.291c0,-1.793 0.807,-2.687 2.421,-2.687l0.486,0l0,-1.419l-9.816,0l0,1.419zm26.061,0.423l3.636,0c1.293,0 2.1,0.235 2.42,0.706c0.326,0.38 0.647,1.558 0.972,3.538l1.211,0l-0.481,-6.792l-1.092,0c-0.325,0.567 -0.811,0.803 -1.458,0.706l-14.785,0c-0.321,0 -0.605,-0.042 -0.848,-0.139c-0.16,-0.096 -0.362,-0.283 -0.605,-0.567l-0.973,0l-0.605,6.792l1.335,0c0.32,-1.98 0.646,-3.158 0.967,-3.538c0.325,-0.471 1.091,-0.706 2.306,-0.706l3.755,0l0,16.555c0.083,1.793 -0.724,2.692 -2.42,2.692l-1.092,0l0,1.413l11.15,0l0,-1.413l-0.729,0c-1.94,0.091 -2.829,-0.803 -2.664,-2.692l0,-16.555zm25.451,11.604l5.208,-9.479c0.569,-1.039 1.055,-1.703 1.459,-1.981c0.48,-0.283 1.168,-0.476 2.058,-0.567l0,-1.419l-7.395,0l0,1.419l0.367,0c0.889,0 1.453,0.235 1.696,0.706c0.16,0.471 0,1.178 -0.486,2.126l-3.636,6.647l-4.969,-7.644c-0.321,-0.561 -0.362,-1.032 -0.119,-1.412c0.242,-0.284 0.723,-0.423 1.453,-0.423l0.486,0l0,-1.419l-10.183,0l0,1.419l0.243,0c0.807,0 1.371,0.091 1.696,0.284c0.321,0.187 0.688,0.658 1.092,1.413l6.666,10.33l0,5.096c0.082,1.696 -0.688,2.547 -2.302,2.547l-0.848,0l0,1.413l10.664,0l0,-1.413l-0.486,0c-1.94,0.091 -2.829,-0.803 -2.664,-2.692l0,-4.951z"/>
  <g transform="matrix(1,0,0,1,-51.762257,-160.830569) " id="Layer1000">
   <g id="Layer1001">
    <path fill="#ffffff" fill-rule="evenodd" id="path6" d="m150.7557,180.4844c0.2027,0.2417 0.4581,0.4971 0.7882,0.5597c0.5333,0.1012 0.822,-0.7344 1.3775,-0.6393c0.5556,0.0952 0.8026,0.4343 1.0395,0.7656c1.9109,2.6714 -1.8981,3.0196 -2.106,4.8478c-0.049,0.3695 0.3293,0.4073 0.6509,0.2459c0.7924,-0.3737 0.8407,0.2972 1.6677,0.8871c0.2943,0.231 0.6154,0.1698 1.0125,0.2904c0.3971,0.1205 1.2595,0.8116 0.9682,1.619c-0.2245,0.6223 -1.8097,1.956 -1.8492,2.754c-0.009,0.1811 0.003,0.2702 0.1557,0.3212c0.2097,0.0376 0.407,-0.2024 0.5969,-0.3988c0.2716,-0.281 0.4542,-0.3146 0.845,-0.2479c0.9894,0.1687 1.8102,1.2895 1.4014,2.3994c-0.3004,0.8155 -1.4012,1.075 -1.8903,1.693c-0.4035,0.5098 0.3512,0.9014 0.0478,1.4428c-0.3291,0.5873 -1.3984,0.8382 -1.7762,1.3894c-0.1117,0.1769 -0.0395,0.274 0.1284,0.2996c0.6994,0.1241 1.1649,-0.7663 1.7471,-0.9626c0.9962,-0.3357 2.0371,0.8413 1.8345,1.881c-0.1279,0.6451 -1.0345,1.5233 -0.8177,2.2055c0.2215,0.697 1.2108,0.848 1.8328,1.1269c0.4405,0.1975 0.6512,0.551 0.6635,1.0387c0.0265,1.0559 -1.5745,1.2828 -2.6629,0.9573c-0.2498,-0.0747 -0.5183,-0.2381 -0.856,-0.1284c-0.7012,0.2278 -1.3673,1.8968 -2.4395,1.4979c-1.9711,-0.7962 0.8501,-2.8235 1.1023,-3.4014c0.1193,-0.2732 -0.1085,-0.5726 -0.1503,-0.8131c-0.0624,-0.3592 0.3339,-0.797 0.6157,-1.0338c0.6537,-0.5491 -0.0326,-0.7619 -0.6496,-0.6012c-1.3634,0.3552 -1.5573,1.8079 -2.0736,3.1746c-0.3073,0.8134 -0.7914,1.9086 -1.1613,2.7783c-0.2971,0.6985 -0.6935,2.36 -1.9259,1.8831c-1.2886,-0.4986 -0.8859,-2.0028 -0.4651,-3.1462c0.7413,-2.0121 2.8066,-3.8032 3.1792,-6.0861c0.1142,-0.7003 -1.5213,-1.1779 -1.1975,-2.0036c0.1271,-0.2639 0.4661,-0.3763 0.7901,-0.3943c0.6893,-0.0383 0.5755,-0.4325 0.1422,-0.4615c-0.5324,-0.0357 -1.7967,-1.4813 -2.1445,-1.8472c-0.9658,-1.016 -0.8746,-1.0778 -1.4437,0.126c-1.5398,3.2567 -4.5398,13.2983 -4.6946,14.3137c-0.3039,1.9942 -0.7035,4.5012 -1.974,4.3444c-0.3754,-0.0516 -1.7243,-1.1003 -1.8841,-1.7552c-0.4787,-1.9947 8.5787,-21.9575 10.0206,-24.6001c0.3385,-0.6204 -0.1422,-0.9604 -0.6357,-0.5065c-1.8426,1.6948 -3.2973,2.2524 -4.9247,2.7121c-0.9211,0.2571 -1.8375,-0.2776 -2.1723,-0.9431c-0.3922,-0.7796 0.0561,-0.9372 0.7271,-1.1348c0.4066,-0.1198 0.8756,-0.3379 1.3233,-0.5223c0.6957,-0.2866 2.2315,-1.099 2.9693,-1.8794c0.7327,-0.7749 0.3952,-1.155 -0.3479,-1.4781c-1.0236,-0.4452 -2.2739,-1.3556 -1.6334,-2.3608c0.4898,-0.7582 2.4667,-0.2976 3.0698,-0.2827c0.2436,0.006 0.2982,-0.1338 0.476,-0.2536c0.7114,-0.4793 2.1532,-0.328 2.7028,0.3276zm-0.735,8.7982c-0.0583,0.0971 -0.0721,0.1093 -0.0556,0.1686c0.0256,0.0921 0.0283,0.089 0.126,0.0915c0.134,0.004 0.2665,-0.044 0.2225,-0.22c-0.0256,-0.1022 -0.009,-0.0882 -0.1097,-0.1083c-0.1344,-0.0269 -0.1131,-0.0487 -0.1832,0.0682zm-1.3134,8.1912c2.3826,0.2293 2.1585,4.5922 -0.5473,4.0485c-2.1172,-0.4254 -0.0877,-4.0771 0.5473,-4.0485z"/>
    <path fill="#ffffff" fill-rule="evenodd" id="path8" d="m189.1654,186.6622c-0.24,0.5934 -0.8375,0.7719 -1.1556,1.2868c-0.7866,1.2735 -2.1316,4.489 -2.5971,6.4796c-0.2289,0.9787 0.1437,1.3137 0.939,1.139c0.4535,-0.0996 1.4971,-0.4006 1.7538,-0.7056c0.3423,-0.4067 0.1397,-1.019 0.7704,-1.1555c0.4426,-0.0959 1.4944,0.665 1.8445,1.2794c0.1442,0.2529 0.1353,0.4239 0.0368,0.683c-0.7624,2.0061 -5.5601,1.3215 -6.8171,2.7262c-0.4191,0.5268 0.573,1.2509 0.8484,1.9292c0.7601,1.8719 1.4123,4.1512 2.601,5.6857c0.5058,0.6529 1.6859,0.6802 1.9903,1.5514c0.1431,0.4097 0.0868,0.6558 -0.343,0.7523c-0.5773,0.1296 -1.607,0.003 -2.0944,-0.0104c-0.7043,-0.0198 -0.8947,0.1041 -1.3267,-0.0427c-1.5436,-0.5558 -2.3176,-4.4389 -2.3372,-6.0607c-0.009,-0.7318 -0.2713,-1.1881 -0.6847,-0.944c-0.291,0.1718 -0.5131,0.5172 -0.694,0.7971c-0.402,0.6221 -0.7819,1.3752 -1.0939,1.66c-1.4027,1.2502 -7.0039,-0.2925 -6.9542,-1.2523c0.051,-1.6641 1.8757,-0.8825 3.0168,-1.1224c1.141,-0.2399 3.5358,-1.4771 3.3452,-2.3705c-0.0725,-0.1795 -0.2033,-0.3008 -0.5109,-0.2236c-0.3566,0.0895 -0.6105,0.5694 -1.0272,0.6847c-0.9174,0.254 -1.9969,-0.7658 -1.7926,-1.7521c0.4529,-2.1867 4.0659,-0.4896 5.2741,-2.0551c1.16,-2.0104 3.4978,-7.7701 3.5414,-8.3027c0.1869,-4.4854 4.5603,-3.3601 3.4669,-0.6568z"/>
    <path fill="#ffffff" fill-rule="evenodd" id="path10" d="m111.3536,191.9612c0.3159,0.356 0.526,0.8346 0.7351,1.2358c1.1224,3.12 1.5487,10.2453 0.3074,13.0609c-0.7081,1.6062 -1.3668,0.6508 -1.5434,-0.5966c-0.52,-3.6736 -0.0343,-7.8816 -1.835,-11.2128c-0.3963,-0.7331 -1.0373,-1.3835 -0.3243,-2.0549c0.2102,-0.198 0.4742,-0.3759 0.7988,-0.558c0.6296,-0.3531 1.1519,-0.6742 1.8614,0.1256zm4.4974,8.9193c0.3079,0.3823 0.2481,0.5291 0.7681,0.2841c0.2551,-0.1202 0.5701,-0.398 0.8822,-0.4596c0.4953,-0.0977 0.8356,0.1643 1.0699,0.3424c1.576,1.1977 -0.4249,3.1117 -0.2639,4.4159c0.1044,0.8458 0.6775,0.9656 0.9623,0.0371c0.2391,-0.7793 0.0913,-1.9157 0.9321,-2.0984c1.0141,-0.2202 2.0001,0.3527 2.3238,1.1424c0.1965,0.4796 0.0313,0.7656 -0.0962,1.2502c-0.0683,0.3344 0.0146,0.5912 0.0975,0.827c0.186,0.5295 0.0798,1.3308 -0.0442,1.8771c-0.1973,0.869 -1.0949,1.3543 -0.9093,2.1321c0.1378,0.6167 0.9743,2.9424 1.3814,3.2709c0.4918,0.397 1.3766,0.3748 1.769,0.8664c0.3482,0.4361 0.2436,1.3574 0.4335,1.6944c0.1898,0.3371 0.2834,0.4476 0.6466,-0.1224c0.2729,-0.4282 0.4307,-1.0312 0.8625,-1.1241c0.8544,-0.186 2.0034,1.3559 1.9259,2.0485c-0.0434,0.3876 -0.7273,2.0848 -1.4076,3.3028c-0.2339,0.4189 -0.4534,0.7862 -0.7026,1.0561c-0.4757,0.5151 -1.1454,0.6322 -2.1455,0.1178c-1.0815,-0.5563 -1.4292,-1.9302 -1.3728,-3.3183c0.0293,-0.7226 -0.6749,-1.8653 -1.3427,-2.1159c-0.3323,-0.1248 -0.6855,-0.2234 -0.8709,-0.4954c-0.2109,-0.3094 -0.057,-0.8561 -0.214,-1.2586c-0.056,-0.1436 -0.8526,-1.5169 -1.1832,-1.9483c-0.2435,-0.3177 -0.4542,-0.008 -0.2808,0.3292c0.3001,0.5832 0.3761,1.3721 -0.0239,1.9523c-0.4267,0.619 -1.8386,0.8079 -2.3111,0.0856c-0.4224,-1.4593 -0.2838,-3.252 -0.627,-4.9054c-0.0619,-0.2986 -0.3151,-1.5428 -0.5401,-0.5534c-0.502,2.2075 -1.358,4.2609 -1.358,6.5532c-0.007,1.3536 -0.2223,2.0199 -1.0099,2.5833c-0.7869,0.5723 -3.299,1.1325 -3.8272,0.1279c-0.7534,-2.0035 4.7261,-12.7875 4.8572,-13.2376c0.2804,-0.9621 -0.3938,-1.4628 -0.5992,-2.0465c-0.3345,-0.9512 0.1323,-2.1566 0.6586,-2.7558c0.5203,-0.5924 1.0697,-0.4653 1.5595,0.143z"/>
    <path fill="#ffffff" fill-rule="evenodd" id="path12" d="m228.6246,202.4386c2.4156,-0.0523 1.8219,2.9641 0.7214,3.6334c-0.99,0.6021 -3.6587,-0.7656 -4.0246,0.1525c-0.3959,1.4039 3.7066,0.6672 3.7117,3.2143c0.001,0.551 -0.2305,1.0954 -0.4762,1.3975c-0.701,0.8619 -1.7658,0.1833 -2.9414,0.4284c-0.5059,0.1054 -1.3995,0.2701 -1.9053,0.3759c-0.613,0.1282 -1.959,-0.1954 -1.7185,0.5968c0.2829,0.5018 1.4412,0.8117 1.809,1.4389c0.7884,1.3443 -0.4878,3.0345 -1.3414,3.2703c-0.7234,0.1999 -2.0402,-0.62 -2.9923,-0.6604c-0.4294,-0.0182 -0.8886,-0.0503 -1.2916,-0.1854c-1.3144,-0.3829 -2.266,-1.2182 -3.1236,-2.0658c-0.3105,-0.3069 -1.2172,-0.7704 -1.2068,-1.4145c0.001,-0.0817 0.0174,-0.1664 0.0513,-0.254c0.0889,-0.1969 0.2434,-0.2853 0.4514,-0.3134c0.9467,-0.1277 3.0173,1.2856 4.0486,1.4559c0.8736,0.1443 0.4967,-0.5075 0.083,-0.7175c-0.5773,-0.293 -1.2582,-0.7015 -1.9091,-1.0203c-0.6415,-0.3142 -0.9501,-0.3216 -1.6566,-0.3537c-1.8525,-0.0251 -2.9208,-2.2784 -2.3709,-3.0482c0.507,-0.7096 1.0777,-0.4481 1.5112,-0.191c0.921,0.546 2.3218,0.8219 3.3704,0.7777c0.3886,-0.0164 0.7702,-0.288 0.3721,-0.6377c-0.3976,-0.3493 -1.1376,0.007 -1.5999,-0.2009c-0.4624,-0.2084 -0.7654,-0.3027 -0.8553,-0.7716c-0.1062,-0.5536 -0.3029,-0.8265 -0.7796,-0.4577c-0.9001,0.6961 -1.9889,-0.1134 -1.7569,-1.2831c0.1243,-0.6264 0.7091,-1.2881 1.1848,-1.6754c0.3155,-0.2568 -0.1633,-0.5132 0.3801,-0.4963c0.271,0.008 0.7031,-0.002 0.9706,-0.0464c0.4015,-0.0698 0.5002,-0.556 0.9027,-0.7925c0.2992,-0.1757 0.804,-0.1299 1.0006,0.1617c0.2604,0.3862 0.1412,1.0893 0.5824,1.07c0.3073,-0.006 0.3334,-0.929 0.7701,-1.1457c0.453,-0.1384 0.8607,-0.1885 1.162,0.1281c0.3613,0.3796 0.804,0.6104 1.2225,0.727c0.5734,0.1597 2.5342,0.0675 3.0797,-0.3339c0.13,-0.0956 0.2709,-0.1864 0.4892,-0.1856c0.7988,-0.0142 2.0826,0.0375 2.6954,-0.004c0.6129,-0.0416 0.8952,-0.5547 1.3798,-0.5733l0,-0.0001zm-11.5687,3.4951c0,0.2029 0.0133,0.1945 0.2271,0.2063c0.158,0.009 0.2199,0.0247 0.3446,-0.13c0.07,-0.0869 0.1213,-0.1675 0.0888,-0.2917c-0.0424,-0.1615 -0.109,-0.1867 -0.3148,-0.1812c-0.2811,0.007 -0.3457,0.158 -0.3457,0.3966zm-6.3004,0.3614c0.9171,0.099 1.2038,0.8699 0.7109,1.3683c-0.5278,0.5338 -1.2557,1.387 -1.6519,1.5293c-1.0089,0.3624 -2.1322,-0.817 -1.8726,-1.517c0.2596,-0.7 1.9275,-1.4762 2.8136,-1.3806zm12.7287,1.1149c0.0648,0.0122 0.1005,-0.0004 0.1866,-0.0914c0.122,-0.1292 0.1568,-0.2464 0.0516,-0.4305c-0.0284,-0.0495 -0.0906,-0.0994 -0.252,-0.0336c-0.1125,0.046 -0.169,0.1401 -0.194,0.2875c-0.0308,0.1818 0.0125,0.2313 0.2078,0.268zm-2.2026,0.3363c-0.2801,0.1314 -0.5911,0.2595 -0.5689,0.6065c0.0129,0.2027 0.1048,0.147 0.2849,0.1127c0.2027,-0.0385 0.3602,-0.1169 0.5098,-0.208c0.1701,-0.1036 0.2227,-0.1277 0.1673,-0.3503c-0.0417,-0.1676 -0.1749,-0.2631 -0.3931,-0.1609zm2.8708,0.8078c0.0581,0.0481 0.0981,0.0718 0.2016,0.0423c0.0875,-0.025 0.1153,-0.0652 0.1032,-0.2038c-0.009,-0.1048 -0.0424,-0.196 -0.1798,-0.205c-0.0818,-0.005 -0.1055,-0.008 -0.133,0.0668c-0.0438,0.1182 -0.1106,0.2014 0.008,0.2997zm-20.3425,3.5961c1.0285,-0.4388 2.065,1.0887 2.9316,1.7333c0.5409,0.4023 1.0623,0.3805 1.7976,0.642c0.2195,0.1149 0.439,0.2299 0.6586,0.3449c0.1904,0.0998 0.3017,0.1524 0.5196,0.1792c0.8124,0.0997 2.0911,-0.1419 1.946,-0.8237c-0.0892,-0.3318 -0.3478,-0.4497 -0.428,-0.7276c-0.2147,-0.7446 0.4494,-1.4972 1.1535,-1.4727c0.3567,0.0124 0.488,0.1961 0.7114,0.4623c0.6756,0.8051 1.8503,2.5715 1.6874,3.1075c-0.0895,0.2944 -0.5113,0.6511 -0.8449,0.9302c-0.5606,0.4689 -0.8264,0.8888 -0.073,1.2289c0.8077,0.3647 2.078,0.9315 2.2188,1.7148c0.0827,0.4605 -0.3185,1.0656 -0.7445,1.2191c-1.0868,0.3915 -3.4205,-1.0999 -3.9031,-1.5417c-0.4826,-0.4418 -0.6507,-1.0771 -1.4895,-0.2344c-0.8388,0.8427 -2.5068,3.4413 -3.3383,4.665c-0.4133,0.6083 -1.7895,1.8232 -2.8888,1.6263c-0.3318,-0.0594 -0.5303,-0.3139 -0.7276,-0.5136c-0.9754,-0.9876 -0.4279,-1.4934 -0.396,-2.5757c0.0133,-0.4551 -0.054,-0.7625 -0.2366,-1.1644c-0.1384,-0.3046 -0.2704,-0.6095 -0.3353,-0.9402c-0.1008,-0.5133 -0.1497,-1.1013 0.0901,-1.4599c0.0935,-0.1398 0.24,-0.2445 0.3989,-0.2975c0.9899,-0.3303 1.4109,2.0429 2.2764,2.1579c0.674,-0.3257 0.9615,-1.1281 1.391,-1.6905c0.3709,-0.3709 0.7846,-0.5707 1.1555,-0.9416c0.1149,-0.1935 0.1354,-0.4545 0.0428,-0.642c-0.2377,-0.5118 -0.7777,-0.5614 -1.3267,-0.7703c-1.3425,-0.5109 -4.6829,-2.8602 -2.2469,-4.2156z"/>
   </g>
   <path fill="#ffffff" fill-rule="evenodd" id="path15" d="m93.6798,267.5445c1.8238,2.3339 3.6072,4.7663 5.2533,7.2835c0.1395,0.2134 0.3902,0.7475 0.6829,1.2199c0.5067,0.8179 1.7735,1.2267 1.8523,-0.0232c0.1281,-2.0342 3.688,-7.042 5.3259,-8.291c0.1752,-0.1336 0.3067,-0.103 0.1736,0.4334c-0.2122,0.8547 -0.3193,2.0133 -0.3193,2.9737c0,2.0018 -0.9513,7.0033 -1.5807,8.2258c-0.6293,1.2225 -0.4858,1.0736 -0.9791,2.1113c-0.4934,1.0378 -2.7153,6.5801 -1.9457,7.8587c0.2581,0.429 0.8822,0.443 1.259,0.1877c0.455,-0.3084 0.2822,-0.7674 0.3693,-1.2491c0.5078,-2.8093 3.0519,-8.1471 3.1868,-7.2662c0.4304,2.9728 1.8187,8.7111 1.7845,11.7909c-0.0105,0.9543 -0.2206,2.1015 -0.4946,3.011c-0.4514,1.4979 -0.9755,2.2463 -1.2261,3.5832c-0.388,2.0705 0.9854,4.4968 2.733,3.4731c0.6362,-0.5138 -0.8492,-3.6959 0.6949,-7.8692c0.2183,-0.59 0.4651,-1.1948 0.7645,-0.5034c1.7079,3.9429 4.1402,7.3974 5.052,11.7044c0.2078,0.9812 0.3155,1.9512 0.363,3.0549c0.1422,2.5598 -0.4679,7.1155 2.8897,8.3294c0.3414,0.1235 0.7854,-0.01 0.9844,-0.1712c0.7179,-0.5817 -0.0431,-1.6361 -0.2996,-2.1399c-0.3321,-0.6522 -1.3394,-3.8353 -1.4199,-5.5318c-0.0787,-1.6566 0.6847,-0.6637 1.4174,0.1718c1.902,2.1692 6.4056,6.2943 6.7218,6.7724c2.716,3.7945 2.525,8.2992 4.3754,10.1787c1.0181,1.0341 2.7853,2.2094 3.7562,1.6335c0.4252,-1.2177 -0.7416,-1.777 -1.193,-2.5099c-0.7377,-1.1979 -2.6424,-4.7296 -2.9888,-6.1733c-0.1079,-0.4496 0.008,-0.4024 0.3643,-0.2467c0.8944,0.3905 2.5441,1.7451 3.3467,2.0822c9.382,4.4303 9.7994,6.2669 14.7226,12.4543c1.1714,1.3047 5.6472,1.3156 7.7948,3.4286c0.1745,0.1716 0.1009,0.2874 -0.0946,0.3645c-7.4223,2.9273 -18.6996,3.0077 -29.3774,-3.9768c-0.2297,-0.1503 -0.2605,-0.3114 0.0565,-0.2299c0.807,0.2072 3.0568,0.5015 4.0114,0.5196c0.8602,0.0162 4.1954,-0.2927 4.0694,-1.3547c-0.1038,-0.8744 -1.2724,-0.7939 -2.0489,-0.806c-1.0147,-0.0156 -1.7565,0.0466 -2.8984,0.003c-4.5204,0.0684 -7.9471,-1.622 -11.3622,-3.8655c-1.3483,-0.8857 -3.7905,-2.7088 -4.8815,-3.917c-0.2589,-0.2868 -0.1091,-0.4001 0.2211,-0.4154c2.7744,-0.129 7.547,0.6732 10.2123,1.5932c0.4107,0.1418 0.8199,-0.0279 0.9178,-0.4411c0.1886,-0.797 0.007,-0.9259 -0.6501,-1.0721c-3.2321,-0.7197 -13.2061,-2.8057 -17.6238,-8.666c-0.5811,-0.7708 -1.4844,-1.7514 -1.9848,-2.8421c-0.1584,-0.3453 -0.0187,-0.3045 0.3672,-0.2103c0.6817,0.1666 1.3793,0.7039 1.9282,0.9165c0.7182,0.2782 5.5517,2.1695 6.1078,1.5932c0.6158,-0.6382 -0.3314,-1.5204 -0.7358,-1.7703c-2.6401,-1.9801 -5.7512,-2.482 -8.4963,-4.7875c-4.5118,-3.7547 -6.663,-7.7381 -9.2615,-11.3261c0.0593,-1.244 4.6985,1.9771 5.3669,2.2101c0.5512,0.1922 1.7086,0.825 2.3111,0.2996c1.2548,-0.8701 -0.9824,-2.0127 -1.3267,-2.2683c-4.0246,-2.3833 -6.3193,-6.4023 -8.9438,-13.8927c-0.1473,-0.4205 -0.5573,-1.1563 0.2064,-0.8326c0.7637,0.3237 3.0476,3.4354 4.6814,2.4718c0.8203,-0.5969 -1.239,-2.5736 -1.7436,-3.5197c-2.1273,-3.9882 -2.6991,-8.3418 -2.839,-13.6564c-0.0071,-0.2705 0.1529,-0.3638 0.3894,-0.1089l0,0.0004zm10.9961,-19.6799c0.2554,2.3234 -0.2473,7.0801 -0.9066,9.7586c-0.1616,0.6565 -0.8163,3.0232 -0.0619,3.3085c0.7544,0.2854 1.0974,-0.4685 1.4211,-0.7355c0.7837,-0.6465 1.6208,-1.388 2.4933,-2.0029c0.9285,-0.6542 1.0074,-0.3886 0.7306,0.4903c-0.4294,1.3635 -0.7383,3.3247 -1.1946,4.4935c-1.4926,3.8238 -4.9526,6.5325 -6.4063,10.1917c-0.1993,0.5019 -0.4989,0.534 -0.7837,0.001c-1.1119,-2.079 -1.8221,-3.1564 -2.6582,-4.3874c-2.745,-4.0414 -3.7028,-10.9315 -2.9545,-15.7499c0.0542,-0.0722 0.1058,-0.1193 0.1549,-0.1461c0.1474,-0.0805 0.2727,0.0214 0.3795,0.1743c1.1018,1.5763 2.0702,3.868 2.7597,5.6615c0.3926,1.0212 1.5287,0.7247 1.6047,-0.3264c0.0837,-1.158 0.0364,-2.0006 0.3488,-3.2104c0.7816,-3.0274 2.3492,-5.826 3.4818,-7.8863c0.7167,-1.3038 1.336,-1.9582 1.5914,0.3652l0,0.0003z"/>
   <path fill="#ffffff" fill-rule="evenodd" id="path17" d="m231.8127,267.5445c-1.8239,2.3339 -3.6073,4.7663 -5.2533,7.2835c-0.1396,0.2134 -0.3902,0.7475 -0.6829,1.2199c-0.5067,0.8179 -1.7736,1.2267 -1.8523,-0.0232c-0.1281,-2.0342 -3.688,-7.042 -5.326,-8.291c-0.1751,-0.1336 -0.3067,-0.103 -0.1735,0.4334c0.2122,0.8547 0.3193,2.0133 0.3193,2.9737c0,2.0018 0.9513,7.0033 1.5806,8.2258c0.6294,1.2225 0.4858,1.0736 0.9792,2.1113c0.4934,1.0378 2.7152,6.5801 1.9457,7.8587c-0.2582,0.429 -0.8822,0.443 -1.259,0.1877c-0.455,-0.3084 -0.2822,-0.7674 -0.3693,-1.2491c-0.5079,-2.8093 -3.0519,-8.1471 -3.1868,-7.2662c-0.4304,2.9728 -1.8187,8.7111 -1.7846,11.7909c0.0106,0.9543 0.2206,2.1015 0.4947,3.011c0.4514,1.4979 0.9755,2.2463 1.226,3.5832c0.3881,2.0705 -0.9854,4.4968 -2.7329,3.4731c-0.6363,-0.5138 0.8492,-3.6959 -0.6949,-7.8692c-0.2183,-0.59 -0.4651,-1.1948 -0.7646,-0.5034c-1.7078,3.9429 -4.1401,7.3974 -5.052,11.7044c-0.2077,0.9812 -0.3154,1.9512 -0.3629,3.0549c-0.1422,2.5598 0.4678,7.1155 -2.8897,8.3294c-0.3414,0.1235 -0.7854,-0.01 -0.9844,-0.1712c-0.7179,-0.5817 0.0431,-1.6361 0.2996,-2.1399c0.3321,-0.6522 1.3394,-3.8353 1.4199,-5.5318c0.0786,-1.6566 -0.6848,-0.6637 -1.4174,0.1718c-1.902,2.1692 -6.4056,6.2943 -6.7218,6.7724c-2.7161,3.7945 -2.525,8.2992 -4.3754,10.1787c-1.0181,1.0341 -2.7854,2.2094 -3.7562,1.6335c-0.4253,-1.2177 0.7416,-1.777 1.1929,-2.5099c0.7377,-1.1979 2.6424,-4.7296 2.9889,-6.1733c0.1079,-0.4496 -0.008,-0.4024 -0.3644,-0.2467c-0.8943,0.3905 -2.544,1.7451 -3.3467,2.0822c-9.3819,4.4303 -9.7993,6.2669 -14.7225,12.4543c-1.1714,1.3047 -5.6473,1.3156 -7.7948,3.4286c-0.1745,0.1716 -0.1009,0.2874 0.0945,0.3645c7.4224,2.9273 18.6997,3.0077 29.3774,-3.9768c0.2297,-0.1503 0.2606,-0.3114 -0.0565,-0.2299c-0.8069,0.2072 -3.0568,0.5015 -4.0113,0.5196c-0.8602,0.0162 -4.1954,-0.2927 -4.0694,-1.3547c0.1037,-0.8744 1.2724,-0.7939 2.0489,-0.806c1.0146,-0.0156 1.7565,0.0466 2.8983,0.003c4.5205,0.0684 7.9472,-1.622 11.3623,-3.8655c1.3482,-0.8857 3.7904,-2.7088 4.8814,-3.917c0.259,-0.2868 0.1091,-0.4001 -0.221,-0.4154c-2.7744,-0.129 -7.547,0.6732 -10.2123,1.5932c-0.4107,0.1418 -0.82,-0.0279 -0.9178,-0.4411c-0.1886,-0.797 -0.007,-0.9259 0.6501,-1.0721c3.2321,-0.7197 13.206,-2.8057 17.6238,-8.666c0.5811,-0.7708 1.4843,-1.7514 1.9847,-2.8421c0.1584,-0.3453 0.0188,-0.3045 -0.3671,-0.2103c-0.6818,0.1666 -1.3793,0.7039 -1.9282,0.9165c-0.7183,0.2782 -5.5518,2.1695 -6.1079,1.5932c-0.6158,-0.6382 0.3314,-1.5204 0.7359,-1.7703c2.64,-1.9801 5.7512,-2.482 8.4962,-4.7875c4.5119,-3.7547 6.663,-7.7381 9.2616,-11.3261c-0.0593,-1.244 -4.6986,1.9771 -5.3669,2.2101c-0.5512,0.1922 -1.7086,0.825 -2.3111,0.2996c-1.2548,-0.8701 0.9823,-2.0127 1.3267,-2.2683c4.0246,-2.3833 6.3193,-6.4023 8.9437,-13.8927c0.1474,-0.4205 0.5574,-1.1563 -0.2063,-0.8326c-0.7637,0.3237 -3.0476,3.4354 -4.6814,2.4718c-0.8203,-0.5969 1.2389,-2.5736 1.7436,-3.5197c2.1273,-3.9882 2.6991,-8.3418 2.8389,-13.6564c0.007,-0.2705 -0.1529,-0.3638 -0.3893,-0.1089l0,0.0004zm-10.9961,-19.6799c-0.3926,2.5154 0.2472,7.0801 0.9066,9.7586c0.1616,0.6565 0.8162,3.0232 0.0619,3.3085c-0.7544,0.2854 -1.0974,-0.4685 -1.4211,-0.7355c-0.7837,-0.6465 -1.6208,-1.388 -2.4934,-2.0029c-0.9284,-0.6542 -1.0073,-0.3886 -0.7305,0.4903c0.4294,1.3635 0.7383,3.3247 1.1946,4.4935c1.0035,2.5709 2.8893,4.8121 4.4082,6.9333c0.6677,1.0477 1.6055,2.0747 1.998,3.2584c0.0533,0.1606 0.1153,0.3093 0.2057,0.3435c0.377,0.1426 0.5037,-0.0881 0.5781,-0.3422c0.4265,-1.4576 1.8221,-3.1564 2.6582,-4.3874c2.1724,-3.1985 3.345,-8.1436 3.0073,-13.7798c-0.0385,-0.6433 0.0443,-1.3448 -0.0528,-1.9701c-0.3651,-0.4866 -0.6123,0.1675 -0.7838,0.4741c-0.8733,1.562 -1.8452,3.4854 -2.5103,5.2156c-0.3926,1.0212 -1.5288,0.7247 -1.6047,-0.3264c-0.0243,-0.3358 0.0115,-0.704 0.064,-0.9729c0.3542,-3.2277 -2.4871,-7.5633 -3.8946,-10.1238c-0.7167,-1.3038 -1.1989,-2.1503 -1.5914,0.3652z"/>
   <path fill="#ffffff" fill-rule="evenodd" id="path19" d="m149.0549,243.3009c5.5738,1.4978 6.1733,9.3975 3.1038,13.3524c-1.7481,2.2526 -6.7338,2.3669 -9.1409,0.7143c-0.3191,-0.2105 -0.6116,-0.5073 -0.9095,-0.9022c-0.4043,-0.5357 -1.1076,-1.76 -0.1606,-2.0479c0.8346,-0.2538 2.4984,-0.406 3.17,-0.1609c0.6605,0.241 0.7731,0.9751 1.7413,1.1652c0.8548,0.1677 1.9581,-1.1981 2.0775,-2.2271c0.037,-0.3193 -0.0203,-0.4086 -0.2732,-0.4473c-0.5692,-0.0873 -1.1546,0.4876 -1.6233,0.587c-4.4891,0.7585 -7.3484,-4.3355 -5.0175,-7.7239c1.6213,-2.3568 4.5194,-2.9849 7.0324,-2.3096zm-2.7576,3.6806c-0.58,1.2011 -0.2554,3.0445 1.5324,2.8993c0.5275,-0.0429 0.9061,-0.2936 1.0795,-0.6786c0.1192,-0.2092 0.1054,-0.4973 0.0552,-0.7809c-0.1068,-0.6048 -0.2128,-1.4267 -0.8304,-1.7009c-0.5896,-0.2619 -1.545,-0.3431 -1.8367,0.2611z"/>
   <path fill="#ffffff" fill-rule="evenodd" id="path21" d="m127.2105,242.7825c0.4714,-0.179 1.4878,-0.136 1.8404,0.0856c0.3562,0.2239 0.3642,1.0693 0.3345,1.8408c-0.1163,3.0133 -0.035,6.0555 -0.035,9.0727c-0.0138,0.8426 1.6299,-0.0801 2.0544,0.8132c0.3154,0.6638 0.3382,2.7567 -0.1712,3.167c-0.6473,0.5213 -2.6339,0.2567 -3.7235,0.2568c-1.2513,0.0001 -4.6325,0.2675 -5.1358,-0.3852c-0.3229,-0.4187 -0.3477,-1.5712 -0.2567,-2.3539c0.0452,-0.3889 0.216,-0.8866 0.6349,-0.9545c0.3717,-0.0602 0.7824,-0.0455 1.125,-0.1266c0.5688,-0.1346 0.3789,-0.4504 0.3661,-0.9661c-0.0247,-0.9879 -0.0718,-2.0638 -0.0717,-3.0886c0.0122,-0.5148 0.0245,-1.0298 0.0367,-1.5447c0.006,-0.2611 0.0101,-0.2795 -0.2505,-0.3307c-0.4322,-0.0849 -0.9271,0.1238 -1.3285,-0.0175c-0.1801,-0.0633 -0.2798,-0.1599 -0.3551,-0.3343c-0.2603,-0.6035 -0.3305,-2.1095 -0.1141,-2.6945c0.2448,-0.6623 0.7848,-0.4126 1.4979,-0.642c0.7131,-0.2294 1.5208,-0.4518 2.1399,-0.7276c0.6191,-0.2757 0.8385,-0.7539 1.4123,-1.0699z"/>
   <path fill="#ffffff" fill-rule="evenodd" id="path23" d="m177.9263,246.1635c0.3446,0.9939 0.0878,2.334 -0.3852,3.0387c-1.472,2.1931 -4.745,2.869 -6.6313,4.6621c-0.1289,0.1224 -0.1848,0.1109 -0.1705,0.2844c0.0183,0.221 -0.0183,0.25 0.2321,0.245c0.4135,-0.008 2.0981,0.063 3.0066,0.001c0.5893,-0.0399 0.5488,-0.0372 0.7216,-0.5498l0.2947,-0.8744l3.1319,0.002l0.0309,4.9127l-11.927,-0.0005c-0.4343,-4.5735 2.2688,-6.2618 2.8903,-6.7686c0.3482,-0.2839 0.4046,-0.3853 0.8454,-0.7157c1.0193,-0.9707 3.3914,-2.1698 3.2721,-3.2619c-0.1193,-1.0922 -1.2266,-1.8919 -2.1165,-1.3603c-0.6132,0.3664 -0.4508,1.2599 -0.8863,1.7935c-0.3685,0.4514 -3.3692,0.4668 -3.7366,0.0126c-0.6498,-0.8035 0.1886,-2.4367 0.7487,-3.1306c2.5559,-3.1665 9.3121,-2.2322 10.6791,1.7097l0,0.0001z"/>
   <path fill="#ffffff" fill-rule="evenodd" id="path25" d="m86.6688,238.0754c5.0281,1.9763 6.8615,6.3668 5.1009,11.7931c-0.8329,2.567 -2.4545,3.9839 -3.9979,4.5877c-0.9939,-0.1892 -1.8002,-0.3685 -2.3901,-0.6273c-0.4318,-0.1894 -0.5545,-0.5231 -0.4096,-0.9047c0.125,-0.3292 0.4667,-0.4798 1.0194,-0.4583c0.112,0.0426 0.1925,0.0732 0.2486,0.0945c1.9711,-0.2531 3.4559,-1.3156 4.163,-3.303c1.198,-3.367 -0.3775,-6.0912 -4.6012,-7.665c-4.1694,-1.5535 -7.0611,-0.4589 -8.4273,2.9055c-0.551,1.3569 -0.425,2.9146 0.3108,4.6254c0.294,0.6836 0.439,1.1376 0.3332,1.3485c-0.1585,0.3159 -0.456,0.4518 -0.8229,0.4367c-1.856,-1.7065 -2.3963,-4.3511 -1.0182,-7.7106c2.0258,-4.9383 5.8507,-6.9466 10.4913,-5.1225zm-1.4943,33.3661l-11.8567,-1.4128c-0.4649,-0.0554 -0.8315,0.0992 -1.0286,0.496c-0.1907,0.3844 -0.3929,0.5756 -0.683,0.5411c-0.4649,-0.0554 -0.6611,-0.4032 -0.5849,-1.0429l0.4467,-3.749c0.09,-0.755 0.3609,-1.0542 0.8238,-0.9617c0.2864,0.0572 0.4657,0.2342 0.5479,0.5933c0.1113,0.4863 0.4076,0.7578 0.8725,0.8131l5.8428,0.6962l0.9245,-7.7582l-5.8429,-0.6962c-0.4648,-0.0554 -0.8309,0.0995 -1.0285,0.496c-0.1897,0.3809 -0.3925,0.5719 -0.6826,0.5373c-0.4649,-0.0554 -0.6611,-0.4031 -0.5849,-1.0429l0.4467,-3.7489c0.09,-0.755 0.366,-1.0767 0.8238,-0.9618c0.2971,-0.0249 0.4614,0.1768 0.5474,0.5971c0.1001,0.4887 0.4081,0.754 0.873,0.8094l11.8567,1.4128c0.3497,0.0417 0.6174,-0.1689 0.8677,-0.602c0.1969,-0.3408 0.4976,-0.4725 0.8472,-0.4309c0.4191,-0.067 0.582,0.3071 0.4854,1.1178l-0.4467,3.7489c-0.0762,0.6397 -0.3189,0.9352 -0.7243,0.8869c-0.3495,-0.0416 -0.5855,-0.2772 -0.712,-0.7035c-0.1265,-0.4262 -0.3625,-0.6617 -0.7121,-0.7034l-4.4444,-0.5296l-0.9245,7.7583l4.4445,0.5295c0.3496,0.0417 0.617,-0.173 0.868,-0.6057c0.1958,-0.3375 0.4972,-0.4688 0.8468,-0.4271c0.4196,-0.0708 0.5825,0.3032 0.4854,1.1177l-0.4467,3.749c-0.0762,0.6397 -0.3189,0.9351 -0.7243,0.8868c-0.3495,-0.0416 -0.5848,-0.2774 -0.7116,-0.7071c-0.1258,-0.4264 -0.3625,-0.6618 -0.7121,-0.7035zm-3.6751,20.1672c-5.334,0.7996 -8.7996,-1.9767 -9.569,-7.3126c-0.7688,-5.3323 1.7755,-8.9447 7.1139,-9.7144c5.2236,-0.7531 8.8571,1.9578 9.6573,7.2961c0.7913,5.2788 -1.9196,8.939 -7.2022,9.7309zm-0.5137,-3.5626c4.4101,-0.6359 6.6811,-2.8732 6.2368,-5.955c-0.4518,-3.1335 -3.2576,-4.586 -7.6651,-3.9505c-4.5224,0.6521 -6.7734,2.8373 -6.3221,5.9673c0.4439,3.0782 3.2255,4.5906 7.7504,3.9382zm-5.3469,13.1588l-0.9241,-2.6528c-0.2686,-0.7711 -0.1661,-1.1872 0.2904,-1.3069c0.2826,-0.0741 0.5433,0.0913 0.8401,0.5443c0.3635,0.5547 0.7835,0.7463 1.2256,0.5923l11.2762,-3.9278c0.3325,-0.1158 0.4579,-0.5054 0.4297,-1.169c-0.0237,-0.5562 0.1539,-0.8905 0.4863,-1.0063c0.3325,-0.1158 0.6653,0.0424 0.8401,0.5443l1.0965,3.148c1.1983,-0.2945 -1.2939,3.6752 -7.4756,11.9008l8.2909,-2.888c0.3324,-0.1158 0.4913,-0.4253 0.5147,-0.9249c0.0208,-0.4441 0.2117,-0.7243 0.5442,-0.8401c0.3474,-0.2439 0.6577,0.0208 0.9275,0.7954l0.7504,2.1541c0.2119,0.6083 0.1233,0.9803 -0.2622,1.1146c-0.3325,0.1158 -0.6492,-0.028 -0.978,-0.405c-0.2922,-0.3351 -0.6159,-0.4359 -0.9483,-0.3201l-12.2701,4.2741c-0.9441,0.3288 -1.3737,0.2706 -1.5594,-0.4801c-0.1259,-0.5091 -0.2435,-0.8778 -0.0986,-1.0802l9.1296,-12.7546l-0.0284,-0.0814l-10.1159,3.5238c-0.4457,0.1552 -0.6891,0.4515 -0.6491,1.0629c0.0315,0.4823 -0.0738,0.7674 -0.3497,0.8635c-0.4421,0.154 -0.7709,-0.0726 -0.9828,-0.6809zm19.1053,19.3326l2.3075,3.5257c0.5128,0.7834 0.5748,1.3024 0.1831,1.5588c-0.0501,0.0328 -0.4755,0.2373 -1.2716,0.6219c-0.85,0.4106 -1.2552,0.6469 -1.2244,0.6939c-0.4889,0.32 -1.0543,0.7457 -1.668,1.3021c-0.2209,0.2004 -0.3425,0.3316 -0.3895,0.3624c-1.9646,-0.1153 -4.1277,-1.5316 -6.0263,-4.5565c-3.0205,-4.8126 -2.3926,-9.2018 2.0018,-12.0088c4.4544,-2.8454 9.049,-1.791 12.3197,2.9487c2.1339,3.0923 2.4141,5.6627 1.2598,6.4183l-1.5419,1.0092c-0.4387,0.2871 -0.7624,0.2154 -1.0469,-0.1564c-0.1808,-0.2362 -0.1019,-0.5077 0.2056,-0.9717c1.1713,-1.7673 1.2142,-3.6317 -0.0306,-5.3337c-2.079,-2.8425 -5.3994,-3.357 -9.1966,-0.9058c-3.6964,2.3861 -4.4989,5.5304 -2.7241,8.4975c1.1728,1.9608 2.8541,2.3309 4.7131,1.1141l1.1753,-0.7692c0.5913,-0.387 0.634,-1.0107 -0.029,-1.973c-0.7659,-1.1114 -0.8806,-1.7693 -0.2779,-2.025c0.3609,-0.3034 0.7788,-0.0889 1.2609,0.6475zm17.1768,18.6722c-2.789,3.1634 -6.2547,3.6572 -9.799,2.055c0.2896,0.9827 0.7718,1.8396 1.4658,2.5516c0.1229,0.126 0.3489,0.3195 0.707,0.532c0.365,0.2166 0.6169,0.4021 0.7676,0.5933c0.3267,0.4145 0.4151,0.9274 -0.009,1.4262c-0.4936,0.581 -1.4299,0.3825 -2.4452,-0.5896c-1.5659,-1.4994 -2.1818,-3.4543 -2.019,-5.6976c-0.2551,-0.1545 -0.4984,-0.3221 -0.707,-0.532c-3.7978,-3.8211 -4.2491,-8.0686 -0.5849,-12.0263c3.5855,-3.8727 8.1153,-4.0525 12.0968,-0.4075c3.937,3.6044 4.0592,8.0881 0.5266,12.0949l0.0003,0zm-2.6412,-2.4454c2.9798,-3.3127 3.384,-6.4375 1.0993,-8.5529c-2.3232,-2.1508 -5.4177,-1.5139 -8.443,1.7537c-3.1042,3.3528 -3.3551,6.3418 -1.1579,8.6161c0.2203,-0.7506 0.63,-1.4083 1.1649,-2.0301c0.5364,-0.6235 0.9639,-0.7818 1.3486,-0.4256c0.3436,0.3181 0.282,0.7766 -0.1936,1.3724c-0.513,0.6428 -0.8202,1.2773 -0.9234,1.9015c2.1866,0.8249 4.6767,0.0646 7.1051,-2.6351zm12.9286,2.0738l-6.8139,9.8057c-0.2671,0.3844 -0.3023,0.7803 -0.0449,1.141c0.2472,0.3463 0.3206,0.615 0.154,0.8549c-0.2672,0.3845 -0.691,0.3774 -1.2662,-0.0223l-3.1004,-2.1545c-0.6243,-0.4338 -0.7614,-0.8136 -0.4624,-1.1788c0.185,-0.2261 0.4276,-0.309 0.7811,-0.2052c0.533,0.1564 0.9311,0.045 1.1983,-0.3395l6.8138,-9.8057c0.2009,-0.2891 0.1598,-0.6369 -0.1242,-1.0486c-0.284,-0.4117 -0.3036,-0.7446 -0.0534,-0.9995c0.1837,-0.3695 0.5904,-0.3378 1.2148,0.0961l3.1004,2.1544c0.5752,0.3997 0.7467,0.7698 0.5138,1.1051c-0.2009,0.2891 -0.5197,0.3868 -0.9554,0.2984c-0.4357,-0.0884 -0.7545,0.009 -0.9554,0.2985zm0.3508,16.4201l-2.5704,-1.1334c-0.7471,-0.3295 -0.9815,-0.6882 -0.7577,-1.1037c0.1384,-0.2572 0.4372,-0.335 0.9709,-0.2432c0.6536,0.1124 1.0802,-0.064 1.2692,-0.4924l4.8176,-10.9256c0.1421,-0.3222 -0.0573,-0.6796 -0.5619,-1.1115c-0.4229,-0.362 -0.5463,-0.7199 -0.4043,-1.042c0.1421,-0.3222 0.4847,-0.4576 0.971,-0.2432l3.0501,1.345c0.6019,-1.0773 1.8055,3.4528 3.6054,13.5836l3.5422,-8.0331c0.1421,-0.3222 0.024,-0.6494 -0.3254,-1.0073c-0.3106,-0.318 -0.3853,-0.6488 -0.2432,-0.9709c0.0585,-0.4204 0.4637,-0.4668 1.2143,-0.1359l2.0871,0.9203c0.5895,0.2599 0.8011,0.5784 0.6364,0.952c-0.1421,0.3221 -0.4633,0.4556 -0.9632,0.439c-0.4443,-0.0148 -0.7389,0.1531 -0.8809,0.4752l-5.2423,11.8887c-0.4034,0.9147 -0.7389,1.1893 -1.4146,0.813c-0.4582,-0.2551 -0.8081,-0.4205 -0.8573,-0.6645l-3.1017,-15.3756l-0.0788,-0.0347l-4.322,9.8015c-0.1905,0.4318 -0.1398,0.8119 0.3347,1.1996c0.3742,0.3058 0.5109,0.5774 0.393,0.8446c-0.1889,0.4284 -0.5788,0.5144 -1.1682,0.2545zm27.3837,-0.0819l4.1091,0.9332c0.9131,0.2074 1.3182,0.5376 1.2146,0.9941c-0.0133,0.0584 -0.1773,0.501 -0.4828,1.3307c-0.3261,0.8859 -0.4535,1.3373 -0.3987,1.3498c-0.1294,0.5698 -0.2404,1.2687 -0.2953,2.0953c-0.0198,0.2976 -0.0161,0.4765 -0.0285,0.5313c-1.4933,1.2817 -4.0332,1.7655 -7.5001,0.9084c-5.5159,-1.3636 -8.1132,-4.9571 -6.9021,-10.0289c1.2276,-5.1411 5.2652,-7.5743 10.9104,-6.4369c3.6831,0.7421 5.6702,2.3965 5.3647,3.7419l-0.4081,1.797c-0.1161,0.5113 -0.3987,0.6845 -0.8617,0.6147c-0.2941,-0.0443 -0.4259,-0.2944 -0.527,-0.8418c-0.3852,-2.0849 -1.6494,-3.4559 -3.7272,-3.8154c-3.4701,-0.6005 -6.216,1.3359 -7.2447,5.7369c-1.0014,4.2841 0.6055,7.1035 3.9433,8.0049c2.2057,0.5958 3.6722,-0.3059 4.1643,-2.4726l0.3111,-1.3697c0.1565,-0.6891 -0.2461,-1.1675 -1.3915,-1.3991c-1.3229,-0.2675 -1.8624,-0.6611 -1.6065,-1.2637c0.0489,-0.4689 0.4984,-0.605 1.3567,-0.4101zm22.9815,-6.2811l3.9177,-0.9768c0.527,-0.0697 0.8594,0.0559 0.9991,0.3839c0.0996,0.3998 -0.0913,0.7176 -0.5757,0.9581c-0.3099,0.1969 -0.4453,0.3812 -0.4028,0.552c0.4087,3.0944 0.8821,5.7209 1.4204,7.8796c0.8516,3.6479 2.7665,5.0426 5.7467,4.176c2.8383,-0.7077 3.8779,-2.7155 3.1115,-6.0217c-0.2955,-0.9531 -0.7071,-2.356 -1.2328,-4.2168c-0.5512,-1.7309 -0.9184,-2.8475 -1.1034,-3.3418c-0.1978,-0.3136 -0.5811,-0.5191 -1.1506,-0.6203c-0.5104,-0.1121 -0.771,-0.3211 -0.7872,-0.6182c-0.0988,-0.3961 0.0513,-0.6459 0.4474,-0.7446l3.3217,-0.8282c0.4688,-0.0551 0.7467,0.084 0.8319,0.4256c0.0571,0.229 -0.0648,0.4678 -0.3639,0.7238c-0.3971,0.3422 -0.5373,0.74 -0.424,1.1943c0.0281,0.1127 0.1196,0.4797 0.2754,1.1048c0.6503,1.6483 1.2804,3.5718 1.8904,5.7706c1.1472,4.6009 -0.6379,7.4895 -5.3479,8.6638c-4.4582,0.9919 -7.2616,-0.4515 -8.4092,-4.3267c-0.2836,-1.1375 -0.5715,-2.6638 -0.871,-4.5771c-0.2405,-1.6925 -0.4214,-2.9136 -0.5509,-3.6649c-0.0707,-0.2835 -0.3594,-0.4817 -0.8708,-0.5974c-0.4278,-0.013 -0.6485,-0.1703 -0.661,-0.4683c-0.0988,-0.3961 0.1639,-0.6739 0.789,-0.8297zm26.2925,9.4756l-2.546,1.1872c-0.74,0.345 -1.186,0.2926 -1.3295,-0.157c-0.1235,-0.2648 0.0287,-0.5589 0.4566,-0.8907c0.5077,-0.4268 0.6635,-0.8549 0.4656,-1.2792l-5.0463,-10.8219c-0.1488,-0.3191 -0.5515,-0.4206 -1.2064,-0.3095c-0.553,0.0637 -0.9014,-0.0632 -1.0502,-0.3822c-0.1488,-0.3191 0.003,-0.6133 0.4566,-0.8907l3.0212,-1.4088c-0.414,-1.1625 3.7871,0.9161 12.5948,6.2357l-3.7103,-7.9569c-0.1488,-0.3191 -0.4735,-0.457 -0.9722,-0.4186c-0.4444,0.013 -0.7419,-0.1376 -0.8907,-0.4567c-0.2778,-0.3209 -0.0458,-0.6564 0.6977,-1.0031l2.0673,-0.964c0.5838,-0.2723 0.9628,-0.2217 1.1353,0.1483c0.1488,0.3191 0.0458,0.6565 -0.3041,1.0139c-0.2956,0.3321 -0.3716,0.6567 -0.2227,0.9758l5.4911,11.7758c0.5281,0.8489 0.4229,1.3856 -0.3202,1.5999c-0.4753,0.2216 -0.8308,0.2923 -1.0647,0.2072l-13.6112,-7.7951l-0.0781,0.0364l4.5271,9.7085c0.1436,0.4496 0.5173,0.6308 1.1231,0.5384c0.475,-0.0892 0.7709,-0.004 0.8944,0.2607c0.1978,0.4243 0.006,0.7743 -0.5782,1.0466zm10.0485,-21.648l7.0186,9.6602c0.2751,0.3788 0.6311,0.5183 1.0627,0.4177c0.4007,-0.143 0.6863,-0.1004 0.858,0.1359c0.2752,0.3788 0.1291,0.7767 -0.4376,1.1883l-3.0544,2.2192c-0.6151,0.4469 -1.0387,0.463 -1.2654,0.049c-0.1717,-0.2364 -0.1482,-0.5035 0.0632,-0.8052c0.326,-0.4498 0.3488,-0.8645 0.0736,-1.2433l-7.0186,-9.6602c-0.2069,-0.2848 -0.5489,-0.3604 -1.0311,-0.2277c-0.4823,0.1328 -0.8031,0.0418 -0.9615,-0.2783c-0.2885,-0.295 -0.1247,-0.6686 0.4904,-1.1155l3.0544,-2.2192c0.5667,-0.4117 0.9726,-0.452 1.2126,-0.1217c0.2069,0.2848 0.1944,0.618 -0.0325,1.0004c-0.2268,0.3824 -0.2393,0.7156 -0.0324,1.0004zm10.3116,-11.7606l2.0853,-2.0138c0.5024,-0.4019 0.8746,-0.4801 1.1192,-0.2269c0.2445,0.2533 0.3216,0.5434 0.2337,0.873c-0.1297,0.4533 -0.0347,0.9291 0.2849,1.4327c0.0429,0.1252 0.1395,0.3547 0.3006,0.6886c2.6062,4.7208 4.2941,8.7871 5.0637,12.1938c0.0676,0.8302 -0.172,1.5095 -0.719,2.0376c-0.6305,0.6089 -1.2147,0.845 -1.7501,0.7112c-3.6671,-0.8481 -7.9195,-2.766 -12.7494,-5.7455c-0.5741,-0.3411 -1.1303,-0.4965 -1.6712,-0.4636c-0.288,-0.0447 -0.5347,-0.1762 -0.7376,-0.3863c-0.2836,-0.2937 -0.2381,-0.624 0.1418,-0.9909l2.9691,-2.8672c0.4203,-0.4059 0.7951,-0.4815 1.1191,-0.2268c0.203,0.2101 0.2402,0.5022 0.112,0.8708c-0.1339,0.5354 -0.0408,0.9714 0.2844,1.3082c2.4104,1.8221 6.0858,3.563 11.0235,5.22c-1.4848,-5.0747 -3.2001,-8.7866 -5.143,-11.1383c-0.3252,-0.3367 -0.7221,-0.3649 -1.1799,-0.0841c-0.4175,0.2417 -0.7902,0.1954 -1.1154,-0.1413c-0.203,-0.2102 -0.0935,-0.5606 0.3283,-1.0512zm23.2903,-3.6055l-6.1936,8.8455c-0.4362,0.6228 -0.8314,0.7759 -1.1805,0.4582c-0.2393,-0.1675 -0.3041,-0.4277 -0.2025,-0.7818c0.1275,-0.4824 -0.001,-0.8604 -0.3846,-1.129l-9.7812,-6.8488c-0.2884,-0.202 -0.6385,-0.1591 -1.0512,0.1235c-0.344,0.1843 -0.6598,0.1781 -0.9482,-0.0238c-0.3688,-0.1851 -0.3356,-0.5916 0.1005,-1.2145l5.8907,-8.4128c0.4273,-0.9171 1.3187,-0.8645 2.6772,0.1599c0.3952,0.3499 0.5047,0.6049 0.3224,0.7608c-0.101,0.1442 -0.2897,0.2635 -0.5671,0.3527c-0.2942,0.009 -0.6766,0.0978 -1.1522,0.2678c-0.344,0.1843 -0.6905,0.4767 -1.0425,0.8749c-0.2832,0.3001 -0.743,0.9109 -1.3789,1.8191c-1.3537,1.6264 -1.4269,2.6451 -0.2207,3.0644l3.0221,2.1161l2.2665,-3.2368c0.2685,-0.3836 0.4002,-0.8263 0.3972,-1.3314c-0.0601,-0.3256 -0.037,-0.5609 0.0639,-0.7051c0.2342,-0.3344 0.7604,-0.2175 1.5735,0.3519c1.0876,0.693 1.4288,1.1787 1.016,1.4613c-0.1009,0.1442 -0.2755,0.2368 -0.5207,0.2801c-0.5364,0.0542 -0.9737,0.3196 -1.3088,0.7982l-2.2665,3.2369l3.3074,2.3159c1.6286,1.3506 2.6301,1.4483 3.0172,0.2882c1.9924,-2.7475 2.7954,-4.5081 2.4067,-5.2786c-0.2767,-0.6235 -0.3141,-1.0795 -0.1121,-1.3679c0.2489,-0.251 0.5818,-0.2693 0.9997,-0.0499c1.4712,0.9616 1.8884,1.8938 1.2503,2.805zm4.7859,-9.3602l-1.5356,3.449c-0.3092,0.6946 -0.668,0.9203 -1.0713,0.6751c-0.2669,-0.1188 -0.3801,-0.3619 -0.3479,-0.7289c0.033,-0.4977 -0.1653,-0.8443 -0.593,-1.0348l-10.9083,-4.8567c-0.3217,-0.1432 -0.6571,-0.0342 -1.0084,0.3219c-0.3025,0.2466 -0.6136,0.3008 -0.9353,0.1576c-0.3973,-0.1113 -0.4423,-0.5168 -0.133,-1.2114l3.0347,-6.816c1.5478,-3.4764 3.5535,-4.6662 6.0102,-3.5724c1.5013,0.7997 2.1757,2.3791 2.0201,4.7452l0.0821,0.0366c1.8173,-0.343 4.1415,-0.5259 6.969,-0.5503c0.4236,0.0615 0.8728,-0.0911 1.353,-0.4513c0.3284,-0.3048 0.6277,-0.397 0.8946,-0.2782c0.3486,0.2208 0.453,0.4928 0.3098,0.8144l-2.0703,4.6501c-0.1432,0.3216 -0.403,0.3987 -0.776,0.2326c-0.2897,-0.0675 -0.4063,-0.3121 -0.3463,-0.7323c0.0371,-0.3689 -0.1069,-0.6256 -0.4285,-0.7689c-0.719,-0.2545 -2.8502,-0.1456 -6.3904,0.3283l-0.7317,2.9418l4.4106,1.9637c0.4048,0.2418 0.7935,0.1607 1.1657,-0.2517c0.2756,-0.3242 0.5442,-0.4302 0.811,-0.3113c0.4278,0.1904 0.5001,0.608 0.2152,1.2479zm-12.457,-5.2552l4.4893,1.9988c1.2708,-3.8581 0.9936,-6.1914 -0.8234,-7.0003c-1.6561,-0.7374 -3.0082,0.071 -4.0563,2.4251c-0.6185,1.3892 -0.4878,2.2469 0.3904,2.5764zm6.6235,-10.7578c-3.0236,-0.7119 -4.3492,-2.9652 -3.9805,-6.7605c0.4864,-2.413 1.3265,-4.1361 2.5173,-5.1736c0.4161,0.0125 1.0809,0.1032 2.0031,0.2657c0.5201,0.0918 0.7432,0.3365 0.6716,0.7422c-0.0605,0.343 -0.3746,0.6148 -0.9454,0.8107c-1.4951,0.3906 -2.4138,1.5673 -2.7592,3.526c-0.1907,1.7501 0.484,2.8199 2.0205,3.2087c1.2547,0.2821 2.411,-0.8832 3.4675,-3.4885c1.3992,-3.5566 3.2515,-5.1316 5.5569,-4.7251c3.395,0.9562 4.7827,3.5475 4.155,7.7763c-0.8641,3.8867 -2.5141,5.8245 -4.9457,5.8103c-0.6345,-0.1119 -0.9305,-0.4607 -0.888,-1.0465c0.0813,-0.4611 0.5683,-0.8506 1.4537,-1.1699c1.7192,-0.6477 2.7414,-1.8937 3.0666,-3.738c0.3616,-2.3741 -0.426,-3.8175 -2.3541,-4.3362c-1.2098,-0.2134 -2.3464,1.0124 -3.4133,3.6768c-1.5135,3.5364 -3.3901,5.0767 -5.626,4.6216zm0.0869,-19.8041l11.9389,0.2084c0.4681,0.008 0.7937,-0.1922 0.9731,-0.5973c0.127,-0.4062 0.3328,-0.6086 0.6249,-0.6035c0.4681,0.008 0.6979,0.3643 0.6857,1.0646l-0.0659,3.7749c-0.0133,0.7602 -0.2554,1.1081 -0.7224,1.04c-0.2921,-0.005 -0.4913,-0.1846 -0.605,-0.535c-0.1631,-0.531 -0.4806,-0.7988 -0.9487,-0.807l-11.9388,-0.2083c-0.3521,-0.006 -0.6182,0.2214 -0.8024,0.6865c-0.1842,0.465 -0.45,0.6664 -0.8009,0.6003c-0.4093,0.0528 -0.6091,-0.3028 -0.5958,-1.063l0.0659,-3.7749c0.0122,-0.7003 0.2243,-1.0487 0.6325,-1.0416c0.352,0.006 0.6106,0.2167 0.7795,0.628c0.1688,0.4112 0.4274,0.6218 0.7794,0.6279zm-0.4978,-12.1092l11.8245,-1.6618c0.4636,-0.0652 0.7497,-0.3437 0.8552,-0.8313c0.0535,-0.4803 0.2215,-0.7384 0.5108,-0.7791c0.4636,-0.0651 0.7421,0.221 0.8318,0.859l0.5739,4.0836c0.098,0.6973 -0.0908,1.0491 -0.5628,1.055c-0.2893,0.0406 -0.5183,-0.1352 -0.6938,-0.5228c-0.2441,-0.499 -0.5996,-0.7138 -1.0632,-0.6487l-11.8244,1.6618c-0.4637,0.0652 -0.6405,0.4758 -0.5346,1.2288c0.1548,1.1016 0.7269,2.0235 1.7173,2.7731c0.4731,0.4063 0.7219,0.7231 0.7547,0.9568c0.1162,0.3959 -0.093,0.6031 -0.62,0.6204c-0.2337,0.0329 -0.8248,0.0252 -1.7766,-0.0188c-0.1743,0.0245 -0.2935,0.0109 -0.3606,-0.0364c-0.4127,-0.002 -0.6573,-0.2631 -0.7308,-0.7861l-1.6978,-12.0804c-0.0573,-0.408 0.106,-0.7259 0.4858,-0.9571c0.0593,-0.008 0.1743,-0.0245 0.3486,-0.049c0.8356,-0.3519 1.4013,-0.5524 1.6906,-0.5931c0.5192,-0.073 0.7774,0.0685 0.7671,0.4255c0.1,0.281 -0.0509,0.688 -0.4493,1.2167c-0.746,0.9899 -1.0454,2.0079 -0.899,3.0501c0.1142,0.8123 0.3973,1.1583 0.8526,1.0338zm9.4848,-20.7997l1.2584,3.6548c0.2281,0.6623 0.1098,1.0436 -0.3524,1.1394c-0.2762,0.0951 -0.5235,-0.002 -0.7515,-0.2958c-0.3153,-0.3866 -0.6967,-0.5048 -1.1394,-0.3524l-3.9841,1.3718c-1.089,2.2329 -3.0354,4.852 -5.8378,7.861c-0.072,0.1476 -0.1049,0.4085 -0.1013,0.7757c-0.1085,0.4097 -0.3274,0.6713 -0.6603,0.7859c-0.386,0.1329 -0.6284,0.0618 -0.7235,-0.2144l-1.6291,-4.7314c-0.0775,-0.409 0.0381,-0.6944 0.3515,-0.8657c0.3896,-0.1342 0.7426,-0.006 1.0615,0.3792c0.1287,0.2013 0.2244,0.2951 0.2775,0.2768c1.1037,-0.7524 2.7116,-2.7321 4.8287,-5.9369c-3.989,-1.1617 -6.3261,-1.6563 -7.0114,-1.4837c-0.2763,0.0951 -0.4288,0.3655 -0.4623,0.8088c0.0391,0.4817 -0.1134,0.7521 -0.4658,0.8101c-0.3665,0.1895 -0.6466,0.009 -0.8381,-0.5473l-1.0853,-3.1519c-0.1341,-0.3895 -0.005,-0.6479 0.3808,-0.7808c0.2232,-0.0768 0.4619,-0.004 0.7235,0.2144c0.356,0.3092 0.7655,0.5089 1.2283,0.5991c1.8365,0.2946 4.4134,0.9562 7.7353,1.9752c0.3335,0.0714 0.6042,0.1327 0.8096,0.1887l4.317,-1.4865c0.4427,-0.1524 0.6802,-0.4521 0.7102,-0.8942c-0.0208,-0.4286 0.1046,-0.6857 0.3808,-0.7808c0.4427,-0.1524 0.7695,0.0718 0.9792,0.6809z"/>
   <path fill="#ffffff" fill-rule="evenodd" id="path27" d="m197.1988,243.3009c5.5737,1.4978 6.1732,9.3975 3.1038,13.3524c-1.7482,2.2526 -6.7339,2.3669 -9.141,0.7143c-0.319,-0.2105 -0.6116,-0.5073 -0.9095,-0.9022c-0.4042,-0.5357 -1.1076,-1.76 -0.1606,-2.0479c0.8347,-0.2538 2.4984,-0.406 3.1701,-0.1609c0.6604,0.241 0.773,0.9751 1.7413,1.1652c0.8548,0.1677 1.9581,-1.1981 2.0774,-2.2271c0.037,-0.3193 -0.0203,-0.4086 -0.2731,-0.4473c-0.5692,-0.0873 -1.1547,0.4876 -1.6234,0.587c-4.489,0.7585 -7.3484,-4.3355 -5.0175,-7.7239c1.6213,-2.3568 4.5195,-2.9849 7.0325,-2.3096zm-2.7577,3.6806c-0.58,1.2011 -0.2554,3.0445 1.5324,2.8993c0.5276,-0.0429 0.9062,-0.2936 1.0795,-0.6786c0.1192,-0.2092 0.1054,-0.4973 0.0553,-0.7809c-0.1069,-0.6048 -0.2128,-1.4267 -0.8304,-1.7009c-0.5896,-0.2619 -1.5451,-0.3431 -1.8368,0.2611z"/>
   <path fill="#ffffff" id="path29" d="m160.0488,294.3867c-0.4481,0.2832 -1.1074,1.0952 -1.0271,1.712c0.6537,0.2844 6.6991,0.2675 7.5324,0.0428c0.0143,-0.0286 0.0286,-0.0571 0.0428,-0.0856c-0.0342,-0.5534 -0.5572,-1.4546 -0.9843,-1.6264c-1.8544,-0.0142 -3.7094,-0.0285 -5.5638,-0.0428z"/>
   <path fill="#ffffff" id="path31" d="m154.3995,294.4295c-0.0571,0.0856 -0.1142,0.1712 -0.1712,0.2568c0.0855,0.1909 0.1264,0.2414 0.2996,0.3424c0.1751,-0.1002 0.2115,-0.1531 0.2995,-0.3424c-0.1054,-0.1947 -0.1271,-0.2442 -0.4279,-0.2568z"/>
   <path fill="#ffffff" id="path33" d="m187.14,294.5151c-0.009,0.1425 -0.0399,0.0985 0.0428,0.214c0.0285,-0.0428 0.0571,-0.0856 0.0856,-0.1284c-0.0428,-0.0285 -0.0856,-0.057 -0.1284,-0.0856z"/>
   <path fill="#ffffff" id="path35" d="m157.9517,298.0674c-0.4703,0.2967 -0.8643,0.6958 -0.8988,1.4123c0.0571,0.0999 0.1142,0.1997 0.1712,0.2996c0.7331,0.2207 1.9303,0.1284 2.8675,0.1284c1.9257,0 3.852,0 5.7778,0c1.1329,0 2.5277,0.2746 2.6106,-0.8132c-0.1515,-0.311 -0.414,-0.8454 -0.7275,-0.9843c-3.2666,-0.0143 -6.5342,-0.0285 -9.8008,-0.0428z"/>
   <path fill="#ffffff" id="path37" d="m120.4189,264.8775l0,1.7699l85.5072,0l0,-1.7699l-85.5072,0z"/>
   <path fill="#ffffff" id="path39" d="m122.227,268.5302l0,1.7065l81.3467,0l0,-1.7065l-81.3467,0z"/>
   <path fill="#ffffff" id="path41" d="m124.7869,272.2277l0,1.8962l76.4165,0l0,-1.8962l-76.4165,0z"/>
   <path fill="#ffffff" id="path43" d="m126.683,276.0201l0,1.8014l72.245,0l0,-1.8014l-72.245,0z"/>
   <path fill="#ffffff" id="path45" d="m128.7698,279.6714l0,1.8581l67.3217,0l0,-1.8581l-67.3217,0z"/>
   <path fill="#ffffff" id="path47" d="m130.5263,283.3582l0,1.8581l63.6612,0l0,-1.8581l-63.6612,0z"/>
   <path fill="#ffffff" id="path49" d="m132.2828,287.045l0,1.8581l60.0007,0l0,-1.8581l-60.0007,0z"/>
   <path fill="#ffffff" id="path51" d="m134.0393,290.7319l0,1.8581l56.3403,0l0,-1.8581l-56.3403,0z"/>
   <path fill="#ffffff" id="path53" d="m135.7958,294.4187l0,1.8581l52.6798,0l0,-1.8581l-52.6798,0z"/>
   <path fill="#ffffff" id="path55" d="m137.5523,298.1056l0,1.8581l49.0193,0l0,-1.8581l-49.0193,0z"/>
   <path fill="#ffffff" id="path57" d="m139.3088,301.7924l0,1.8581l45.3588,0l0,-1.8581l-45.3588,0z"/>
   <path fill="#ffffff" id="path59" d="m141.0654,305.4792l0,1.8581l41.6982,0l0,-1.8581l-41.6982,0z"/>
   <path fill="#ffffff" id="path61" d="m142.8219,309.1661l0,1.8581l38.0377,0l0,-1.8581l-38.0377,0z"/>
   <path fill="#ffffff" id="path63" d="m147.8932,312.8529l0,1.8581l29.427,0l0,-1.8581l-29.427,0z"/>
   <path fill="#ffffff" id="path65" d="m149.6375,316.6487l0,1.8581l25.6198,0l0,-1.8581l-25.6198,0z"/>
   <path fill="#ffffff" id="path67" d="m151.3819,320.3372l0,1.8245l21.8125,0l0,-1.8245l-21.8125,0z"/>
   <path fill="#ffffff" id="path69" d="m153.1263,323.9323l0,1.8581l18.0052,0l0,-1.8581l-18.0052,0z"/>
   <path fill="#ffffff" id="path71" d="m155.1788,327.7281l0,1.8581l14.1979,0l0,-1.8581l-14.1979,0z"/>
   <path fill="#ffffff" id="path73" d="m156.9232,331.5239l0,1.7669l10.3906,0l0,-1.7669l-10.3906,0z"/>
   <path fill="#ffffff" id="path75" d="m159.3946,335.097l0,2.7329l6.5834,0l0,-2.7329l-6.5834,0z"/>
   <path fill="#ffffff" fill-rule="evenodd" id="path77" d="m99.7272,235.8896l125.9784,0.0956l-62.9184,109.6226l-63.06,-109.7182zm46.6374,73.1353l6.0087,-10.2511l-5.0313,-8.0197l-1.9453,0.0108l-4.7374,8.3109l5.7053,9.9491zm8.1961,-13.9828l8.2277,-13.5369l8.0478,13.6083l8.1359,-13.5673l8.1048,13.6082l31.4919,-54.828l-111.65,-0.0885l31.3212,54.6191l8.1528,-13.317l8.1679,13.5021zm18.4857,3.9459l5.8939,10.3322l5.8224,-10.1368l-4.9609,-8.4522l-1.67,0.005l-5.0854,8.2518zm3.5771,14.3659l-5.9488,-10.443l-7.8313,12.9528l-8.0314,-13.1094l-6.0499,10.4514l13.9619,24.3474l13.8995,-24.1992zm-8.1064,-14.2307l-4.869,-8.3723l-1.7882,0.003l-4.9323,8.3455l5.8264,9.988l5.7631,-9.9642z"/>
   <path fill="#ffffff" fill-rule="evenodd" id="path79" d="m164.486,378.144c-58.979,0 -107.0825,-48.1034 -107.0825,-107.0824c0,-58.979 48.1035,-107.0824 107.0825,-107.0824c58.979,0 107.0824,48.1034 107.0824,107.0824c0,58.979 -48.1034,107.0824 -107.0824,107.0824zm0,-7.3141c-54.9505,0 -99.7683,-44.8178 -99.7683,-99.7683c0,-54.9505 44.8178,-99.7683 99.7683,-99.7683c54.9505,0 99.7683,44.8178 99.7683,99.7683c0,54.9505 -44.8178,99.7683 -99.7683,99.7683z"/>
   <path fill="#ffffff" fill-rule="evenodd" id="path81" d="m117.1864,236.0517l10.1549,-9.4523c0,0 1.7244,-1.5967 3.0017,0.1277c0.7793,1.0521 1.5615,2.1961 2.4151,3.1983c0.4059,0.4767 1.2595,1.1481 2.5086,0.2173c1.738,-1.2952 4.3559,-2.8135 5.3778,-3.1967c1.0218,-0.3833 2.3442,-0.5382 1.7055,-2.0071c-0.6387,-1.469 -1.5328,-3.385 -1.5328,-3.385c0,0 -1.2135,-2.0437 1.3412,-2.7462c2.5547,-0.7026 10.1187,-3.1059 12.6716,-3.2333c2.553,-0.1275 3.0919,-0.239 3.3384,1.6798c0.1463,1.1393 0.3909,2.8763 0.5979,3.9517c0.1467,0.7622 0.6843,1.137 1.4523,1.0088c2.0201,-0.3371 4.7921,-0.0412 7.0094,0.0709c0.7162,0.0362 1.6855,-0.0673 1.8349,-1.6188c0.0946,-0.9814 0.1694,-1.9782 0.2322,-2.9441c0.1222,-1.8803 0.1362,-2.2728 2.5044,-2.1604c4.6573,0.2209 9.4089,1.9969 11.6779,2.9317c2.3278,0.9589 4.203,1.2142 2.76,4.3726c-0.4122,0.9022 -0.6575,1.818 -0.8642,2.2623c-0.7627,1.6382 -0.6984,1.82 0.9551,2.5706c1.6183,0.7346 3.7751,2.2423 3.9388,2.3512c0.1638,0.1088 1.4305,1.5603 2.5454,0.1937c0.4477,-0.5489 1.3864,-1.6736 2.4346,-2.9079c1.0387,-1.2232 1.4,-1.7487 3.0374,-0.5324c1.7376,1.2907 7.3396,5.3763 10.1317,9.9002c2.7921,4.5238 -13.3339,1.8622 -13.3339,1.8622l-77.7524,-0.4043l-0.1435,-2.1105zm10.8478,-3.4323l0.5844,0l0,0.3878l-0.005,0l0,0.202l-0.4013,0l0,-0.202l-0.1777,0l-0.0004,-0.3878zm-2.2967,2.877l0.4264,0l0,0.4055l-0.4264,0l0,-0.4055zm13.9692,-4.5212l0.4175,0l0,0.3873l-0.4175,0l0,-0.3873zm17.2589,-1.4559l-0.625,0l0,-0.2006l0.216,0l0,-0.2084l0.409,0l0,0.2084l0,0.0231l0,0.1775zm-0.7948,0.0154l0.5864,0l0,0.1929l-0.5864,0l0,-0.1929zm42.4987,1.6425l-0.4004,0l0,0.1945l0.2288,0l0,0.2059l0.1831,0l0,0.2288l0.4233,0l0,-0.3203l-0.0229,0l0,-0.1259l-0.4119,0l0,-0.183zm-0.2173,-0.1716l-0.3661,0l0,0.1601l0.3661,0l0,-0.1601zm-1.0182,-0.4805l0.4233,0l0,0.2517l0.1945,0l0,0.1944l-0.3318,0l0,-0.0572l-0.286,0l0,-0.3889zm0.839,5.1763l0.2071,0l0,0.2011l-0.2071,0l0,-0.2011zm-2.6583,-1.2264l0.1998,0l0,0.1926l0.1926,0l0,0.4066l-0.2069,0l0,-0.2069l-0.1855,0l0,-0.3923zm-1.0343,-0.8417l0.6206,0l0,0.6206l-0.6206,0l0,-0.6206zm6.3264,-0.6l0.4544,0l0,0.418l-0.4544,0l0,-0.418zm-46.8166,1.219l0.4408,0l0,0.597l-0.4408,0l0,-0.597zm6.5937,-9.0316l0.2147,0l0,0.4123l-0.2147,0l0,-0.4123zm0.0003,1.2346l0.3949,0l0,0.3857l-0.3949,0l0,-0.3857zm-1.6625,1.0289l0.4259,0l0,0.5857l-0.4259,0l0,-0.5857zm-4.5108,-8.6487l0.2054,0l0,0.3879l-0.2054,0l0,-0.3879zm-8.0249,1.0345l0.4107,0l0,-0.2054l0.2206,0l0,-0.1902l0.175,0l0,0.1902l0.2129,0l0,0.3956l-0.2053,0l0,0.2053l-0.8139,0l0,-0.3955zm6.1485,-1.0102l-0.3669,0l0,0.2014l0.3669,0l0,-0.2014zm-0.5743,-0.416l0.3865,0l0,0.4037l-0.3865,0l0,-0.4037zm-2.0673,0.6096l0.4163,0l0,1.4306l-0.4163,0l0,-1.4306zm22.8046,13.3597l0.1739,0l0,-0.2065l0.6576,0l0,0.3804l-0.2065,0l0,0.2283l-0.625,0l0,-0.4022zm-2.2556,0.8316l0.6142,0l0,0.1576l0.2011,0l0,0.2282l-0.2011,0l0,0.2174l-0.4348,0l0,-0.2228l-0.1794,0l0,-0.3804zm1.235,1.012l0.4121,0l0,0.01l0.5985,0l0,0.4029l-0.4029,0l0,0.1998l-0.1956,0l0,0.8274l-0.4121,0l0,-1.4401zm4.1039,1.2423l0.6096,0l0,-0.2044l0.4089,0l0,0.2044l0.004,0l0,0.1968l-0.004,0l0,0.2083l-0.4089,0l0,-0.0126l-0.4055,0l0,-0.1957l-0.2041,0l0,-0.1968zm2.4583,-0.8291l0.2078,0l0,0.1966l-0.2078,0l0,-0.1966zm5.9609,-0.186l-0.1922,0l0,0.3987l0.1922,0l0,-0.3987zm-0.6101,-0.221l0.4083,0l0,0.3987l-0.4083,0l0,-0.3987zm-0.6198,-0.4132l0.4132,0l0,0.2066l0.2018,0l0,0.2066l-0.2787,0l0,-0.01l-0.3363,0l0,-0.4032zm-3.9084,1.2323l0.6296,0l0,0.4129l-0.6296,0l0,-0.4129zm-52.5928,-2.9134c-0.3692,0.077 -0.373,0.2644 0,0.3423c0.373,0.0779 0.327,-0.0197 0.4302,-0.0428c0.1032,-0.0231 0.119,-0.0489 0.1435,-0.0856c0.0245,-0.0366 0.1115,-0.0867 0,-0.1283c-0.1116,-0.0417 -0.2045,-0.1627 -0.5737,-0.0856zm39.5572,3.4991c-0.0142,0.0286 -0.0285,0.0571 -0.0428,0.0856c0.0571,0.0143 0.1142,0.0286 0.1712,0.0428c0,-0.0142 0,-0.0285 0,-0.0428c-0.0428,-0.0285 -0.0856,-0.057 -0.1284,-0.0856zm-13.6525,-0.2996c-0.0714,0.0428 -0.1427,0.0856 -0.214,0.1284c-0.0143,0.0428 -0.0286,0.0856 -0.0428,0.1284c0.0427,0.0856 0.0856,0.1712 0.1284,0.2568c0.5319,0.085 1.6069,0.1591 1.8831,-0.1712c-0.0571,-0.0856 -0.1142,-0.1712 -0.1712,-0.2568c-0.6718,0.0137 -0.9793,-0.0529 -1.5835,-0.0856zm9.7579,-0.1283c-0.2768,0.1288 -0.7143,0.115 -0.9415,0.2567c0,0.0571 0,0.1142 0,0.1712c0.0427,0.0571 0.0856,0.1142 0.1283,0.1712c0.4578,0.1194 0.87,0.0765 1.1984,-0.1284c0.0285,-0.0856 0.0571,-0.1712 0.0856,-0.2568c-0.0285,-0.0713 -0.0571,-0.1426 -0.0856,-0.2139c-0.1284,0 -0.2568,0 -0.3852,0zm-14.2518,0c-0.0428,0.057 -0.0856,0.1141 -0.1283,0.1711c0.057,0.1284 0.1141,0.2568 0.1711,0.3852c0.1712,0.0428 0.3425,0.0856 0.5136,0.1284c0.1641,-0.1195 0.2085,-0.087 0.2568,-0.3424c-0.0428,-0.057 -0.0856,-0.1141 -0.1284,-0.1712c-0.2282,-0.057 -0.4565,-0.1141 -0.6848,-0.1711zm33.7414,-0.1266c-0.0341,0.1193 -0.0682,0.2387 -0.1023,0.358c0.1363,0.1534 0.2727,0.3069 0.4091,0.4603c0.0853,0 0.1705,0 0.2557,0c0.0341,-0.0682 0.0682,-0.1364 0.1023,-0.2046c-0.1704,-0.2045 -0.341,-0.4091 -0.5114,-0.6137c-0.0511,0 -0.1023,0 -0.1534,0zm10.7259,-0.002c-0.0984,0.1192 -0.1755,0.1865 -0.1284,0.3423c0.057,0.1142 0.1141,0.2283 0.1712,0.3424c0.1611,0.051 0.3297,0.1224 0.5136,0.0428c0.0427,-0.0285 0.0856,-0.057 0.1283,-0.0856c0,-0.0428 0,-0.0856 0,-0.1284c-0.1963,-0.2488 -0.2842,-0.4573 -0.6847,-0.5135zm-47.4203,-0.214c-0.4664,0.2337 -0.7747,0.4652 -1.1128,0.8131c0,0.0143 0,0.0286 0,0.0428c0.0428,0.0286 0.0856,0.0571 0.1284,0.0856c0.4756,0.2934 1.2479,-0.0647 1.4124,-0.3852c0.0721,-0.0899 0.0662,-0.0845 0.0856,-0.2568c-0.0629,-0.0875 -0.0764,-0.1105 -0.1712,-0.1712c-0.1142,-0.0427 -0.2283,-0.0856 -0.3424,-0.1283zm-7.5753,-0.214c-0.2763,0.2682 -0.8372,0.6686 -0.9415,1.0699c0.0427,0.0286 0.0856,0.0571 0.1283,0.0856c0.1945,0.1299 0.6852,0.1004 0.9416,0.0428c0.0856,-0.0998 0.1712,-0.1997 0.2568,-0.2996c0.1032,-0.3307 0.001,-0.6462 -0.1284,-0.8559c-0.0856,-0.0143 -0.1712,-0.0286 -0.2568,-0.0428zm25.6789,-0.0428c-0.0286,0.0142 -0.0571,0.0285 -0.0856,0.0428c0,0.0285 0,0.057 0,0.0856c0.057,-0.0143 0.1141,-0.0286 0.1712,-0.0428c-0.0143,-0.0286 -0.0286,-0.0571 -0.0428,-0.0856c-0.0143,0 -0.0286,0 -0.0428,0zm-36.2982,-0.3592c-0.0249,0.2428 -0.0499,0.4856 -0.0749,0.7284c0.0749,0 0.1498,0 0.2247,0c0.0499,-0.0486 0.0999,-0.0972 0.1498,-0.1457c0,-0.1942 0,-0.3885 0,-0.5827c-0.0998,0 -0.1997,0 -0.2996,0zm6.9977,0.1495c-0.3342,0.1404 -0.7046,0.0909 -0.8131,0.4708c0.0285,0.0285 0.057,0.0571 0.0856,0.0856c0.8587,0.0678 1.0317,0.521 1.6691,0.6848c0.0142,-0.0143 0.0285,-0.0286 0.0428,-0.0428c-0.0285,-0.2568 -0.0571,-0.5136 -0.0856,-0.7704c-0.2773,-0.2128 -0.4287,-0.3819 -0.8988,-0.428zm34.479,-0.2611c-0.2544,0.6127 0.5129,0.5368 0.856,0.8132c0.3379,0.2722 0.152,1.2355 0.7704,0.6419c0.007,-0.9971 -0.8401,-1.2997 -1.6264,-1.4551zm-8.9448,0c-0.0271,0.5155 0.0476,0.7043 0.3852,0.8559c0.0713,-0.0427 0.1427,-0.0856 0.214,-0.1283c0,-0.0571 0,-0.1142 0,-0.1712c-0.1335,-0.275 -0.2936,-0.453 -0.5992,-0.5564zm-17.6756,-0.2568c-0.2381,0.4371 -0.3022,1.6502 -0.0856,1.9687c0.0286,0 0.0571,0 0.0856,0c0.87,0.1799 0.458,-0.3659 0.5136,-0.8987c0.0323,-0.3098 0.132,-0.4953 0.0428,-0.8132c-0.0999,-0.0856 -0.1997,-0.1712 -0.2996,-0.2568c-0.0856,0 -0.1712,0 -0.2568,0zm-18.5347,-0.0352c-0.3779,0.1548 -1.4965,1.558 -1.4755,1.8906c0.0209,0.3325 0.0449,0.0382 0.0922,0.0461c0.0472,0.008 0.0467,0.1296 0.1844,0c0.1378,-0.1297 0.3512,-0.5218 0.5994,-0.7378c0.2483,-0.2161 0.6273,-0.0423 0.784,-0.3228c0.1566,-0.2805 0.1934,-1.031 -0.1845,-0.8761zm66.5377,0.4016c-0.4202,0.3995 -0.551,0.1129 -0.7008,0.5104c-0.1498,0.3974 0.1167,0.746 0.3058,0.9351c0.189,0.1891 0.5088,0.3849 0.5736,-0.0311c0.0314,-0.2014 -0.0937,-0.6482 0.0175,-0.9227c0.1184,-0.2922 0.4834,-0.3171 0.548,-0.4811c0.3765,-0.9559 -0.647,-0.1029 -0.7441,-0.0106zm-3.8582,-0.6034c-0.2116,-0.0008 -0.1053,0.0667 -0.1284,0.1284c-0.0231,0.0618 -0.2291,0.0162 0,0.214c0.1665,0.1438 0.513,0.5204 0.761,0.7886c0.0361,0.039 0.0662,0.0733 0.0915,0.1032c-0.003,0.1923 0.0156,0.4382 0.0136,0.5578c-0.0009,0.054 -0.2044,-0.0152 -0.2244,0.039c-0.004,0.0522 0.003,0.0845 -0.003,0.1699c-0.003,0.0439 -0.0433,0.0185 -0.1504,0.0183c-0.0718,-0.0002 -0.0511,0.1925 -0.006,0.2197c0.0456,0.0271 0.1933,0.003 0.3129,0.002c0.0143,0 0.0286,0 0.0428,0c0.0571,0 0.1715,-0.003 0.2285,-0.003c-0.007,-0.1878 0.003,-0.5715 -0.0002,-0.8816c0.0284,-0.0262 0.0694,-0.0626 0.1346,-0.1064c0.3304,-0.2222 0.9917,-0.6704 0.9386,-0.8219c-0.0672,-0.192 -0.0923,-0.0995 -0.1284,-0.1284c-0.0361,-0.0288 -0.0637,-0.0355 -0.0856,-0.0428c-0.0219,-0.007 0.1284,-0.0142 -0.0428,0c-0.1712,0.0143 -0.6616,0.1017 -0.9843,0.0856c-0.3227,-0.016 -0.5588,-0.3415 -0.7704,-0.3424l0.0004,0zm-26.6831,-0.1482c-0.0973,0.2422 -0.0809,0.4279 0.2139,0.5136c0.0206,-0.2181 0.008,-0.2683 -0.0428,-0.4708c-0.057,-0.0142 -0.1141,-0.0285 -0.1711,-0.0428zm-27.9886,0.1988c-0.3658,0.1056 -1.597,0.1483 -1.7547,0.4047c-0.1577,0.2563 -0.0982,0.1542 0.1284,0.1868c0.2265,0.0326 1.7204,-0.1786 1.9687,-0.2491c0.2484,-0.0705 0.0935,-0.0978 0.0856,-0.1556c-0.008,-0.0579 -0.0495,-0.1213 -0.1284,-0.1557c-0.0789,-0.0345 0.0663,-0.1367 -0.2996,-0.0311zm50.6803,-0.0498c-0.4609,0.1498 -1.2215,0.125 -1.669,0.2938c0.0374,0.0855 0.0747,0.1712 0.1121,0.2567c0.355,0.0571 0.7101,0.1142 1.0651,0.1712c0.3733,-0.1346 0.5985,-0.2956 0.8969,-0.4707c0,-0.0856 0,-0.1712 0,-0.2568c-0.0004,0 -0.0008,0 -0.001,0l0,-0.2134l-0.4039,0l-0.0002,0.2192zm-24.8317,-0.363c-0.0998,0.0571 -0.1997,0.1142 -0.2995,0.1712c-0.1283,0.4113 -0.4243,1.9313 -0.214,2.2255c0.0428,0.0571 0.0856,0.1142 0.1284,0.1712c0.1283,-0.0142 0.2568,-0.0285 0.3851,-0.0428c0.0714,-0.057 0.1427,-0.1141 0.214,-0.1712c-0.0713,-0.4422 -0.1426,-0.8845 -0.214,-1.3267c0.0726,-0.3458 0.3251,-0.5205 0.2568,-0.9416c-0.0855,-0.0285 -0.1712,-0.057 -0.2568,-0.0856zm7.6609,-0.1284c-0.1133,0.1439 -0.7553,0.9171 -0.642,1.1556c0.3733,0.7858 1.7838,-0.5845 1.8831,-0.7704c0,-0.0142 0,-0.0285 0,-0.0428c-0.2681,-0.2704 -0.6882,-0.3534 -1.2411,-0.3424zm-28.5891,0c-0.2521,0.2326 -0.4694,0.493 -0.3852,0.9416c0.057,0.0285 0.1141,0.0571 0.1712,0.0856c0.3728,-0.0558 0.615,-0.2072 0.8559,-0.3852c-0.0142,-0.1141 -0.0285,-0.2283 -0.0428,-0.3424c-0.0855,-0.0998 -0.1712,-0.1997 -0.2567,-0.2996c-0.1142,0 -0.2283,0 -0.3424,0zm7.7464,-0.3851c-0.0713,0.057 -0.1426,0.1141 -0.214,0.1711c0.0143,0.0999 0.0286,0.1998 0.0428,0.2996c0.0143,0 0.0286,0 0.0428,0c0.0571,-0.0142 0.1142,-0.0285 0.1712,-0.0428c0.1732,-0.0848 0.1858,-0.1087 0.214,-0.3424c-0.0856,-0.0285 -0.1712,-0.057 -0.2568,-0.0855zm23.8386,-0.2568c-0.1712,0.1284 -0.3424,0.2568 -0.5136,0.3852c0,0.057 0,0.1141 0,0.1711c0.2425,0.1427 0.4851,0.2854 0.7275,0.428c0.1931,-0.1921 0.2536,-0.4112 0.1712,-0.7703c-0.0713,-0.0571 -0.1426,-0.1142 -0.2139,-0.1712c-0.0571,-0.0143 -0.1142,-0.0286 -0.1712,-0.0428zm20.1579,-0.2996c-0.0286,0.0142 -0.0571,0.0285 -0.0856,0.0428c0.0216,0.2828 0.1011,0.4497 0.2996,0.5564c0.0428,0.0142 0.0856,0.0285 0.1284,0.0427c0.0428,-0.057 0.0856,-0.1141 0.1284,-0.1711c0,-0.0143 0,-0.0286 0,-0.0428c-0.1512,-0.2134 -0.2161,-0.3114 -0.4708,-0.428zm-49.3034,-0.0428c-0.0276,0.1133 0.4272,1.726 0.5563,1.9259c0.0571,0 0.1142,0 0.1712,0c0.0571,-0.0428 0.1142,-0.0856 0.1712,-0.1284c0.1561,-0.6821 -0.1815,-1.7089 -0.8987,-1.7975zm16.2307,-0.0975c-0.0779,0.5274 0.7071,0.9942 1.1556,0.7275c-0.007,-0.2953 -0.0583,-0.3111 -0.1712,-0.4708c-0.333,-0.1068 -0.5297,-0.2434 -0.9844,-0.2567zm-25.1136,-0.282c-0.1294,0.023 -0.3014,0.0864 -0.3611,0.1712c-0.0596,0.0848 0.0295,0.1913 0.0602,0.2568c0.0307,0.0656 0.0158,0.1119 0.1203,0.1284c0.1045,0.0165 0.2965,-0.006 0.4212,-0.0428c0.1247,-0.0369 0.2757,-0.0728 0.3009,-0.1712c0.0251,-0.0984 -0.0779,-0.2347 -0.1806,-0.2996c-0.1026,-0.0649 -0.2316,-0.0658 -0.3609,-0.0428zm27.4144,-0.3909c-0.0285,0.0856 -0.057,0.1712 -0.0856,0.2568c0.0143,0.0285 0.0286,0.0571 0.0428,0.0856c0.1427,0.0428 0.2854,0.0856 0.428,0.1284c0.0286,-0.0428 0.0571,-0.0856 0.0856,-0.1284c-0.0856,-0.1141 -0.1712,-0.2283 -0.2568,-0.3424c-0.0713,0 -0.1426,0 -0.214,0zm18.1036,-0.1284c-0.2946,0.3129 0.1602,0.9583 -0.0428,1.7975c-0.203,0.8393 -1.5694,1.8124 -1.4551,2.3539c0.1143,0.5416 -0.0147,0.1462 0.1712,0c0.1859,-0.1461 0.8573,-0.4643 1.1127,-0.7275c0.2554,-0.2633 0.6013,-2.9152 0.5136,-3.2527c-0.0877,-0.3375 -0.1176,-0.1406 -0.1712,-0.1712c-0.0536,-0.0306 0.1662,-0.3128 -0.1284,0zm4.665,0.0942c-0.2328,0.156 0.2119,0.8881 -0.3852,1.1983c-0.597,0.3103 -1.4678,-0.3041 -1.7547,-0.5564c-0.2869,-0.2522 -0.1492,0.0213 -0.214,0.0429c-0.0647,0.0215 -0.1455,-0.0001 -0.1712,0.0855c-0.0256,0.0857 -0.0535,0.0913 0.0428,0.3424c0.0964,0.2512 2.151,1.1408 2.4395,1.0272c0.2886,-0.1137 0.0773,0.1915 0.1712,-0.0856c0.094,-0.2772 0.3032,-1.5468 0.214,-1.8403c-0.0892,-0.2936 -0.1096,-0.3701 -0.3424,-0.214zm5.7778,-0.3938c-0.0947,0.1599 -0.0849,0.2187 0,0.3852c0.0285,0.0143 0.057,0.0286 0.0856,0.0428c0.0428,-0.0142 0.0856,-0.0285 0.1284,-0.0428c0.0142,-0.0285 0.0285,-0.057 0.0428,-0.0856c-0.0143,-0.0713 -0.0286,-0.1426 -0.0428,-0.214c-0.0714,-0.0285 -0.1427,-0.057 -0.214,-0.0856zm-33.0401,-0.1284c-0.7783,0.4189 -1.9087,0.5482 -2.2684,1.1128c-0.3596,0.5646 0.3798,0.752 0.0428,1.1983c-0.3369,0.4464 -1.3705,0.3631 -1.7426,0.3039c-0.3721,-0.0591 -0.0856,0.077 -0.0856,0.1284c0,0.0514 -0.1748,0.0242 0.0856,0.1284c0.2604,0.1043 0.9314,0.4284 1.4003,0.6377c1.0447,-0.4889 0.6488,-2.3254 1.2411,-2.6963c0.5923,-0.3709 0.9165,0.3273 1.3268,0.214c0.2677,-0.1184 0.3741,-0.3549 0.3851,-0.7276c-0.0599,-0.1113 -0.069,-0.1427 -0.1712,-0.214c-0.0713,-0.0285 -0.1426,-0.057 -0.2139,-0.0856zm1.9948,-0.2037c-0.1498,0.1747 -0.2995,0.3495 -0.4492,0.5241c0.0161,0.3379 0.0529,0.4036 0.1497,0.599c0.3388,-0.0643 0.2228,0.009 0.3744,-0.2246c0.0748,-0.2995 0.1497,-0.599 0.2245,-0.8985c-0.0998,0 -0.1996,0 -0.2994,0zm28.349,0.1181c-0.0713,0.0714 -0.1427,0.1427 -0.214,0.214c0.0448,0.2601 0.0981,0.2528 0.2996,0.3424c0.2324,-0.0232 0.2942,-0.0512 0.3852,-0.214c0.0589,-0.1533 0.0177,-0.2202 -0.0428,-0.3424c-0.1427,0 -0.2854,0 -0.428,0zm-37.8763,-0.1284c-0.1582,0.1145 -0.2532,0.1524 -0.3424,0.3424c-0.0934,0.3002 -0.0161,0.4717 0.3424,0.4708c0.1141,-0.0998 0.2282,-0.1997 0.3424,-0.2996c0.0003,-0.2708 -0.0367,-0.3245 -0.1284,-0.4708c-0.0714,-0.0142 -0.1427,-0.0285 -0.214,-0.0428zm-17.5473,-0.1283c-0.1101,0.077 -0.1113,0.2644 0,0.3423c0.1114,0.0779 0.0976,-0.0197 0.1284,-0.0428c0.0308,-0.0231 0.0355,-0.0489 0.0428,-0.0856c0.007,-0.0366 0.0333,-0.0867 0,-0.1283c-0.0332,-0.0417 -0.061,-0.1627 -0.1712,-0.0856zm19.8584,-0.5136c-0.1356,0.2287 0.1349,1.2225 -0.0428,1.7119c-0.1777,0.4893 -0.84,0.538 -0.9416,0.9844c-0.1016,0.4463 0.6699,2.063 0.8988,2.1941c0.2289,0.1312 0.1947,0.3721 0.2568,-0.0856c0.062,-0.4576 -0.491,-1.1951 0.4015,-1.3916c0.8924,-0.1965 -0.0458,-0.1779 -0.3274,-0.8283c-0.0727,-0.1681 -0.0253,-0.5003 0.0115,-0.659c0.0979,-0.4232 0.257,-0.5463 0.5991,-0.642c0.3422,-0.0957 0.9301,0.1362 1.1556,0.1284c0.2255,-0.008 0.261,0.1173 0.0856,-0.1712c-0.1755,-0.2885 -1.0259,-0.2634 -1.4552,-0.4708c-0.4292,-0.2073 -0.3111,-0.6301 -0.4279,-0.7703c-0.1169,-0.1402 -0.0784,-0.2287 -0.214,0zm-5.3926,-0.214c-0.2784,0.4909 -0.0213,1.2677 -0.1712,1.9687c-0.0931,0.4356 -0.4365,0.5492 -0.3424,1.1127c0.0286,0.0143 0.0571,0.0286 0.0856,0.0429c0.2931,-0.1525 0.1939,-0.3936 0.3424,-0.6848c0.3911,-0.7666 0.9746,-1.3633 0.3424,-2.4395c-0.0856,0 -0.1712,0 -0.2568,0zm27.7332,-0.0428c-0.2568,0.1284 -0.5136,0.2568 -0.7704,0.3852c0.1781,0.2232 0.443,0.1362 0.6848,0.2996c0.1426,0.1997 0.2853,0.3994 0.428,0.5991c0.0713,-0.0142 0.1426,-0.0285 0.214,-0.0428c-0.001,-0.4685 -0.1041,-0.9633 -0.2996,-1.2411c-0.0143,0 -0.0286,0 -0.0428,0c-0.0714,0 -0.1427,0 -0.214,0zm-8.9448,-0.2996c-0.3131,0.1251 -0.615,0.5041 -0.642,0.856c-0.027,0.3518 0.0371,0.3715 -0.0428,0.5991c-0.0799,0.2277 -0.6258,0.2228 -0.5992,0.5992c0.0267,0.3764 0.4814,0.9567 0.5992,1.1556c0.1178,0.1989 -0.0361,-0.0852 0.0856,0c0.1217,0.0852 0.5099,0.0807 0.7704,0.2568c0.2604,0.176 0.5319,0.529 0.7275,0.6419c0.1957,0.1129 0.2953,0.045 0.3852,0c0.09,-0.0449 0.3273,0.0102 0.0428,-0.214c-0.2845,-0.2242 -2.0576,-1.5452 -1.6691,-2.4823c0.3885,-0.9371 1.4498,-0.2273 1.7975,-0.1712c0.3477,0.0562 0.1054,-0.0516 0.1284,-0.1284c0.023,-0.0768 0.0677,-0.1535 0,-0.2995c-0.0676,-0.146 -1.2705,-0.9382 -1.5835,-0.8132zm16.0921,-0.1284c-0.0428,0.0571 -0.0856,0.1141 -0.1284,0.1712c0.0127,0.2392 0.0436,0.2498 0.1284,0.3852c0.057,0 0.1141,0 0.1712,0c0.2012,-0.1951 0.237,-0.2984 0.0855,-0.5564c-0.0855,0 -0.1712,0 -0.2567,0zm4.9217,-0.0428c-0.1358,0.1459 -0.1921,0.1909 -0.2139,0.4708c0.0713,0.0998 0.1426,0.1997 0.2139,0.2996c0.0571,0 0.1142,0 0.1712,0c0.0286,-0.0428 0.0571,-0.0856 0.0856,-0.1284c0.0881,-0.1476 0.082,-0.2827 0.0428,-0.4708c-0.057,-0.0571 -0.1141,-0.1141 -0.1712,-0.1712c-0.0428,0 -0.0856,0 -0.1284,0zm-32.5265,-0.5992c-0.0428,0.0428 -0.0856,0.0856 -0.1284,0.1284c0,0.0571 0,0.1142 0,0.1712c0.4447,0.2559 0.6527,0.5059 0.9844,0.856c0.0998,-0.0143 0.1997,-0.0285 0.2995,-0.0428c0.0856,-0.0713 0.1712,-0.1427 0.2568,-0.214c-0.0333,-0.5642 -0.8558,-0.8831 -1.4123,-0.8988zm30.2154,-0.214c-0.0998,0.0999 -0.1997,0.1998 -0.2995,0.2996c0.0142,0.1142 0.0285,0.2283 0.0428,0.3424c0.0998,0.0285 0.1997,0.0571 0.2995,0.0856c0.1516,-0.1364 0.325,-0.2822 0.2568,-0.5136c-0.0285,-0.0713 -0.057,-0.1426 -0.0856,-0.214c-0.0713,0 -0.1426,0 -0.214,0zm-11.6838,-0.4279c-0.3252,0.1848 -0.7136,0.2597 -0.642,0.7275c0.3138,0 0.6277,0 0.9415,0c0.0143,-0.0428 0.0286,-0.0856 0.0428,-0.1284c0.0977,-0.2335 -0.0285,-0.402 -0.1284,-0.5563c-0.0713,-0.0143 -0.1426,-0.0286 -0.2139,-0.0428zm-22.0839,0c-0.2579,0.2213 -1.2617,0.642 -1.5407,0.8131c-0.279,0.1712 -0.0167,0.095 0,0.1284c0.0167,0.0334 -0.1807,0.0644 0.0856,0.0428c0.2663,-0.0216 1.1258,-0.0132 1.4979,-0.1712c0.3722,-0.158 0.4077,-0.6097 0.2568,-0.8131c-0.1508,-0.2035 -0.0416,-0.2214 -0.2996,0zm29.5307,-0.2568c-0.5868,0.5138 -1.2036,1.1396 -1.2839,2.1399c0.0713,0.0856 0.1426,0.1712 0.214,0.2568c0.057,0 0.1141,0 0.1712,0c0.1614,-0.2507 1.1164,-2.3718 1.1127,-2.3967c-0.0713,0 -0.1426,0 -0.214,0zm-12.8822,-0.5564c-0.2133,0.1644 -0.4132,0.2297 -0.5564,0.4708c0.257,0.3431 0.6676,0.1684 0.8988,-0.0856c-0.0285,-0.1284 -0.0571,-0.2568 -0.0856,-0.3852c-0.0143,0 -0.0285,0 -0.0428,0c-0.0713,0 -0.1427,0 -0.214,0zm2.8675,-0.2996c-0.0856,0.0571 -0.1712,0.1142 -0.2568,0.1712c-0.2053,0.7322 -0.2057,1.3911 -0.9416,1.5835c-0.348,0.0911 -0.4596,-0.0607 -0.6419,0.1712c-0.0143,0.0571 -0.0286,0.1142 -0.0428,0.1712c0.2349,0.2425 0.4856,0.4003 0.9415,0.428c0.5223,-0.2975 0.3379,-0.6827 0.642,-1.1984c0.2567,-0.328 0.5136,-0.6562 0.7703,-0.9843c-0.0319,-0.1907 -0.0534,-0.1799 -0.1283,-0.2996c-0.0286,-0.0143 -0.0571,-0.0285 -0.0856,-0.0428c-0.0856,0 -0.1712,0 -0.2568,0zm11.2987,-0.0428c-0.0856,0.1141 -0.1712,0.2283 -0.2568,0.3424c0.0285,0.0428 0.057,0.0856 0.0856,0.1284c0.057,0 0.1141,0 0.1712,0c0.0856,-0.0856 0.1712,-0.1712 0.2568,-0.2568c-0.0143,-0.0713 -0.0286,-0.1427 -0.0428,-0.214c-0.0714,0 -0.1427,0 -0.214,0zm-21.8698,-0.428c-0.0425,0.3961 0.4566,0.6147 0.3423,1.1556c-0.0754,0.3571 -0.3956,0.4573 -0.4707,0.8559c0.0428,0.0143 0.0856,0.0286 0.1284,0.0428c0.5157,-0.2014 0.8162,-0.6224 0.8559,-1.2839c-0.1575,-0.33 -0.4365,-0.7055 -0.8559,-0.7704zm13.6953,-1.1127c-0.0832,0.1781 -0.0873,0.2495 0,0.428c0.5084,0.1088 0.779,0.2295 1.1128,0.4708c0.1141,-0.0429 0.2283,-0.0857 0.3424,-0.1285c0,-0.0142 0,-0.0285 0,-0.0428c-0.007,-0.2953 -0.0583,-0.3111 -0.1712,-0.4707c-0.428,-0.0856 -0.856,-0.1712 -1.284,-0.2568zm-5.1357,-0.1712c-0.1226,0.1496 -0.2009,0.193 -0.2568,0.428c0.0285,0.0142 0.0571,0.0285 0.0856,0.0428c0.2641,-0.0737 0.3912,-0.1606 0.428,-0.4708c-0.0856,0 -0.1712,0 -0.2568,0zm1.9687,-0.0856c-0.0428,0.057 -0.0856,0.1141 -0.1284,0.1712c0.0285,0.0428 0.057,0.0856 0.0856,0.1284c0.0428,0.0143 0.0856,0.0285 0.1284,0.0428c0.057,-0.0428 0.1141,-0.0856 0.1712,-0.1284c-0.0143,-0.0428 -0.0286,-0.0856 -0.0428,-0.1284c-0.0714,-0.0285 -0.1427,-0.0571 -0.214,-0.0856zm12.6254,-0.0428c-0.057,0.0856 -0.1141,0.1712 -0.1712,0.2568c0.1092,0.7526 1.9372,0.7681 2.5251,0.3852c0.0143,-0.0286 0.0285,-0.0571 0.0428,-0.0856c-0.0428,-0.0999 -0.0856,-0.1998 -0.1284,-0.2996c-0.5015,0.0175 -0.9555,0.275 -1.5407,0.1284c-0.2425,-0.1284 -0.4851,-0.2568 -0.7276,-0.3852zm-19.7727,0c-0.1613,0.085 -0.3539,0.2381 -0.2996,0.5136c0.0543,0.2755 0.1518,0.3867 0.3852,0.4707c0.2334,0.0841 0.3623,0.0325 0.4708,-0.1283c0.1085,-0.1609 0.1024,-0.4357 0.0428,-0.5992c-0.0596,-0.1635 -0.1038,-0.2096 -0.214,-0.2568c-0.1102,-0.0472 -0.2239,-0.085 -0.3852,0zm15.4929,-0.7276c-0.4509,0.1786 -1.1508,0.5771 -1.4551,1.07c-0.3044,0.4929 -0.0526,1.3937 -0.2568,1.9687c-0.2043,0.575 -0.9384,0.5206 -1.1556,0.8132c-0.2171,0.2925 0.0001,0.394 0.0428,0.5135c0.0427,0.1196 -0.0824,0.0587 0.0856,0.0428c0.1681,-0.0158 1.3897,-0.5567 1.5408,-0.8559c0.151,-0.2993 -0.1647,-0.5845 -0.0428,-1.1556c0.1219,-0.571 0.8518,-1.5111 1.4123,-1.4551c0.5605,0.056 0.4098,0.6345 0.856,0.7703c0.4461,0.1359 0.9957,-1.3994 0.8559,-1.6691c-0.1397,-0.2696 0.1447,-0.0332 -0.0428,0c-0.1874,0.0333 -0.7236,0.4125 -1.1127,0.2996c-0.3891,-0.1129 -0.2767,-0.5209 -0.7276,-0.3424zm-18.3604,-0.9843c-0.0655,0.0409 -0.004,-0.1667 -0.1284,0.214c-0.1248,0.3807 0.3429,1.2246 0.5992,1.3695c0.2563,0.1449 0.3447,-0.0553 0.428,-0.0856c0.0833,-0.0303 0.0657,0.2164 0.0428,-0.0856c-0.0229,-0.3019 -0.5164,-1.2505 -0.7276,-1.4123c-0.2112,-0.1619 -0.1485,-0.041 -0.214,0zm-4.1086,-1.1984c-0.0285,0.0856 -0.057,0.1712 -0.0856,0.2568c0.1228,0.1298 0.1362,0.1938 0.3424,0.2568c0,-0.0571 0,-0.1141 0,-0.1712c-0.0718,-0.1824 -0.0855,-0.2535 -0.2568,-0.3424zm-2.6107,-0.8559c-0.1977,0.2269 -0.7116,1.0069 -1.0271,1.3267c-0.3156,0.3198 -0.7431,0.1631 -0.9416,0.428c-0.1985,0.2649 -0.2137,0.813 0.0428,1.1127c0.2565,0.2998 0.4149,-0.1389 1.2412,0.428c0.8263,0.5669 -0.3216,2.198 -0.5992,2.6107c-0.2777,0.4127 -0.3426,0.2373 0.1284,0.2568c0.4709,0.0194 1.0376,-0.6428 1.6691,-0.7704c0.6315,-0.1275 0.902,0.3417 1.3695,0.3852c0.4676,0.0435 0.9561,-0.0656 1.4552,0c0.499,0.0656 0.8949,1.1593 0.5564,1.498c-0.3386,0.3386 -0.371,0.2282 -0.5564,0.3423c0.0285,0.0571 0.057,0.1142 0.0856,0.1712c0.5321,0.0152 1.671,0.1194 1.9259,-0.1712c-0.0428,-0.0285 -0.007,-0.0213 -0.1284,-0.0856c-0.1214,-0.0642 -0.4422,-0.0659 -0.5992,-0.2996c-0.157,-0.2336 -0.0283,-0.8352 -0.1284,-1.2839c-0.1,-0.4487 -0.5762,-0.8768 -0.4279,-1.3695c0.1482,-0.4928 0.2788,-0.3992 0.4279,-0.9416c0.1491,-0.5424 -0.5386,-1.5444 -1.0699,-1.3267c-0.5313,0.2176 -1.2442,1.2398 -0.7704,1.5407c0.4738,0.3009 0.721,-0.0753 0.8988,0.1284c0.1777,0.2037 0.2121,0.3482 0.1712,0.642c-0.041,0.2937 0.0124,0.5786 -0.5136,0.6847c-0.526,0.1062 -2.2344,-0.1539 -2.5679,-0.642c-0.3335,-0.488 -0.4186,-1.4816 -0.7704,-1.7119c-0.3517,-0.2302 -0.6956,0.0794 -0.8987,-0.214c-0.2032,-0.2934 -0.1859,-0.7946 0.1284,-0.9843c0.3142,-0.1898 0.4568,0.2107 0.8559,0.0428c0.3991,-0.1679 0.4811,-1.5696 0.1712,-1.7975c-0.3098,-0.228 0.0693,-0.227 -0.1284,0zm4.3226,-0.2996c-0.0571,0.3186 0.5186,1.0182 0.7276,1.1555c0.209,0.1373 0.1508,0.008 0.2996,-0.0428c0.1488,-0.0503 0.3836,-0.3007 0.428,-0.428c0.0443,-0.1273 0.0312,-0.0982 0,-0.1711c-0.0312,-0.073 0.0683,0.0107 -0.0856,-0.0856c-0.1539,-0.0964 -0.7272,-0.0264 -0.9416,-0.1284c-0.2144,-0.1021 -0.3708,-0.6182 -0.428,-0.2996zm28.2896,2.8247c0.886,0.2303 0.998,-2.3833 0.4708,-2.9103c-0.5273,-0.527 -1.133,-0.01 -1.1556,0.3852c-0.0226,0.3947 0.5924,0.2536 0.856,0.7275c0.2636,0.474 -1.0573,1.5672 -0.1712,1.7976zm-35.3941,-3.2099c-0.1116,0.1644 -0.4876,1.0673 -0.3851,1.2839c0.1024,0.2167 0.1712,0.2452 0.2568,0.2996c0.0855,0.0545 0.1484,0.0409 0.2139,0c0.0655,-0.0409 0.0516,0.0129 0.1284,-0.214c0.0769,-0.2269 0.0292,-1.1368 -0.0428,-1.3267c-0.0719,-0.1899 -0.0595,-0.2073 -0.1712,-0.0428zm32.8291,0.008c-0.4054,0.2382 0.4534,1.2726 -1.0798,1.6081c-0.456,0.0998 -0.2637,0.527 0.0511,0.5697c0.3149,0.0428 0.6269,0.0986 0.9163,0.4989c0.2894,0.4002 0.4993,0.3721 0.433,-0.0944c-0.0663,-0.4664 -0.5069,-1.6899 0.2418,-2.0257c0.234,-0.1049 0.2935,-0.1162 0.3698,-0.2077c0.5914,-0.71 -0.6983,-0.4863 -0.9322,-0.3489zm-3.1796,-1.1484c-0.5032,0.0681 -0.3527,0.0699 -0.2567,0.3852c0.0959,0.3152 0.8187,0.7182 0.5563,1.2839c-0.2623,0.5657 -0.635,0.0312 -1.4551,0.4708c-0.8201,0.4396 -1.4713,0.8592 -1.4551,0.856c0.0161,-0.003 -0.444,-0.0249 0.0428,0.1284c0.4868,0.1533 1.1259,-0.418 1.6691,-0.642c0.5432,-0.224 1.1119,0.2336 1.4551,0.1284c0.3432,-0.1052 1.1772,-1.5877 0.9844,-1.8831c-0.1928,-0.2955 -1.0375,-0.7957 -1.5408,-0.7276zm-1.8271,-0.8109c-0.0253,0.0119 0.005,0.108 -0.0157,0.1262c-0.0211,0.0182 -0.036,0.0359 -0.0366,0.0457c-0.002,0.0343 -0.1378,0.01 -0.1713,0.0253c-0.0766,0.0356 0.0657,0.1551 -0.011,0.1907c-0.0172,0.0492 -0.2259,-0.0136 -0.2221,0.0216c0.0147,0.1326 -0.0139,0.2451 0.0162,0.3902c0.2976,0.0407 0.7718,0.0399 1.2151,-0.007c0.0191,-0.1562 0.0498,-0.2556 0.003,-0.3714c-0.0174,-0.0425 -0.1305,0.0165 -0.1797,-0.0314c-0.0276,-0.0268 0.0127,-0.1626 -0.0151,-0.1858c-0.0434,-0.0362 -0.1046,-0.01 -0.1743,-0.0123c-0.0946,-0.003 0.0447,-0.1507 -0.0216,-0.1817c-0.104,-0.0485 -0.2415,0.0138 -0.3865,-0.01l-0.0004,-0.0001z"/>
   <path fill="#ffffff" fill-rule="evenodd" id="path83" d="m118.3107,260.776l90.5029,0.0402l-2.8875,5.0165l0,-0.9552l-85.279,0l-2.3364,-4.1015zm87.1465,5.8714l-1.8835,3.2722l0,-1.3894l-80.8459,0l-1.0725,-1.8828l83.8019,0zm-2.066,3.5893l-2.1878,3.8008l0,-1.8098l-76.3693,0l-1.1341,-1.991l79.6912,0zm-2.2375,3.8872l-12.6781,22.0259l0,-1.7311l-24.2677,0c-1.3864,-0.0106 -2.7729,-0.0213 -4.1591,-0.032c-0.0158,0.01 -0.0319,0.0207 -0.0482,0.032l-22.5254,0l-1.0417,-1.8287l53.9461,0l0,-1.8581l-55.0046,0l-1.0417,-1.8288l57.9502,0l0,-1.8581l-59.0087,0l-1.0417,-1.8287l61.9544,0l0,-1.8581l-63.0129,0l-1.0417,-1.8287l65.9586,0l0,-1.8581l-67.0171,0l-1.0538,-1.8499l70.9074,0l0,-1.8014l-71.9335,0l-1.0802,-1.8962l75.2394,0zm-12.7513,22.1529l-1.8308,3.1808l0,-1.352l-19.8712,0c-2.9161,-0.0128 -5.8328,-0.0255 -8.7487,-0.0382c-0.0199,0.0125 -0.0396,0.0252 -0.0592,0.0382l-18.3171,0l-1.0417,-1.8288l22.2741,0c1.252,0.0469 2.8958,0.0444 4.1208,0l23.4738,0zm-2.1221,3.6869l-1.6127,2.8017l0,-0.973l-42.992,0l-1.0417,-1.8287l45.6464,0zm-2.1222,3.6868l-1.3945,2.4227l0,-0.594l-38.9878,0l-1.0417,-1.8287l41.424,0zm-2.1221,3.6868l-1.1764,2.0437l0,-0.2149l-34.9836,0l-1.0417,-1.8288l37.2017,0zm-2.1222,3.6869l-10.5371,18.3062l0,-1.6023l-12.9268,0l-1.1038,-1.9377l15.7854,0l0,-1.8581l-16.8439,0l-1.0086,-1.7706l19.9154,0l0,-1.8245l-20.9547,0l-1.0427,-1.8304l24.0603,0l0,-1.8581l-25.1188,0l-1.1038,-1.9377l28.2855,0l0,-1.8581l-29.3439,0l-1.0418,-1.8287l32.9793,0zm-10.6843,18.562l-1.9157,3.3281l0,-1.3904l-8.7016,0l-1.1038,-1.9377l11.7211,0zm-2.1324,3.7046l-1.1191,1.9443l0,-0.1381l-5.3304,0l-1.0289,-1.8062l7.4784,0zm-2.6127,4.5391l-1.1459,1.9908l-1.1341,-1.9908l2.28,0z"/>
  </g>
 </g>
</svg>